<svg width="356" height="231" viewBox="0 0 356 231" fill="none" xmlns="http://www.w3.org/2000/svg">
<g opacity="0.79">
<path fill-rule="evenodd" clip-rule="evenodd" d="M64.5419 56.92C64.9382 56.92 65.3345 56.9827 65.6721 57.1239C65.628 56.92 65.6134 56.7318 65.6134 56.5122C65.6134 54.7242 67.0664 53.2812 68.8571 53.2812C69.18 53.2812 69.4736 53.3283 69.7671 53.4067C70.2221 51.1325 72.1889 49.4072 74.5667 49.4072C77.2674 49.4072 79.4543 51.6501 79.4543 54.4105C79.4543 54.881 79.3956 55.3359 79.2635 55.775C81.0248 55.9005 82.4192 57.2337 82.4192 58.9432C82.4192 60.6528 80.8927 62.0174 79.9387 62.2997C79.7919 62.3467 79.6011 62.331 79.381 62.2997H64.5419C62.8687 62.2997 61.5183 61.092 61.5183 59.602C61.5183 58.1277 62.8833 56.92 64.5419 56.92Z" fill="white"/>
<path fill-rule="evenodd" clip-rule="evenodd" d="M99.695 37.1898C100.223 37.1898 100.737 37.2839 101.192 37.4564C101.148 37.1898 101.119 36.9232 101.119 36.6565C101.119 34.3039 103.041 32.3904 105.405 32.3904C105.83 32.3904 106.227 32.4531 106.608 32.5629C107.21 29.5516 109.823 27.2773 112.949 27.2773C116.516 27.2773 119.422 30.2417 119.422 33.8804C119.422 34.5078 119.334 35.1195 119.172 35.6841C121.506 35.8566 123.355 37.6133 123.355 39.8718C123.355 42.1303 121.33 43.934 120.082 44.3104C119.891 44.3732 119.642 44.3575 119.348 44.3104H99.7097C97.5081 44.3104 95.7174 42.7106 95.7174 40.7501C95.7027 38.7896 97.4934 37.1898 99.695 37.1898Z" fill="white"/>
<path fill-rule="evenodd" clip-rule="evenodd" d="M18.4688 157.722C18.4688 157.722 10.2494 153.19 11.7612 142.07C13.273 130.949 6.90288 127.42 5.28835 124.111C3.67381 120.802 7.29918 115.469 6.8882 110.795C6.47723 106.121 1.42814 104.867 3.79123 98.4517C6.15432 92.0368 4.15817 89.6057 1.04652 82.736C-2.06513 75.8663 2.54364 65.3736 4.7306 65.4363C6.91756 65.4991 4.24624 67.9458 6.18368 72.5099C8.10645 77.074 16.2378 78.4699 18.7771 82.2812C21.3163 86.0925 16.8543 91.1585 19.7458 96.3029C22.6519 101.463 31.2971 99.8632 33.5721 104.851C35.8618 109.854 30.4017 115.845 31.9869 121.084C33.5721 126.323 39.4138 129.303 41.8649 133.506C44.3161 137.709 48.9249 145.787 41.3806 155.417C33.851 165.063 18.4688 157.722 18.4688 157.722Z" fill="#64D6CD"/>
<path fill-rule="evenodd" clip-rule="evenodd" d="M11.6438 146.43C11.5997 145.991 11.5704 145.536 11.5704 145.066L33.9097 158.476L31.9282 152.986C31.9135 152.97 31.9135 152.939 31.8989 152.923L30.8861 150.116L11.9667 138.76C11.9667 138.29 11.952 137.851 11.9227 137.427L30.2843 148.453L28.4937 143.497L11.0126 133.004C10.7925 132.377 10.5283 131.781 10.2641 131.232L27.8919 141.819L26.9965 139.356C26.9819 139.325 26.9819 139.309 26.9672 139.278L23.0776 128.503L5.58193 117.994C5.68467 117.618 5.78741 117.257 5.90484 116.881L22.4758 126.84L20.5384 121.461L6.75613 113.179C6.81484 112.756 6.85888 112.348 6.87355 111.94L19.9366 119.782L18.4835 115.736C18.4689 115.72 18.4689 115.705 18.4689 115.673L14.227 103.91L3.99675 97.7618C4.12885 97.3854 4.23159 97.009 4.33433 96.6482L13.6252 102.232L9.9265 91.9586C9.91182 91.943 9.91182 91.9273 9.91182 91.8959L3.80594 74.9412C3.70319 74.6432 3.83529 74.3139 4.11417 74.2041C4.39304 74.0943 4.70127 74.2354 4.80402 74.5334L10.3521 89.9354L13.5225 78.3604C13.8454 78.5329 14.1683 78.7055 14.4912 78.8937L10.9833 91.692L15.1517 103.267C15.1517 103.283 15.1664 103.298 15.1664 103.314L19.0266 114.011L25.1178 100.067C25.4554 100.177 25.8077 100.303 26.1452 100.412L19.555 115.501L21.0228 119.579L29.0367 101.354C29.389 101.479 29.7266 101.62 30.0495 101.761L21.6686 120.802L21.8007 120.88C22.0649 121.037 22.1529 121.382 22.0062 121.665C21.9621 121.743 21.9034 121.806 21.8447 121.853L24.017 127.86C24.017 127.876 24.0317 127.891 24.0317 127.907L27.5396 137.631L33.484 124.127C33.7189 124.472 33.9684 124.801 34.2326 125.131L28.0827 139.121L28.978 141.631L35.5683 126.652C35.8325 126.935 36.1113 127.217 36.3902 127.483L29.5211 143.105L31.8255 149.488C31.8255 149.504 31.8402 149.52 31.8402 149.536L32.4713 151.308L40.9109 132.126C41.1751 132.455 41.4246 132.8 41.6448 133.145L32.9997 152.782L35.4362 159.526C35.4362 159.542 35.4508 159.558 35.4508 159.573V159.589C35.0252 159.73 34.5995 159.856 34.1739 159.95L11.6438 146.43Z" fill="#E9EFF8"/>
<path fill-rule="evenodd" clip-rule="evenodd" d="M314.002 80.1487C314.002 80.1487 320.108 76.7766 318.993 68.5267C317.877 60.2611 322.603 57.6575 323.807 55.1951C325.01 52.7326 322.324 48.7802 322.618 45.2983C322.926 41.8321 326.669 40.891 324.908 36.1387C323.146 31.3864 324.643 29.567 326.948 24.4696C329.252 19.3723 325.832 11.5772 324.203 11.6242C322.574 11.6713 324.555 13.4907 323.132 16.8785C321.708 20.2663 315.661 21.3014 313.782 24.1403C311.889 26.9791 315.206 30.7276 313.063 34.5546C310.905 38.3816 304.491 37.1896 302.788 40.9067C301.086 44.6239 305.137 49.0625 303.963 52.9679C302.788 56.8576 298.444 59.0691 296.624 62.1902C294.804 65.3114 291.384 71.3028 296.976 78.4548C302.568 85.6068 314.002 80.1487 314.002 80.1487Z" fill="#94EBE4"/>
<path fill-rule="evenodd" clip-rule="evenodd" d="M319.066 71.7724C319.095 71.4431 319.125 71.1137 319.125 70.7687L302.539 80.7282L304.007 76.6503C304.007 76.6346 304.022 76.6189 304.022 76.6032L304.77 74.5172L318.817 66.0791C318.817 65.734 318.831 65.4046 318.846 65.091L305.21 73.2781L306.531 69.5923L319.506 61.7973C319.668 61.3267 319.859 60.8876 320.064 60.4798L306.972 68.3376L307.632 66.5025C307.632 66.4869 307.647 66.4712 307.647 66.4398L310.524 58.4408L323.513 50.6458C323.44 50.3635 323.352 50.0968 323.279 49.8145L310.964 57.2018L312.402 53.2023L322.633 47.0541C322.589 46.7404 322.559 46.4424 322.545 46.1287L312.843 51.9476L313.929 48.9362C313.929 48.9205 313.944 48.9048 313.944 48.8891L317.085 40.153L324.688 35.5889C324.585 35.3066 324.511 35.0243 324.438 34.7576L317.54 38.8983L320.284 31.2757C320.284 31.26 320.299 31.2444 320.299 31.2287L324.834 18.6499C324.908 18.4303 324.805 18.1794 324.6 18.1009C324.394 18.0225 324.159 18.1323 324.086 18.3519L319.961 29.7857L317.613 21.1907C317.363 21.3162 317.129 21.4574 316.894 21.5829L319.492 31.0875L316.395 39.6825C316.395 39.6982 316.38 39.6982 316.38 39.7138L313.518 47.6658L308.997 37.3142C308.748 37.4083 308.484 37.4867 308.234 37.5651L313.122 48.7637L312.036 51.7907L306.076 38.2552C305.827 38.3493 305.563 38.4434 305.328 38.5532L311.551 52.7004L311.463 52.7631C311.272 52.8729 311.199 53.1396 311.316 53.3435C311.346 53.4062 311.39 53.4532 311.434 53.4846L309.819 57.9546C309.819 57.9703 309.805 57.986 309.805 57.986L307.207 65.2164L302.789 55.1942C302.612 55.4451 302.436 55.6961 302.231 55.9314L306.796 66.3143L306.12 68.1651L301.233 57.0449C301.027 57.2488 300.837 57.4527 300.631 57.6566L305.739 69.263L304.036 73.9996C304.036 74.0153 304.022 74.0153 304.022 74.031L303.552 75.3485L297.285 61.1072C297.094 61.3581 296.903 61.6091 296.741 61.8757L303.156 76.462L301.35 81.4653C301.35 81.481 301.336 81.481 301.336 81.4967V81.5124C301.644 81.6222 301.967 81.7006 302.29 81.779L319.066 71.7724Z" fill="white"/>
<path fill-rule="evenodd" clip-rule="evenodd" d="M305.504 69.2948C305.504 69.2948 310.788 64.6052 308.029 56.7944C305.269 48.9837 309.364 45.3449 310.039 42.6629C310.715 39.9809 307.295 36.7343 306.884 33.2681C306.487 29.8018 309.951 28.0452 307.28 23.7948C304.609 19.5443 305.695 17.4426 306.928 11.9375C308.161 6.4323 303.244 -0.390345 301.658 0.0174459C300.073 0.440921 302.378 1.7584 301.673 5.39714C300.954 9.03589 295.274 11.4356 293.997 14.6352C292.72 17.8347 296.727 20.7363 295.391 24.9711C294.055 29.2058 287.553 29.5195 286.643 33.5347C285.733 37.5498 290.577 40.969 290.225 45.0312C289.858 49.1091 286.071 52.2617 284.926 55.7279C283.781 59.1941 281.638 65.8442 288.551 71.5376C295.435 77.2467 305.504 69.2948 305.504 69.2948Z" fill="#64D6CD"/>
<path fill-rule="evenodd" clip-rule="evenodd" d="M308.748 59.947C308.718 59.6176 308.66 59.2882 308.601 58.9432L294.408 72.4944L295.024 68.1812C295.024 68.1655 295.024 68.1498 295.024 68.1185L295.332 65.907L307.353 54.4418C307.28 54.1124 307.236 53.7831 307.192 53.4537L295.523 64.5895L296.081 60.6841L307.177 50.0816C307.251 49.5797 307.339 49.1092 307.456 48.67L296.257 59.3667L296.536 57.4218C296.536 57.4061 296.536 57.3904 296.551 57.3591L297.754 48.8739L308.865 38.2713C308.733 38.0204 308.601 37.7694 308.469 37.5185L297.945 47.5721L298.547 43.3373L307.309 34.9776C307.206 34.6796 307.118 34.3973 307.045 34.0993L298.738 42.0199L299.192 38.836C299.192 38.8203 299.192 38.8046 299.192 38.7889L300.499 29.5352L307.001 23.3399C306.854 23.089 306.707 22.838 306.59 22.5871L300.69 28.2177L301.834 20.1403C301.834 20.1247 301.834 20.109 301.834 20.0933L303.728 6.76168C303.757 6.52642 303.61 6.30684 303.39 6.27547C303.17 6.2441 302.965 6.40094 302.935 6.63621L301.218 18.7444L297.182 10.8866C296.976 11.0749 296.756 11.2474 296.551 11.4356L301.013 20.1247L299.721 29.2215C299.721 29.2372 299.721 29.2529 299.721 29.2529L298.532 37.6753L292.03 28.6098C291.795 28.751 291.56 28.8922 291.325 29.0333L298.356 38.8517L297.901 42.0669L289.359 30.2253C289.124 30.3822 288.904 30.5233 288.683 30.6958L297.607 43.0707L297.534 43.1491C297.373 43.306 297.358 43.5726 297.505 43.7451C297.549 43.7922 297.593 43.8392 297.651 43.8549L296.976 48.5916C296.976 48.6073 296.976 48.6229 296.976 48.6386L295.89 56.2925L289.564 47.5094C289.447 47.7917 289.315 48.074 289.168 48.3563L295.729 57.4532L295.45 59.4137L288.434 49.6738C288.287 49.9247 288.126 50.1757 287.964 50.4109L295.288 60.5587L294.569 65.5776C294.569 65.5933 294.569 65.609 294.569 65.609L294.378 67.0049L285.381 54.5359C285.234 54.8182 285.117 55.1162 284.999 55.3985L294.202 68.1655L293.454 73.4825C293.454 73.4982 293.454 73.5138 293.454 73.5138V73.5295C293.776 73.5609 294.114 73.5766 294.437 73.5766L308.748 59.947Z" fill="#E9EFF8"/>
<path fill-rule="evenodd" clip-rule="evenodd" d="M31.8841 140.8C31.8841 140.8 23.8995 132.377 29.4183 120.065C34.9371 107.769 28.7578 101.228 28.0093 96.7582C27.2607 92.3039 33.2638 87.5202 34.3793 81.9523C35.4802 76.3844 30.0641 72.9809 34.9811 66.4719C39.8981 59.963 38.401 56.3713 37.1241 47.2117C35.8471 38.0521 44.7417 27.6848 47.2663 28.5945C49.7908 29.5041 45.8572 31.3235 46.5471 37.3463C47.2369 43.3847 56.1609 48.137 57.8195 53.5324C59.4634 58.9435 52.5796 63.0684 54.1941 70.1577C55.8086 77.247 66.3618 78.737 67.3159 85.4185C68.2699 92.1 59.9184 96.9307 59.9771 103.612C60.0358 110.294 65.7894 116.003 67.2131 121.822C68.6369 127.656 71.2201 138.776 59.2285 147.011C47.2076 155.26 31.8841 140.8 31.8841 140.8Z" fill="#94EBE4"/>
<path fill-rule="evenodd" clip-rule="evenodd" d="M27.8185 125.084C27.9212 124.566 28.0386 124.017 28.1854 123.484L49.512 147.669L49.0863 140.548C49.0863 140.517 49.0863 140.486 49.0863 140.454L48.8662 136.8L30.8127 116.316C30.9742 115.783 31.1063 115.25 31.209 114.748L48.7341 134.62L48.3524 128.173L31.6493 109.274C31.6053 108.458 31.5026 107.674 31.3705 106.937L48.191 126.025L48.0002 122.825C48.0002 122.794 48.0002 122.762 48.0002 122.731L47.1636 108.741L30.4604 89.8097C30.71 89.4176 30.9595 89.0255 31.209 88.6334L47.0315 106.576L46.6058 99.5967L33.4547 84.681C33.6602 84.2261 33.851 83.7556 34.0124 83.2851L46.4884 97.4323L46.1655 92.178C46.1655 92.1467 46.1655 92.131 46.1655 92.0996L45.2408 76.8388L35.4802 65.7658C35.7591 65.3737 36.0086 64.9816 36.2434 64.6051L45.1087 74.6587L44.3014 61.3428C44.3014 61.3114 44.3014 61.2957 44.3014 61.2644L42.9804 39.2751C42.9658 38.8987 43.23 38.5693 43.5822 38.5379C43.9345 38.5065 44.2427 38.8045 44.2721 39.181L45.4756 59.1627L53.064 46.9917C53.3869 47.3211 53.6951 47.6505 54.0033 47.9798L45.6077 61.4526L46.5177 76.4624C46.5177 76.4781 46.5177 76.5095 46.5177 76.5252L47.3544 90.4057L59.1258 76.6193C59.4781 76.8859 59.845 77.1525 60.2119 77.4035L47.4718 92.3349L47.7947 97.6205L63.2649 79.6149C63.6171 79.8973 63.9694 80.1796 64.2923 80.4776L48.1323 99.2987L48.2497 99.4398C48.4992 99.7222 48.4845 100.161 48.2203 100.428C48.147 100.506 48.0589 100.553 47.9708 100.585L48.4405 108.38C48.4405 108.396 48.4405 108.427 48.4405 108.443L49.2037 121.068L60.667 107.737C60.8284 108.223 61.0045 108.709 61.1953 109.18L49.3358 122.998L49.5267 126.244L62.2375 111.454C62.4576 111.877 62.6778 112.317 62.9126 112.74L49.6587 128.173L50.1578 136.455C50.1578 136.47 50.1578 136.502 50.1578 136.517L50.2899 138.807L66.5673 119.861C66.7582 120.347 66.9343 120.849 67.0664 121.335L50.4073 140.736L50.9357 149.488C50.9357 149.504 50.9357 149.535 50.9357 149.551V149.582C50.4073 149.582 49.8642 149.551 49.3358 149.504L27.8185 125.084Z" fill="#C7FFFB"/>
<path d="M110.541 157.738H24.105V208.398H110.541V157.738Z" fill="#64D6CD"/>
<path d="M109.969 159.527H23.5325V167.212H109.969V159.527Z" fill="#64D6CD"/>
<path fill-rule="evenodd" clip-rule="evenodd" d="M21.2139 162.223H112.406L100.502 126.463H31.8992L21.2139 162.223Z" fill="#64D6CD"/>
<path d="M112.391 162.036H21.2139V164.185H112.391V162.036Z" fill="#56BFB7"/>
<path d="M97.919 171.681H80.4526V198.36H97.919V171.681Z" fill="#56BFB7"/>
<path d="M97.0819 172.513H92.5612V184.605H97.0819V172.513Z" fill="#64D6CD"/>
<path d="M91.5338 172.513H86.9104V184.605H91.5338V172.513Z" fill="#64D6CD"/>
<path d="M85.8685 172.513H81.2598V184.605H85.8685V172.513Z" fill="#64D6CD"/>
<path d="M97.0817 185.453H92.561V197.545H97.0817V185.453Z" fill="#64D6CD"/>
<path d="M91.534 185.453H86.9105V197.545H91.534V185.453Z" fill="#64D6CD"/>
<path d="M85.8685 185.453H81.2598V197.545H85.8685V185.453Z" fill="#64D6CD"/>
<path fill-rule="evenodd" clip-rule="evenodd" d="M96.392 173.705H92.5612V172.513H97.0819V184.605H96.392V173.705Z" fill="#64D6CD"/>
<path fill-rule="evenodd" clip-rule="evenodd" d="M90.8293 173.705H86.9104V172.513H91.5338V184.605H90.8293V173.705Z" fill="#64D6CD"/>
<path fill-rule="evenodd" clip-rule="evenodd" d="M85.1787 173.705H81.2598V172.513H85.8685V184.605H85.1787V173.705Z" fill="#64D6CD"/>
<path fill-rule="evenodd" clip-rule="evenodd" d="M96.3919 186.645H92.561V185.453H97.0817V197.545H96.3919V186.645Z" fill="#64D6CD"/>
<path fill-rule="evenodd" clip-rule="evenodd" d="M90.8294 186.645H86.9105V185.453H91.534V197.545H90.8294V186.645Z" fill="#64D6CD"/>
<path fill-rule="evenodd" clip-rule="evenodd" d="M85.1787 186.645H81.2598V185.453H85.8685V197.545H85.1787V186.645Z" fill="#64D6CD"/>
<path d="M100.781 164.138H31.4877V170.098H100.781V164.138Z" fill="#64D6CD"/>
<path d="M100.781 169.799H31.4877V171.587H100.781V169.799Z" fill="white"/>
<path d="M75.4031 171.681H57.9368V210.249H75.4031V171.681Z" fill="#56BFB7"/>
<path d="M74.5664 172.513H70.0457V180.12H74.5664V172.513Z" fill="#64D6CD"/>
<path d="M69.0037 172.513H64.3802V180.12H69.0037V172.513Z" fill="#64D6CD"/>
<path d="M63.3531 172.513H58.7444V180.12H63.3531V172.513Z" fill="#64D6CD"/>
<path d="M74.5664 180.966H70.0457V185.358H74.5664V180.966Z" fill="#64D6CD"/>
<path d="M69.0037 180.966H64.3802V185.358H69.0037V180.966Z" fill="#64D6CD"/>
<path d="M63.3531 180.966H58.7444V185.358H63.3531V180.966Z" fill="#64D6CD"/>
<path fill-rule="evenodd" clip-rule="evenodd" d="M73.8618 173.705H70.0457V172.513H74.5664V180.12H73.8618V173.705Z" fill="#64D6CD"/>
<path fill-rule="evenodd" clip-rule="evenodd" d="M68.3139 173.705H64.3802V172.513H69.0037V180.12H68.3139V173.705Z" fill="#64D6CD"/>
<path fill-rule="evenodd" clip-rule="evenodd" d="M62.6486 173.705H58.7444V172.513H63.3531V180.12H62.6486V173.705Z" fill="#64D6CD"/>
<path fill-rule="evenodd" clip-rule="evenodd" d="M73.8618 182.158H70.0457V180.966H74.5664V185.342H73.8618V182.158Z" fill="#64D6CD"/>
<path fill-rule="evenodd" clip-rule="evenodd" d="M68.3139 182.158H64.3802V180.966H69.0037V185.342H68.3139V182.158Z" fill="#64D6CD"/>
<path fill-rule="evenodd" clip-rule="evenodd" d="M62.6486 182.158H58.7444V180.966H63.3531V185.342H62.6486V182.158Z" fill="#64D6CD"/>
<path d="M74.5664 186.299H70.0457V190.691H74.5664V186.299Z" fill="#64D6CD"/>
<path d="M69.0037 186.299H64.3802V190.691H69.0037V186.299Z" fill="#64D6CD"/>
<path d="M63.3531 186.299H58.7444V190.691H63.3531V186.299Z" fill="#64D6CD"/>
<path fill-rule="evenodd" clip-rule="evenodd" d="M73.8618 187.491H70.0457V186.299H74.5664V190.675H73.8618V187.491Z" fill="#64D6CD"/>
<path fill-rule="evenodd" clip-rule="evenodd" d="M68.3139 187.491H64.3802V186.299H69.0037V190.675H68.3139V187.491Z" fill="#64D6CD"/>
<path fill-rule="evenodd" clip-rule="evenodd" d="M62.6486 187.491H58.7444V186.299H63.3531V190.675H62.6486V187.491Z" fill="#64D6CD"/>
<path d="M74.5664 191.632H70.0457V196.023H74.5664V191.632Z" fill="#64D6CD"/>
<path d="M69.0037 191.632H64.3802V196.023H69.0037V191.632Z" fill="#64D6CD"/>
<path d="M63.3531 191.632H58.7444V196.023H63.3531V191.632Z" fill="#64D6CD"/>
<path fill-rule="evenodd" clip-rule="evenodd" d="M73.8618 192.824H70.0457V191.632H74.5664V196.023H73.8618V192.824Z" fill="#64D6CD"/>
<path fill-rule="evenodd" clip-rule="evenodd" d="M68.3139 192.824H64.3802V191.632H69.0037V196.023H68.3139V192.824Z" fill="#64D6CD"/>
<path fill-rule="evenodd" clip-rule="evenodd" d="M62.6486 192.824H58.7444V191.632H63.3531V196.023H62.6486V192.824Z" fill="#64D6CD"/>
<path d="M74.5664 196.996H70.0457V209.371H74.5664V196.996Z" fill="#64D6CD"/>
<path d="M69.0037 196.996H64.3802V209.371H69.0037V196.996Z" fill="#64D6CD"/>
<path d="M63.3531 196.996H58.7444V209.371H63.3531V196.996Z" fill="#64D6CD"/>
<path fill-rule="evenodd" clip-rule="evenodd" d="M73.8618 198.188H70.0457V196.996H74.5664V209.371H73.8618V198.188Z" fill="#64D6CD"/>
<path fill-rule="evenodd" clip-rule="evenodd" d="M68.3139 198.188H64.3802V196.996H69.0037V209.371H68.3139V198.188Z" fill="#64D6CD"/>
<path fill-rule="evenodd" clip-rule="evenodd" d="M62.6486 198.188H58.7444V196.996H63.3531V209.371H62.6486V198.188Z" fill="#64D6CD"/>
<path d="M52.3302 171.681H34.8639V198.36H52.3302V171.681Z" fill="#56BFB7"/>
<path d="M51.4937 172.513H46.973V184.605H51.4937V172.513Z" fill="#64D6CD"/>
<path d="M45.9453 172.513H41.3219V184.605H45.9453V172.513Z" fill="#64D6CD"/>
<path d="M40.2795 172.513H35.6708V184.605H40.2795V172.513Z" fill="#64D6CD"/>
<path d="M51.4937 185.453H46.973V197.545H51.4937V185.453Z" fill="#64D6CD"/>
<path d="M45.9452 185.453H41.3218V197.545H45.9452V185.453Z" fill="#64D6CD"/>
<path d="M40.2797 185.453H35.6709V197.545H40.2797V185.453Z" fill="#64D6CD"/>
<path fill-rule="evenodd" clip-rule="evenodd" d="M50.7892 173.705H46.973V172.513H51.4937V184.605H50.7892V173.705Z" fill="#64D6CD"/>
<path fill-rule="evenodd" clip-rule="evenodd" d="M45.2408 173.705H41.3219V172.513H45.9307V184.605H45.2408V173.705Z" fill="#64D6CD"/>
<path fill-rule="evenodd" clip-rule="evenodd" d="M39.575 173.705H35.6708V172.513H40.2795V184.605H39.575V173.705Z" fill="#64D6CD"/>
<path fill-rule="evenodd" clip-rule="evenodd" d="M50.7892 186.645H46.973V185.453H51.4937V197.545H50.7892V186.645Z" fill="#64D6CD"/>
<path fill-rule="evenodd" clip-rule="evenodd" d="M45.2407 186.645H41.3218V185.453H45.9305V197.545H45.2407V186.645Z" fill="#64D6CD"/>
<path fill-rule="evenodd" clip-rule="evenodd" d="M39.5751 186.645H35.6709V185.453H40.2797V197.545H39.5751V186.645Z" fill="#64D6CD"/>
<path d="M100.032 170.851H98.1096V210.845H100.032V170.851Z" fill="white"/>
<path d="M78.8966 170.489H76.9739V210.484H78.8966V170.489Z" fill="white"/>
<path d="M55.6327 170.489H53.71V210.484H55.6327V170.489Z" fill="white"/>
<path d="M34.1739 170.489H32.2511V210.484H34.1739V170.489Z" fill="white"/>
<path fill-rule="evenodd" clip-rule="evenodd" d="M79.3518 208.869H80.7608V200.697H79.3518V208.869ZM81.2892 208.869H82.6983V200.697H81.2892V208.869ZM83.212 208.869H84.621V200.697H83.212V208.869ZM85.1494 208.869H86.5585V200.697H85.1494V208.869ZM87.0722 208.869H88.4812V200.697H87.0722V208.869ZM89.0096 208.869H90.4187V200.697H89.0096V208.869ZM90.9324 208.869H92.3415V200.697H90.9324V208.869ZM92.8699 208.869H94.2789V200.697H92.8699V208.869ZM94.7926 208.869H96.2163V200.697H94.7926V208.869ZM96.7301 208.869H98.1391V200.697H96.7301V208.869ZM98.6088 198.847V210.045H78.75V198.847H98.6088Z" fill="white"/>
<path fill-rule="evenodd" clip-rule="evenodd" d="M34.4675 208.869H35.8766V200.697H34.4675V208.869ZM36.3903 208.869H37.7994V200.697H36.3903V208.869ZM38.3277 208.869H39.7368V200.697H38.3277V208.869ZM40.2505 208.869H41.6596V200.697H40.2505V208.869ZM42.188 208.869H43.597V200.697H42.188V208.869ZM44.1107 208.869H45.5198V200.697H44.1107V208.869ZM46.0482 208.869H47.4572V200.697H46.0482V208.869ZM47.9709 208.869H49.3947V200.697H47.9709V208.869ZM49.9084 208.869H51.3321V200.697H49.9084V208.869ZM51.8311 208.869H53.2549V200.697H51.8311V208.869ZM53.7245 198.847V210.045H33.8511V198.847H53.7245Z" fill="white"/>
<path d="M112.347 210.171H19.9073V212.414H112.347V210.171Z" fill="#56BFB7"/>
<path d="M338.719 197.153H122.078V212.414H338.719V197.153Z" fill="#77E8DF"/>
<path d="M335.49 73.4668H125.307V81.0893H335.49V73.4668Z" fill="#77E8DF"/>
<path d="M338.719 65.8286H122.078V73.4512H338.719V65.8286Z" fill="#56BFB7"/>
<path d="M282.504 41.0317H178.293V48.6543H282.504V41.0317Z" fill="#77E8DF"/>
<path d="M285.542 33.4097H175.255V41.0322H285.542V33.4097Z" fill="#56BFB7"/>
<path d="M284.118 197.153H176.693V212.414H284.118V197.153Z" fill="#56BFB7"/>
<path d="M333.671 81.0737H127.127V197.153H333.671V81.0737Z" fill="#56BFB7"/>
<path d="M333.671 85.5591H127.127V197.152H333.671V85.5591Z" fill="#68D5CC"/>
<path d="M280.846 48.6694H179.967V197.168H280.846V48.6694Z" fill="#68D5CC"/>
<path d="M169.986 87.5664H137.24V119.437H169.986V87.5664Z" fill="#77E8DF"/>
<path d="M166.977 90.751H140.22V116.238H166.977V90.751Z" fill="#8CE6DE"/>
<path fill-rule="evenodd" clip-rule="evenodd" d="M166.992 91.9272V90.7666H140.234V114.905C148.292 106.09 157.319 98.5303 166.992 91.9272Z" fill="#64D6CD"/>
<path d="M169.986 128.472H137.24V160.343H169.986V128.472Z" fill="#77E8DF"/>
<path d="M166.977 131.671H140.22V157.158H166.977V131.671Z" fill="#8CE6DE"/>
<path fill-rule="evenodd" clip-rule="evenodd" d="M166.992 132.832V131.671H140.234V155.825C148.292 147.01 157.319 139.45 166.992 132.832Z" fill="#64D6CD"/>
<path d="M222.253 128.472H189.507V160.343H222.253V128.472Z" fill="#77E8DF"/>
<path d="M219.244 131.671H192.487V157.158H219.244V131.671Z" fill="#8CE6DE"/>
<path fill-rule="evenodd" clip-rule="evenodd" d="M219.259 132.832V131.671H192.501V155.825C200.559 147.01 209.586 139.45 219.259 132.832Z" fill="#64D6CD"/>
<path d="M271.305 128.472H238.559V160.343H271.305V128.472Z" fill="#77E8DF"/>
<path d="M268.296 131.671H241.539V157.158H268.296V131.671Z" fill="#56BFB7"/>
<path fill-rule="evenodd" clip-rule="evenodd" d="M268.311 132.832V131.671H241.554V155.825C249.612 147.01 258.653 139.45 268.311 132.832Z" fill="#64D6CD"/>
<path d="M222.253 57.3115H189.507V119.437H222.253V57.3115Z" fill="#77E8DF"/>
<path d="M219.244 60.4961H192.487V116.238H219.244V60.4961Z" fill="#177CBA"/>
<path fill-rule="evenodd" clip-rule="evenodd" d="M219.259 91.9273V60.4961H192.501V114.889C200.559 106.09 209.586 98.5304 219.259 91.9273Z" fill="#3F95D2"/>
<path d="M219.244 60.4961H192.487V116.238H219.244V60.4961Z" fill="#8CE6DE"/>
<path fill-rule="evenodd" clip-rule="evenodd" d="M219.259 91.9273V60.4961H192.501V114.889C200.559 106.09 209.586 98.5304 219.259 91.9273Z" fill="#64D6CD"/>
<path d="M271.305 57.3115H238.559V119.437H271.305V57.3115Z" fill="#77E8DF"/>
<path d="M268.296 60.4961H241.539V116.238H268.296V60.4961Z" fill="#8CE6DE"/>
<path fill-rule="evenodd" clip-rule="evenodd" d="M268.311 91.9273V60.4961H241.554V114.889C249.612 106.09 258.653 98.5304 268.311 91.9273Z" fill="#64D6CD"/>
<path d="M324.115 87.5664H291.37V119.437H324.115V87.5664Z" fill="#77E8DF"/>
<path d="M321.121 90.751H294.364V116.238H321.121V90.751Z" fill="#8CE6DE"/>
<path fill-rule="evenodd" clip-rule="evenodd" d="M321.121 91.9272V90.7666H294.364V114.905C302.422 106.09 311.463 98.5303 321.121 91.9272Z" fill="#64D6CD"/>
<path d="M324.115 128.472H291.37V160.343H324.115V128.472Z" fill="#77E8DF"/>
<path d="M321.121 131.671H294.364V157.158H321.121V131.671Z" fill="#8CE6DE"/>
<path fill-rule="evenodd" clip-rule="evenodd" d="M321.121 132.832V131.671H294.364V155.825C302.422 147.01 311.463 139.45 321.121 132.832Z" fill="#64D6CD"/>
<path d="M280.846 48.6694H179.967V54.206H280.846V48.6694Z" fill="#56BFB7"/>
<path fill-rule="evenodd" clip-rule="evenodd" d="M202.688 168.765L202.644 169.627V212.414H258.154V169.627L258.11 168.765H202.688Z" fill="#77E8DF"/>
<path fill-rule="evenodd" clip-rule="evenodd" d="M206.357 168.765L206.313 169.627V212.414H254.485V169.627L254.441 168.765H206.357Z" fill="#56BFB7"/>
<path fill-rule="evenodd" clip-rule="evenodd" d="M206.357 168.765L206.313 169.627V203.568C217.673 191.46 229.518 179.806 241.686 168.78H206.357V168.765Z" fill="#64D6CD"/>
<path d="M258.14 168.247H202.644V172.089H258.14V168.247Z" fill="#77E8DF"/>
<path fill-rule="evenodd" clip-rule="evenodd" d="M224.469 196.353C224.469 199.631 225.364 202.282 226.465 202.282C227.566 202.282 228.461 199.631 228.461 196.353C228.461 193.091 227.566 190.44 226.465 190.44C225.364 190.424 224.469 193.075 224.469 196.353Z" fill="#64D6CD"/>
<path fill-rule="evenodd" clip-rule="evenodd" d="M232.336 196.353C232.336 199.631 233.231 202.282 234.332 202.282C235.433 202.282 236.343 199.631 236.343 196.353C236.343 193.091 235.448 190.44 234.332 190.44C233.231 190.424 232.336 193.075 232.336 196.353Z" fill="#64D6CD"/>
<path fill-rule="evenodd" clip-rule="evenodd" d="M133.556 136.078C133.145 135.717 127.641 130.604 125.19 128.33C125.19 128.33 127.641 126.369 129.153 129.224C130.679 132.078 133.556 136.078 133.556 136.078Z" fill="#133261"/>
<path fill-rule="evenodd" clip-rule="evenodd" d="M142.289 136.439C142.289 136.439 141.688 138.666 138.767 142.572C135.362 142.524 142.289 136.439 142.289 136.439Z" fill="#133261"/>
<path fill-rule="evenodd" clip-rule="evenodd" d="M145.87 208.806C139.985 214.719 133.908 220.224 133.908 220.224C133.908 220.224 131.119 221.134 132.338 216.758C132.338 216.758 139.045 203.583 141.937 199.693C142.759 198.58 143.61 197.56 144.403 196.682C144.3 200.039 144.388 205.748 145.87 208.806Z" fill="#2F5F9E"/>
<path fill-rule="evenodd" clip-rule="evenodd" d="M131.795 151.638C131.795 151.638 132.411 151.543 132.822 151.167C133.233 150.791 134.51 149.724 134.583 150.053C134.657 150.383 133.644 150.9 134.187 150.979C134.715 151.057 135.552 150.681 136.389 150.822C137.225 150.963 138.502 153.002 138.106 153.253C137.71 153.504 136.271 152.688 135.89 152.971C135.508 153.253 132.807 154.837 130.65 153.771C128.492 152.704 131.795 151.638 131.795 151.638Z" fill="#F4AE7C"/>
<path fill-rule="evenodd" clip-rule="evenodd" d="M87.571 25.3008L66.4646 34.5545L72.2623 42.475L87.571 25.3008Z" fill="#64D6CD"/>
<path fill-rule="evenodd" clip-rule="evenodd" d="M63.4852 30.8209L86.9253 25.3628L57.7462 27.637L63.4852 30.8209Z" fill="#64D6CD"/>
<path fill-rule="evenodd" clip-rule="evenodd" d="M63.4852 30.8216L64.0283 41.2203L66.4648 34.5545L87.5712 25.3008L86.9254 25.3635L63.4852 30.8216Z" fill="#56BFB7"/>
<path fill-rule="evenodd" clip-rule="evenodd" d="M64.028 41.22L69.033 38.0675L66.4644 34.5542L64.028 41.22Z" fill="#4BAAA3"/>
<path fill-rule="evenodd" clip-rule="evenodd" d="M58.6121 40.4516C59.302 40.3575 59.1405 39.2909 58.5094 39.3694L57.4966 39.4948C56.8215 39.5889 56.9682 40.6555 57.614 40.577L58.6121 40.4516ZM23.9877 83.4578C23.5327 83.4578 23.3125 84.0381 23.6207 84.3675C23.6941 84.4616 23.8409 84.54 23.9877 84.54H24.6482C25.3087 84.54 25.3233 83.4578 24.6335 83.4578H23.9877ZM27.6424 83.3637C27.0406 83.3637 26.9672 84.4459 27.7011 84.4459L28.7139 84.3831C29.4331 84.289 29.2422 83.2225 28.6405 83.3009L27.6424 83.3637ZM31.6347 82.9559C31.0036 83.0343 31.0916 84.1165 31.7815 84.0224L31.6347 82.9559ZM35.4949 82.0462C34.8931 82.2814 35.128 83.2539 35.8031 83.0813C36.1407 82.9716 36.4636 82.8461 36.7865 82.7049C37.403 82.4226 37.0361 81.4502 36.4049 81.7011C36.126 81.8109 35.8178 81.9364 35.4949 82.0462ZM38.9295 80.1954C38.4011 80.666 39.0616 81.4816 39.5606 81.0424C39.8395 80.7915 40.1037 80.5248 40.3532 80.2425C40.8082 79.6622 40.0009 79.0034 39.59 79.521C39.3992 79.7563 39.179 79.9759 38.9295 80.1954ZM40.8229 76.9174C40.7348 77.686 41.7476 77.7487 41.821 77.1056C41.8797 76.7135 41.9237 76.3528 41.9384 75.9607C41.9384 75.2079 40.9256 75.2549 40.9256 75.9293C40.9256 76.2587 40.8816 76.5881 40.8229 76.9174ZM40.5587 72.8709C40.7055 73.5296 41.7035 73.3101 41.5421 72.5886C41.454 72.2278 41.3513 71.8671 41.2485 71.5221C40.999 70.8163 40.0743 71.2397 40.2945 71.8671C40.3825 72.1965 40.4706 72.5258 40.5587 72.8709ZM39.1643 68.9028C39.4138 69.5302 40.3679 69.1381 40.089 68.448C39.9422 68.1186 39.7954 67.7892 39.6487 67.4598C39.2817 66.7697 38.4451 67.3971 38.7387 67.9304C38.8854 68.2597 39.0175 68.5891 39.1643 68.9028ZM37.359 65.0601C37.7112 65.7189 38.5625 65.1386 38.2543 64.5583L37.7846 63.6015C37.4324 62.9428 36.581 63.5231 36.8893 64.1034C37.0361 64.4171 37.1975 64.7465 37.359 65.0601ZM35.4656 61.2175C35.8325 61.9076 36.6691 61.2959 36.3756 60.7313L35.9352 59.7746C35.583 59.1315 34.761 59.602 35.0252 60.2451L35.4656 61.2175ZM33.8217 57.1867C34.0565 57.8297 34.9518 57.5788 34.7904 56.8573C34.6876 56.5279 34.5996 56.1985 34.5115 55.8535C34.3501 55.1634 33.3667 55.43 33.5281 56.1201C33.6162 56.4809 33.7189 56.8259 33.8217 57.1867ZM33.3226 52.6853C33.2346 53.3911 34.2473 53.5322 34.3207 52.8264C34.3501 52.4971 34.4088 52.152 34.4968 51.8226C34.6583 51.1169 33.6749 50.8659 33.5134 51.556C33.4254 51.9324 33.352 52.3089 33.3226 52.6853ZM34.8784 48.4505C34.4822 49.0465 35.3188 49.6582 35.7004 49.0936C35.8912 48.8113 36.082 48.5446 36.3022 48.2937C36.7572 47.6977 35.9499 47.0546 35.5536 47.5722C35.3041 47.8388 35.0839 48.1525 34.8784 48.4505ZM37.9314 45.3607C37.403 45.7528 37.8874 46.6312 38.5038 46.2547C38.768 46.0508 39.0469 45.8783 39.3404 45.6901C39.8982 45.345 39.4138 44.3883 38.8267 44.7647C38.5185 44.9686 38.2249 45.1568 37.9314 45.3607ZM41.5861 43.2904C40.9697 43.5727 41.3806 44.5608 41.9824 44.2942C42.2906 44.1531 42.5989 44.0276 42.9071 43.9021C43.5236 43.6512 43.1713 42.6317 42.5402 42.8983C42.2319 43.0081 41.909 43.1493 41.5861 43.2904ZM45.4757 41.8475C44.8739 42.0043 45.0647 43.0708 45.7546 42.8826L46.7233 42.6003C47.3544 42.4278 47.1342 41.3769 46.4737 41.5495L45.4757 41.8475ZM49.4386 40.8123C48.7341 41.0005 49.0423 42.0357 49.6441 41.8788L50.6275 41.6749C51.2733 41.5024 51.1265 40.5143 50.4367 40.6084L49.4386 40.8123ZM53.4603 40.0438C52.8292 40.1222 52.9172 41.2044 53.6071 41.1103L54.6051 40.9535C55.251 40.875 55.1482 39.7928 54.4584 39.8869L53.4603 40.0438Z" fill="#509B96"/>
<path d="M97.7509 222.461C97.7509 222.461 99.1785 214.734 91.6777 210.587C84.1768 206.44 83.8369 206.485 82.364 206.032C81.5028 205.737 80.6417 206.349 81.6161 207.596C82.5906 208.842 82.0467 209.159 84.0182 209.703C85.9897 210.247 86.2843 212.649 87.2814 213.238C88.2559 213.827 89.117 213.986 92.1309 215.3C94.8729 216.479 97.1843 219.81 97.1843 220.988C97.1843 222.167 99.8584 222.552 99.8584 222.552L97.7509 222.461Z" fill="url(#paint0_linear_731_10048)"/>
<path d="M97.4788 221.373C97.4788 221.373 99.3823 214.258 92.8333 210.405C86.2842 206.553 83.9727 206.598 82.681 206.145C81.9332 205.873 83.9727 206.802 84.8339 207.935C85.695 209.068 85.4684 208.819 87.0093 209.68C88.7996 210.654 89.5247 211.629 90.5898 211.81C92.1081 212.105 91.6549 213.691 94.2836 214.869C96.663 215.957 96.9576 218.835 96.9576 219.923C96.9576 221.011 99.2917 221.373 99.2917 221.373H97.4788Z" fill="url(#paint1_linear_731_10048)"/>
<path d="M104.096 220.331L104.843 219.629C105.206 219.312 105.637 219.062 106.112 218.926C108.424 218.315 115.721 216.026 118.735 210.519C118.757 210.474 118.735 210.406 118.689 210.383H118.667C118.644 210.383 118.644 210.36 118.621 210.36C117.624 210.292 112.435 210.202 105.501 216.116C105.387 216.207 105.251 216.343 105.161 216.456C104.979 216.706 104.707 217.113 104.572 217.34C104.39 217.657 104.753 218.201 104.277 218.654C103.801 219.108 102.736 220.309 102.736 220.309L103.597 220.943L104.096 220.331Z" fill="url(#paint2_linear_731_10048)"/>
<path d="M100.131 219.878C100.131 219.878 102.125 202.089 96.6861 196.492C91.6779 191.348 91.6099 196.084 91.6326 196.877C91.6326 196.945 91.6553 197.013 91.6779 197.081C92.8563 199.279 93.2642 201.817 92.8337 204.265C92.3125 206.848 96.0062 206.508 96.3235 209.046C96.6407 211.584 97.9324 215.482 97.7964 217.295C97.6605 219.085 97.6605 220.83 97.6605 220.83L99.6547 220.898L100.131 219.878Z" fill="url(#paint3_linear_731_10048)"/>
<path d="M100.108 219.946C100.13 219.901 100.13 219.855 100.153 219.833C100.266 218.677 101.943 201.908 96.7085 196.492C91.7457 191.37 91.6777 196.016 91.7004 196.854C91.723 196.945 91.7684 197.058 91.8137 197.126C92.1763 197.67 93.8079 199.981 95.2808 199.732C99.2919 199.007 95.7567 203.857 97.9322 206.44C99.6771 208.479 99.0879 215.527 98.9746 217.34C98.8839 218.36 98.7253 219.357 98.476 220.354C98.4307 220.603 98.5894 220.852 98.8386 220.898C98.8613 220.898 98.8613 220.898 98.8839 220.898C98.9293 220.898 98.9519 220.92 98.9746 220.92H99.3372C99.5638 220.943 99.7451 220.83 99.8584 220.626L100.108 219.946Z" fill="url(#paint4_linear_731_10048)"/>
<path d="M102.079 220.966C102.079 220.966 102.442 216.026 105.32 213.035C106.113 212.219 107.133 211.63 108.266 211.381C109.127 211.177 110.532 210.497 111.755 208.185C111.755 208.185 114.067 204.899 116.401 203.902C118.712 202.905 116.401 202.792 116.401 202.792C116.401 202.792 109.761 204.061 105.524 207.936C105.252 208.185 104.98 208.412 104.663 208.593C103.552 209.341 100.516 212.196 100.652 220.468L102.079 220.966Z" fill="url(#paint5_linear_731_10048)"/>
<path d="M107.835 220.581C107.835 220.581 107.926 219.991 107.133 219.991C106.43 220.014 94.7369 219.923 94.7369 219.923C94.7369 219.923 94.1931 219.923 94.2384 220.331C94.2837 220.739 96.0513 230.483 96.2099 230.71C96.2779 230.823 96.4139 230.937 96.5498 230.959C96.7765 231.027 104.98 230.982 104.98 230.982C105.184 230.959 105.32 230.801 105.342 230.597C105.32 230.619 107.858 220.694 107.835 220.581Z" fill="url(#paint6_linear_731_10048)"/>
<path d="M333.023 219.718C333.023 219.718 334.586 210.499 326.376 205.552C318.167 200.604 317.795 200.659 316.183 200.118C315.24 199.766 314.298 200.496 315.364 201.983C316.431 203.47 315.836 203.849 317.993 204.497C320.151 205.146 320.474 208.012 321.565 208.715C322.631 209.418 323.574 209.607 326.872 211.175C329.874 212.581 332.403 216.555 332.403 217.96C332.403 219.366 335.33 219.826 335.33 219.826L333.023 219.718Z" fill="url(#paint7_linear_731_10048)"/>
<path d="M332.726 218.421C332.726 218.421 334.809 209.932 327.641 205.336C320.474 200.74 317.944 200.794 316.53 200.254C315.712 199.929 317.944 201.038 318.886 202.389C319.829 203.741 319.581 203.444 321.267 204.471C323.227 205.634 324.02 206.796 325.186 207.012C326.848 207.364 326.352 209.256 329.229 210.662C331.833 211.96 332.155 215.393 332.155 216.691C332.155 217.988 334.71 218.421 334.71 218.421H332.726Z" fill="url(#paint8_linear_731_10048)"/>
<path d="M339.968 217.177L340.787 216.339C341.183 215.96 341.655 215.663 342.175 215.501C344.705 214.771 352.692 212.04 355.99 205.471C356.015 205.417 355.99 205.336 355.941 205.309H355.916C355.891 205.309 355.891 205.282 355.866 205.282C354.775 205.201 349.095 205.093 341.506 212.149C341.382 212.257 341.233 212.419 341.134 212.554C340.935 212.851 340.638 213.338 340.489 213.608C340.291 213.987 340.687 214.636 340.167 215.176C339.646 215.717 338.48 217.15 338.48 217.15L339.422 217.907L339.968 217.177Z" fill="url(#paint9_linear_731_10048)"/>
<path d="M335.628 216.636C335.628 216.636 337.81 195.414 331.858 188.737C326.377 182.6 326.302 188.25 326.327 189.196C326.327 189.277 326.352 189.358 326.377 189.439C327.666 192.062 328.113 195.09 327.641 198.009C327.071 201.091 331.114 200.686 331.461 203.714C331.808 206.741 333.222 211.391 333.073 213.554C332.924 215.69 332.924 217.771 332.924 217.771L335.107 217.852L335.628 216.636Z" fill="url(#paint10_linear_731_10048)"/>
<path d="M335.603 216.717C335.628 216.663 335.628 216.609 335.652 216.582C335.776 215.203 337.612 195.198 331.883 188.737C326.451 182.627 326.376 188.169 326.401 189.169C326.426 189.277 326.476 189.413 326.525 189.494C326.922 190.142 328.708 192.9 330.32 192.603C334.71 191.737 330.841 197.523 333.222 200.605C335.132 203.038 334.487 211.445 334.363 213.608C334.263 214.825 334.09 216.014 333.817 217.204C333.767 217.501 333.941 217.799 334.214 217.853C334.239 217.853 334.239 217.853 334.263 217.853C334.313 217.853 334.338 217.88 334.363 217.88H334.76C335.008 217.907 335.206 217.771 335.33 217.528L335.603 216.717Z" fill="url(#paint11_linear_731_10048)"/>
<path d="M337.76 217.934C337.76 217.934 338.157 212.04 341.307 208.472C342.175 207.499 343.291 206.796 344.531 206.498C345.474 206.255 347.012 205.444 348.351 202.687C348.351 202.687 350.881 198.767 353.435 197.577C355.965 196.388 353.435 196.252 353.435 196.252C353.435 196.252 346.168 197.766 341.53 202.389C341.233 202.687 340.935 202.957 340.588 203.173C339.373 204.065 336.049 207.472 336.198 217.339L337.76 217.934Z" fill="url(#paint12_linear_731_10048)"/>
<path d="M344.06 217.474C344.06 217.474 344.16 216.772 343.291 216.772C342.523 216.799 329.725 216.69 329.725 216.69C329.725 216.69 329.129 216.69 329.179 217.177C329.229 217.664 331.163 229.288 331.337 229.559C331.411 229.694 331.56 229.829 331.709 229.856C331.957 229.937 340.935 229.883 340.935 229.883C341.158 229.856 341.307 229.667 341.332 229.424C341.307 229.451 344.085 217.61 344.06 217.474Z" fill="url(#paint13_linear_731_10048)"/>
</g>
<defs>
<linearGradient id="paint0_linear_731_10048" x1="81.1786" y1="214.239" x2="99.8481" y2="214.239" gradientUnits="userSpaceOnUse">
<stop stop-color="#50988F"/>
<stop offset="0.51" stop-color="#21C2C1"/>
<stop offset="1" stop-color="#84F599"/>
</linearGradient>
<linearGradient id="paint1_linear_731_10048" x1="82.5141" y1="213.72" x2="99.2825" y2="213.72" gradientUnits="userSpaceOnUse">
<stop stop-color="#50988F"/>
<stop offset="0.51" stop-color="#21C2C1"/>
<stop offset="1" stop-color="#84F599"/>
</linearGradient>
<linearGradient id="paint2_linear_731_10048" x1="100.388" y1="223.05" x2="114.972" y2="211.765" gradientUnits="userSpaceOnUse">
<stop stop-color="#79D0B1"/>
<stop offset="0.51" stop-color="#21C2C1"/>
<stop offset="1" stop-color="#78DDCB"/>
</linearGradient>
<linearGradient id="paint3_linear_731_10048" x1="104.055" y1="217.319" x2="91.5292" y2="201.461" gradientUnits="userSpaceOnUse">
<stop stop-color="#75D0D6"/>
<stop offset="0.51" stop-color="#21C2C1"/>
<stop offset="1" stop-color="#64CEB5"/>
</linearGradient>
<linearGradient id="paint4_linear_731_10048" x1="91.6955" y1="207.496" x2="100.492" y2="207.496" gradientUnits="userSpaceOnUse">
<stop stop-color="#50988F"/>
<stop offset="0.51" stop-color="#21C2C1"/>
<stop offset="1" stop-color="#84F599"/>
</linearGradient>
<linearGradient id="paint5_linear_731_10048" x1="99.7455" y1="221.892" x2="109.292" y2="208.085" gradientUnits="userSpaceOnUse">
<stop stop-color="#93FDEA"/>
<stop offset="0.51" stop-color="#21C2C1"/>
<stop offset="1" stop-color="#84F5DA"/>
</linearGradient>
<linearGradient id="paint6_linear_731_10048" x1="94.2416" y1="225.459" x2="107.844" y2="225.459" gradientUnits="userSpaceOnUse">
<stop offset="0.000688093" stop-color="#58EAEA"/>
<stop offset="0.9992" stop-color="#45A7BD"/>
</linearGradient>
<linearGradient id="paint7_linear_731_10048" x1="314.885" y1="209.909" x2="335.319" y2="209.909" gradientUnits="userSpaceOnUse">
<stop stop-color="#50988F"/>
<stop offset="0.51" stop-color="#21C2C1"/>
<stop offset="1" stop-color="#84F599"/>
</linearGradient>
<linearGradient id="paint8_linear_731_10048" x1="316.347" y1="209.291" x2="334.7" y2="209.291" gradientUnits="userSpaceOnUse">
<stop stop-color="#50988F"/>
<stop offset="0.51" stop-color="#21C2C1"/>
<stop offset="1" stop-color="#84F599"/>
</linearGradient>
<linearGradient id="paint9_linear_731_10048" x1="335.911" y1="220.42" x2="352.878" y2="208.375" gradientUnits="userSpaceOnUse">
<stop stop-color="#79D0B1"/>
<stop offset="0.51" stop-color="#21C2C1"/>
<stop offset="1" stop-color="#78DDCB"/>
</linearGradient>
<linearGradient id="paint10_linear_731_10048" x1="339.923" y1="213.583" x2="324.733" y2="195.94" gradientUnits="userSpaceOnUse">
<stop stop-color="#75D0D6"/>
<stop offset="0.51" stop-color="#21C2C1"/>
<stop offset="1" stop-color="#64CEB5"/>
</linearGradient>
<linearGradient id="paint11_linear_731_10048" x1="326.396" y1="201.864" x2="336.024" y2="201.864" gradientUnits="userSpaceOnUse">
<stop stop-color="#50988F"/>
<stop offset="0.51" stop-color="#21C2C1"/>
<stop offset="1" stop-color="#84F599"/>
</linearGradient>
<linearGradient id="paint12_linear_731_10048" x1="335.206" y1="219.038" x2="346.909" y2="203.511" gradientUnits="userSpaceOnUse">
<stop stop-color="#93FDEA"/>
<stop offset="0.51" stop-color="#21C2C1"/>
<stop offset="1" stop-color="#84F5DA"/>
</linearGradient>
<linearGradient id="paint13_linear_731_10048" x1="329.183" y1="223.295" x2="344.07" y2="223.295" gradientUnits="userSpaceOnUse">
<stop offset="0.000688093" stop-color="#58EAEA"/>
<stop offset="0.9992" stop-color="#45A7BD"/>
</linearGradient>
</defs>
</svg>
