<svg width="305" height="224" viewBox="0 0 305 224" fill="none" xmlns="http://www.w3.org/2000/svg">
<g opacity="0.7">
<g opacity="0.69">
<path d="M7.02319 18.5083L7.52486 218.961H167.557L167.055 19.0072L7.02319 18.5083Z" fill="#CEFFFB"/>
<path d="M0 0L172.072 0.498886L172.574 19.0076H0V0Z" fill="#7EE6DD"/>
<path d="M172.072 55.9253H0V61.413H172.072V55.9253Z" fill="#7EE6DD"/>
<path d="M166.554 60.9146H7.52502V66.4023H166.554V60.9146Z" fill="#6EDBD2"/>
<path d="M166.052 17.5112H7.02295V22.999H166.052V17.5112Z" fill="#64D6CD"/>
<path d="M173.075 218.512H1.00305V224H173.075V218.512Z" fill="#64D6CD"/>
<path d="M23.0767 29.4849L17.5583 35.4715V43.9526L22.575 48.9414L151.504 49.4403L156.52 44.9503V35.4715L150.5 29.4849H23.0767Z" fill="#64D6CD"/>
<path d="M7.02332 78.8735H17.0567V85.3591H7.52498L7.02332 78.8735Z" fill="#64D6CD"/>
<path d="M7.02332 143.729H13.0433V150.214H7.52498L7.02332 143.729Z" fill="#64D6CD"/>
<path d="M77.257 134.249H61.2036V140.236H77.257V134.249Z" fill="#64D6CD"/>
<path d="M67.7254 144.228H51.6721V150.214H67.7254V144.228Z" fill="#64D6CD"/>
<path d="M59.9496 107.459H43.8962V113.446H59.9496V107.459Z" fill="#64D6CD"/>
<path d="M96.8217 144.726H80.7683V150.713H96.8217V144.726Z" fill="#64D6CD"/>
<path d="M68.3774 72.9863H52.324V78.9729H68.3774V72.9863Z" fill="#64D6CD"/>
<path d="M158.527 141.234H142.474V147.221H158.527V141.234Z" fill="#64D6CD"/>
<path d="M161.035 67.8975H144.982V73.8841H161.035V67.8975Z" fill="#64D6CD"/>
<path d="M127.674 161.14H156.821C157.774 161.14 158.527 161.888 158.527 162.836V218.362C158.527 219.31 157.774 220.059 156.821 220.059H127.674C126.721 220.059 125.969 219.31 125.969 218.362V162.886C125.969 161.938 126.721 161.14 127.674 161.14Z" fill="#64D6CD"/>
<path d="M130.785 167.775H153.761C154.714 167.775 155.467 168.524 155.467 169.472V175.508C155.467 176.456 154.714 177.204 153.761 177.204H130.785C129.831 177.204 129.079 176.456 129.079 175.508V169.472C129.079 168.574 129.831 167.775 130.785 167.775Z" fill="white"/>
<path d="M16.3042 98.8286H19.565L56.1366 98.7787C56.1366 98.7787 58.1432 87.8032 50.1166 81.3177C42.0899 74.8322 33.7622 74.8322 27.7422 77.8255C21.7222 80.8188 16.1035 85.3587 16.3042 98.8286Z" fill="#64D6CD"/>
<path d="M19.5649 98.8287L19.3141 125.419H53.3271V98.1801L19.0632 97.6313L19.5649 98.8287Z" fill="#64D6CD"/>
<path d="M19.3142 125.419L17.0567 125.27V129.759H55.5346L55.3841 125.27L19.3142 125.419Z" fill="#64D6CD"/>
<path d="M35.4174 100.326H23.5279V111.201H35.4174V100.326Z" fill="white"/>
<path d="M49.1634 100.176H37.8257V111.051H49.1634V100.176Z" fill="white"/>
<path d="M49.3643 113.895H37.7758V124.771H49.3643V113.895Z" fill="white"/>
<path d="M35.5681 113.895H23.6786V124.771H35.5681V113.895Z" fill="white"/>
<path d="M21.1202 82.6145L19.7155 98.9281L26.5382 98.6787L27.8927 77.8252L23.6285 80.3196L21.6218 82.0657" fill="#64D6CD"/>
<path d="M51.9729 82.9642L53.2271 98.9286L47.0064 98.6791L45.8024 78.4243L49.6151 80.9187L51.4713 82.4154" fill="#64D6CD"/>
<path d="M30.1001 82.3159L29.147 98.7792L35.1168 98.8789L36.4211 75.9302L33.8626 76.03L30.7523 76.5787" fill="#64D6CD"/>
<path d="M44.0464 82.2659L44.849 98.6792L39.5314 98.7789L38.4277 76.0298L41.1868 76.6284L43.5447 77.3768" fill="#64D6CD"/>
<path d="M67.1232 99.1787H70.384L106.956 99.1288C106.956 99.1288 108.962 88.1533 100.936 81.6678C92.9089 75.1823 84.5812 75.1823 78.5612 78.1756C72.5412 81.1689 66.9225 85.7088 67.1232 99.1787Z" fill="#64D6CD"/>
<path d="M70.4341 99.1788L70.1331 125.769H104.196V98.5302L69.8823 97.9814L70.4341 99.1788Z" fill="#64D6CD"/>
<path d="M70.1332 125.769L67.8757 125.62V130.11H106.404L106.203 125.62L70.1332 125.769Z" fill="#64D6CD"/>
<path d="M86.2868 100.675H74.3973V111.551H86.2868V100.675Z" fill="white"/>
<path d="M100.033 100.526H88.6951V111.402H100.033V100.526Z" fill="white"/>
<path d="M100.183 114.245H88.5948V125.121H100.183V114.245Z" fill="white"/>
<path d="M86.3873 114.245H74.4978V125.121H86.3873V114.245Z" fill="white"/>
<path d="M71.9395 82.9646L70.5348 99.2782L77.3575 99.0287L78.712 78.1753L74.4478 80.6697L72.4411 82.4158" fill="#64D6CD"/>
<path d="M102.792 83.3143L104.046 99.2786L97.8255 99.0791L96.6215 78.7744L100.434 81.2688L102.29 82.7655" fill="#64D6CD"/>
<path d="M80.9194 82.666L79.9662 99.1293L85.936 99.1791L87.2404 76.2803L84.6819 76.38L81.5715 76.9288" fill="#64D6CD"/>
<path d="M94.8654 82.616L95.668 99.0293L90.3504 99.1291L89.2467 76.3799L92.0059 76.9786L94.3637 77.7269" fill="#64D6CD"/>
<path d="M117.29 99.1787H120.551L157.122 99.1288C157.122 99.1288 159.129 88.1533 151.102 81.6678C143.076 75.1823 134.748 75.1823 128.728 78.1756C122.708 81.1689 117.039 85.7088 117.29 99.1787Z" fill="#64D6CD"/>
<path d="M120.551 99.1788L120.25 125.769H154.313V98.5302L119.999 97.9814L120.551 99.1788Z" fill="#64D6CD"/>
<path d="M120.25 125.769L118.043 125.62V130.11H156.521L156.32 125.62L120.25 125.769Z" fill="#64D6CD"/>
<path d="M136.404 100.675H124.514V111.551H136.404V100.675Z" fill="white"/>
<path d="M150.15 100.526H138.812V111.402H150.15V100.526Z" fill="white"/>
<path d="M150.35 114.245H138.762V125.121H150.35V114.245Z" fill="white"/>
<path d="M136.504 114.245H124.614V125.121H136.504V114.245Z" fill="white"/>
<path d="M122.056 82.9646L120.702 99.2782L127.474 99.0287L128.879 78.1753L124.564 80.6697L122.608 82.4158" fill="#64D6CD"/>
<path d="M152.908 83.3143L154.163 99.2786L147.942 99.0791L146.738 78.7744L150.601 81.2688L152.407 82.7655" fill="#64D6CD"/>
<path d="M131.036 82.666L130.133 99.1293L136.053 99.1791L137.357 76.2803L134.798 76.38L131.688 76.9288" fill="#64D6CD"/>
<path d="M144.982 82.616L145.835 99.0293L140.467 99.1291L139.364 76.3799L142.173 76.9786L144.481 77.7269" fill="#64D6CD"/>
<path d="M16.4546 174.909H25.1335L121.955 174.859C121.955 174.859 129.831 162.736 108.561 156.101C87.2901 149.466 52.374 151.362 36.4712 154.405C20.5683 157.448 15.8526 161.14 16.4546 174.909Z" fill="#64D6CD"/>
<path d="M17.7089 175.159L16.8561 218.612H121.654V174.061L16.0032 173.163L17.7089 175.159Z" fill="#64D6CD"/>
<path d="M115.133 175.756H22.7756V197.907H115.133V175.756Z" fill="white"/>
<path d="M81.922 201.45H55.3336V212.325H81.922V201.45Z" fill="white"/>
<path d="M50.0167 201.649H23.4283V212.525H50.0167V201.649Z" fill="white"/>
<path d="M114.229 201.649H87.6411V212.525H114.229V201.649Z" fill="white"/>
<path d="M26.2372 157.897L24.3309 173.611L33.3609 173.412L34.9662 154.354L29.6987 155.602L26.7389 156.799" fill="#64D6CD"/>
<path d="M41.1365 158.047L39.6315 173.462L48.7117 173.312L50.3171 152.459L45.9024 152.958L41.9392 153.357" fill="#64D6CD"/>
<path d="M108.661 157.747L110.116 173.462L103.042 173.262L101.788 154.255L105.952 155.502L108.209 156.699" fill="#64D6CD"/>
<path d="M96.8716 157.946L98.1258 173.312L90.5506 173.212L89.1961 152.359L92.8583 152.858L96.2195 153.207" fill="#64D6CD"/>
<path d="M82.9759 157.797L84.2803 173.213L76.7051 173.113L75.3004 151.711L78.8623 151.91L82.2736 152.06" fill="#64D6CD"/>
<path d="M66.5713 158.396L67.8254 173.762L60.3004 173.662L58.8958 152.309L62.6583 152.16L66.1699 152.11" fill="#64D6CD"/>
</g>
<g opacity="0.69">
<path d="M156.374 142.211L156.02 220.56L289.154 220.913V141.506L156.374 142.211Z" fill="#CEFFFB"/>
<path d="M290.256 216.92H155.272V221.225H290.256V216.92Z" fill="#64D6CD"/>
<path d="M296.631 142.171H149.015V147.376H296.631V142.171Z" fill="#56BFB7"/>
<path d="M151.376 142.993C151.376 142.993 152.95 119.668 168.298 119.238C180.931 118.885 245.747 119.198 268.06 119.394C281.205 119.512 292.46 129.178 294.073 142.171C294.113 142.445 294.152 142.758 294.152 143.032L151.376 142.993Z" fill="#7EE5DD"/>
<path d="M281.008 177.472H288.878V182.559H281.401L281.008 177.472Z" fill="#64D6CD"/>
<path d="M284.274 156.22H288.997V161.308H284.668L284.274 156.22Z" fill="#64D6CD"/>
<path d="M174.752 194.222H162.159V198.918H174.752V194.222Z" fill="#64D6CD"/>
<path d="M170.305 173.558H157.712V178.254H170.305V173.558Z" fill="#64D6CD"/>
<path d="M178.097 156.886H165.504V161.582H178.097V156.886Z" fill="#64D6CD"/>
<path d="M222.882 152.738H210.289V157.435H222.882V152.738Z" fill="#64D6CD"/>
<path d="M286.438 168.353H273.845V173.049H286.438V168.353Z" fill="#64D6CD"/>
<path d="M279.63 204.631H267.037V209.327H279.63V204.631Z" fill="#64D6CD"/>
<path d="M249.721 148.98H237.128V153.677H249.721V148.98Z" fill="#64D6CD"/>
<path d="M180.576 182.559H187.385L263.338 182.52C263.338 182.52 269.516 173.01 252.83 167.805C236.144 162.6 208.754 164.087 196.279 166.474C183.803 168.861 180.104 171.757 180.576 182.559Z" fill="#64D6CD"/>
<path d="M181.56 182.755L180.891 216.842H263.102V181.894L180.222 181.189L181.56 182.755Z" fill="#64D6CD"/>
<path d="M257.985 183.224H211.076V200.6H257.985V183.224Z" fill="white"/>
<path d="M231.933 203.379H211.076V211.91H231.933V203.379Z" fill="white"/>
<path d="M206.904 183.537H186.047V212.067H206.904V183.537Z" fill="white"/>
<path d="M257.277 203.536H236.419V212.067H257.277V203.536Z" fill="white"/>
<path d="M188.25 169.213L186.755 181.54L193.838 181.384L195.098 166.434L190.966 167.412L188.644 168.352" fill="#64D6CD"/>
<path d="M199.939 169.331L198.758 181.424L205.881 181.346L207.14 164.948L203.677 165.339L200.568 165.652" fill="#64D6CD"/>
<path d="M252.909 169.096L254.05 181.463L248.501 181.307L247.517 166.357L250.784 167.335L252.594 168.275" fill="#64D6CD"/>
<path d="M243.661 169.253L244.645 181.346L238.702 181.228L237.639 164.87L240.512 165.261L243.149 165.574" fill="#64D6CD"/>
<path d="M232.76 169.135L233.783 181.228L227.84 181.149L226.738 164.399L229.533 164.517L232.209 164.673" fill="#64D6CD"/>
<path d="M219.891 169.605L220.875 181.698L214.972 181.581L213.87 164.831L216.821 164.753L219.576 164.674" fill="#64D6CD"/>
<path d="M232.06 207.265V211.732H304.438L304.409 207.353L232.06 207.265Z" fill="url(#paint0_linear_731_8388)"/>
<path d="M239.884 192.118L239.765 207.472H241.907V192.118H239.884Z" fill="url(#paint1_linear_731_8388)"/>
<path d="M294.562 191.94L294.74 207.472H296.793V191.94H294.562Z" fill="url(#paint2_linear_731_8388)"/>
<path d="M235.987 192.118C235.987 192.118 236.552 190.077 238.04 190.077H298.191C298.399 190.077 298.578 190.136 298.756 190.225C299.262 190.491 300.273 191.142 300.541 192.088H235.987V192.118Z" fill="url(#paint3_linear_731_8388)"/>
<path d="M235.6 194.218V195.993L300.422 196.052L300.363 194.337L235.6 194.218Z" fill="url(#paint4_linear_731_8388)"/>
<path d="M235.6 197.916V199.691L300.422 199.75L300.363 198.034L235.6 197.916Z" fill="url(#paint5_linear_731_8388)"/>
<path d="M235.6 202.176V203.951L300.422 204.01L300.363 202.295L235.6 202.176Z" fill="url(#paint6_linear_731_8388)"/>
<path d="M235.6 205.52V207.265L300.422 207.324L300.363 205.608L235.6 205.52Z" fill="url(#paint7_linear_731_8388)"/>
<path d="M238.576 211.554L238.605 222.825H243.781L243.93 211.554H238.576Z" fill="url(#paint8_linear_731_8388)"/>
<path d="M292.896 211.583L292.985 223.002H298.28L298.191 211.554L292.896 211.583Z" fill="url(#paint9_linear_731_8388)"/>
</g>
</g>
<defs>
<linearGradient id="paint0_linear_731_8388" x1="-100.37" y1="209.496" x2="374.351" y2="209.496" gradientUnits="userSpaceOnUse">
<stop stop-color="#BFEAE6"/>
<stop offset="1" stop-color="#9CE1DC"/>
</linearGradient>
<linearGradient id="paint1_linear_731_8388" x1="229.927" y1="199.788" x2="243.976" y2="199.788" gradientUnits="userSpaceOnUse">
<stop stop-color="#BFEAE6"/>
<stop offset="1" stop-color="#9CE1DC"/>
</linearGradient>
<linearGradient id="paint2_linear_731_8388" x1="284.314" y1="199.699" x2="298.948" y2="199.699" gradientUnits="userSpaceOnUse">
<stop stop-color="#BFEAE6"/>
<stop offset="1" stop-color="#9CE1DC"/>
</linearGradient>
<linearGradient id="paint3_linear_731_8388" x1="-60.5089" y1="191.096" x2="362.896" y2="191.096" gradientUnits="userSpaceOnUse">
<stop stop-color="#BFEAE6"/>
<stop offset="1" stop-color="#9CE1DC"/>
</linearGradient>
<linearGradient id="paint4_linear_731_8388" x1="-62.1248" y1="195.135" x2="363.036" y2="195.135" gradientUnits="userSpaceOnUse">
<stop stop-color="#BFEAE6"/>
<stop offset="1" stop-color="#9CE1DC"/>
</linearGradient>
<linearGradient id="paint5_linear_731_8388" x1="-62.1248" y1="198.832" x2="363.036" y2="198.832" gradientUnits="userSpaceOnUse">
<stop stop-color="#BFEAE6"/>
<stop offset="1" stop-color="#9CE1DC"/>
</linearGradient>
<linearGradient id="paint6_linear_731_8388" x1="-62.1246" y1="203.093" x2="363.036" y2="203.093" gradientUnits="userSpaceOnUse">
<stop stop-color="#BFEAE6"/>
<stop offset="1" stop-color="#9CE1DC"/>
</linearGradient>
<linearGradient id="paint7_linear_731_8388" x1="-62.1246" y1="206.421" x2="363.036" y2="206.421" gradientUnits="userSpaceOnUse">
<stop stop-color="#BFEAE6"/>
<stop offset="1" stop-color="#9CE1DC"/>
</linearGradient>
<linearGradient id="paint8_linear_731_8388" x1="213.982" y1="217.184" x2="249.102" y2="217.184" gradientUnits="userSpaceOnUse">
<stop stop-color="#BFEAE6"/>
<stop offset="1" stop-color="#9CE1DC"/>
</linearGradient>
<linearGradient id="paint9_linear_731_8388" x1="268.165" y1="217.273" x2="303.481" y2="217.273" gradientUnits="userSpaceOnUse">
<stop stop-color="#BFEAE6"/>
<stop offset="1" stop-color="#9CE1DC"/>
</linearGradient>
</defs>
</svg>
