<svg width="290" height="226" viewBox="0 0 290 226" fill="none" xmlns="http://www.w3.org/2000/svg">
<path fill-rule="evenodd" clip-rule="evenodd" d="M62.712 69.163C63.0971 69.163 63.4822 69.224 63.8102 69.3612C63.7674 69.163 63.7531 68.9802 63.7531 68.7668C63.7531 67.0295 65.165 65.6275 66.9049 65.6275C67.2187 65.6275 67.5039 65.6732 67.7891 65.7494C68.2312 63.5396 70.1423 61.8633 72.4526 61.8633C75.0767 61.8633 77.2017 64.0425 77.2017 66.7247C77.2017 67.1819 77.1446 67.6238 77.0163 68.0505C78.7277 68.1725 80.0825 69.4678 80.0825 71.1289C80.0825 72.7901 78.5993 74.1159 77.6723 74.3902C77.5297 74.4359 77.3443 74.4207 77.1304 74.3902H62.712C61.0862 74.3902 59.7742 73.2168 59.7742 71.769C59.7742 70.3365 61.1005 69.163 62.712 69.163Z" fill="white"/>
<path fill-rule="evenodd" clip-rule="evenodd" d="M17.9452 167.108C17.9452 167.108 9.95879 162.704 11.4277 151.899C12.8967 141.094 6.70717 137.665 5.13841 134.45C3.56965 131.234 7.09223 126.053 6.69291 121.511C6.29359 116.97 1.38765 115.751 3.68374 109.518C5.97984 103.285 4.04028 100.922 1.01685 94.2475C-2.00658 87.5726 2.47152 77.3773 4.59648 77.4383C6.72144 77.4992 4.12585 79.8766 6.00836 84.3113C7.87662 88.746 15.7775 90.1023 18.2447 93.8056C20.7119 97.5088 16.3764 102.431 19.186 107.43C22.0097 112.444 30.4097 110.889 32.6203 115.735C34.845 120.597 29.5398 126.418 31.08 131.508C32.6203 136.598 38.2963 139.494 40.678 143.578C43.0597 147.662 47.5378 155.511 40.2074 164.868C32.8912 174.24 17.9452 167.108 17.9452 167.108Z" fill="#64D6CD"/>
<path fill-rule="evenodd" clip-rule="evenodd" d="M11.3134 156.069C11.2706 155.643 11.2421 155.201 11.2421 154.743L32.948 167.773L31.0227 162.439C31.0085 162.424 31.0085 162.394 30.9942 162.378L30.0102 159.651L11.6272 148.617C11.6272 148.16 11.6129 147.733 11.5844 147.322L29.4255 158.035L27.6856 153.219L10.7002 143.024C10.4862 142.415 10.2295 141.835 9.97282 141.302L27.1008 151.589L26.2309 149.196C26.2166 149.166 26.2166 149.15 26.2024 149.12L22.4231 138.65L5.42341 128.44C5.52324 128.074 5.62308 127.724 5.73717 127.358L21.8384 137.035L19.9558 131.808L6.56433 123.761C6.62138 123.35 6.66416 122.954 6.67842 122.557L19.3711 130.177L17.9592 126.245C17.945 126.23 17.945 126.215 17.945 126.184L13.8234 114.755L3.88318 108.781C4.01153 108.415 4.11136 108.049 4.21119 107.699L13.2387 113.124L9.64481 103.142C9.63055 103.127 9.63055 103.112 9.63055 103.081L3.69777 86.6073C3.59794 86.3177 3.7263 85.9977 3.99727 85.891C4.26823 85.7843 4.56773 85.9215 4.66756 86.211L10.0584 101.176L13.1389 89.9295C13.4526 90.0971 13.7664 90.2648 14.0801 90.4476L10.6716 102.883L14.7219 114.13C14.7219 114.145 14.7361 114.16 14.7361 114.176L18.4869 124.569L24.4054 111.021C24.7334 111.128 25.0757 111.25 25.4037 111.356L19.0003 126.017L20.4265 129.979L28.2132 112.271C28.5555 112.393 28.8835 112.53 29.1973 112.667L21.054 131.168L21.1823 131.244C21.439 131.396 21.5246 131.732 21.382 132.006C21.3392 132.082 21.2822 132.143 21.2251 132.189L23.3358 138.026C23.3358 138.041 23.3501 138.056 23.3501 138.071L26.7586 147.52L32.5345 134.399C32.7626 134.734 33.0051 135.054 33.2618 135.374L27.2862 148.968L28.1562 151.406L34.5596 136.852C34.8163 137.126 35.0873 137.401 35.3582 137.66L28.6839 152.838L30.9229 159.041C30.9229 159.056 30.9372 159.071 30.9372 159.087L31.5504 160.809L39.7508 142.171C40.0075 142.491 40.2499 142.826 40.4638 143.161L32.0638 162.241L34.4312 168.794C34.4312 168.81 34.4455 168.825 34.4455 168.84V168.855C34.0319 168.992 33.6183 169.114 33.2047 169.206L11.3134 156.069Z" fill="#E9EFF8"/>
<path fill-rule="evenodd" clip-rule="evenodd" d="M30.9802 150.599C30.9802 150.599 23.222 142.415 28.5843 130.452C33.9466 118.504 27.9425 112.149 27.2152 107.806C26.4878 103.478 32.3208 98.8299 33.4046 93.4198C34.4743 88.0098 29.2118 84.7028 33.9894 78.3784C38.7669 72.054 37.3123 68.5641 36.0715 59.6642C34.8308 50.7643 43.4732 40.6909 45.9262 41.5748C48.3792 42.4587 44.5571 44.2265 45.2274 50.0785C45.8977 55.9457 54.5687 60.5633 56.1802 65.8057C57.7775 71.0634 51.0889 75.0714 52.6576 81.9597C54.2264 88.848 64.4804 90.2957 65.4074 96.7878C66.3344 103.28 58.2196 107.974 58.2766 114.466C58.3337 120.958 63.9242 126.505 65.3075 132.159C66.6909 137.828 69.2009 148.633 57.5493 156.634C45.8692 164.65 30.9802 150.599 30.9802 150.599Z" fill="#94EBE4"/>
<path fill-rule="evenodd" clip-rule="evenodd" d="M27.0298 135.395C27.1296 134.892 27.2437 134.359 27.3863 133.841L48.1082 157.34L47.6947 150.421C47.6947 150.391 47.6947 150.36 47.6947 150.33L47.4807 146.779L29.9391 126.876C30.096 126.358 30.2244 125.84 30.3242 125.352L47.3524 144.661L46.9816 138.397L30.752 120.033C30.7092 119.241 30.6094 118.479 30.4811 117.763L46.8247 136.309L46.6393 133.2C46.6393 133.17 46.6393 133.139 46.6393 133.109L45.8264 119.515L29.5968 101.121C29.8393 100.74 30.0817 100.359 30.3242 99.9782L45.698 117.412L45.2845 110.631L32.5062 96.1378C32.7059 95.6959 32.8912 95.2387 33.0481 94.7815L45.1704 108.528L44.8566 103.422C44.8566 103.392 44.8566 103.377 44.8566 103.346L43.9581 88.518L34.4743 77.7589C34.7452 77.3779 34.9877 76.9969 35.2159 76.6312L43.8298 86.3997L43.0454 73.4613C43.0454 73.4308 43.0454 73.4156 43.0454 73.3851L41.7619 52.0192C41.7476 51.6535 42.0043 51.3335 42.3466 51.303C42.6889 51.2725 42.9884 51.5621 43.0169 51.9278L44.1863 71.343L51.5595 59.5171C51.8733 59.8371 52.1728 60.1572 52.4722 60.4772L44.3147 73.568L45.1989 88.1523C45.1989 88.1675 45.1989 88.198 45.1989 88.2132L46.0118 101.7L57.4495 88.3047C57.7918 88.5637 58.1483 88.8228 58.5048 89.0666L46.1259 103.575L46.4396 108.71L61.4712 91.2154C61.8135 91.4897 62.1558 91.764 62.4695 92.0536L46.7677 110.341L46.8817 110.478C47.1242 110.753 47.1099 111.179 46.8532 111.438C46.7819 111.515 46.6963 111.56 46.6108 111.591L47.0671 119.165C47.0671 119.18 47.0671 119.211 47.0671 119.226L47.8087 131.494L58.9469 118.54C59.1038 119.012 59.275 119.485 59.4604 119.942L47.9371 133.368L48.1225 136.523L60.4729 122.152C60.6868 122.563 60.9008 122.99 61.1289 123.401L48.2508 138.397L48.7357 146.444C48.7357 146.459 48.7357 146.489 48.7357 146.505L48.8641 148.73L64.6801 130.32C64.8655 130.793 65.0366 131.28 65.165 131.753L48.9782 150.604L49.4916 159.108C49.4916 159.123 49.4916 159.153 49.4916 159.169V159.199C48.9782 159.199 48.4505 159.169 47.9371 159.123L27.0298 135.395Z" fill="#C7FFFB"/>
<path fill-rule="evenodd" clip-rule="evenodd" d="M120.18 223.671C120.18 223.671 114.309 220.432 115.389 212.488C116.469 204.544 111.918 202.023 110.765 199.659C109.611 197.295 112.201 193.486 111.907 190.147C111.614 186.808 108.007 185.911 109.695 181.329C111.383 176.746 109.957 175.009 107.734 170.102C105.511 165.194 108.804 157.699 110.366 157.743C111.928 157.788 110.02 159.536 111.404 162.797C112.778 166.057 118.587 167.054 120.401 169.777C122.215 172.5 119.027 176.119 121.093 179.794C123.169 183.48 129.345 182.337 130.97 185.9C132.606 189.474 128.705 193.755 129.837 197.497C130.97 201.239 135.143 203.368 136.894 206.371C138.645 209.374 141.938 215.144 136.548 222.023C131.169 228.914 120.18 223.671 120.18 223.671Z" fill="#64D6CD"/>
<path fill-rule="evenodd" clip-rule="evenodd" d="M115.305 215.555C115.273 215.241 115.252 214.916 115.252 214.58L131.211 224.16L129.795 220.238C129.785 220.227 129.785 220.205 129.774 220.193L129.051 218.188L115.535 210.076C115.535 209.74 115.525 209.426 115.504 209.123L128.621 217L127.342 213.46L114.854 205.964C114.696 205.516 114.508 205.09 114.319 204.698L126.912 212.261L126.272 210.502C126.262 210.479 126.262 210.468 126.251 210.446L123.473 202.748L110.974 195.241C111.048 194.972 111.121 194.714 111.205 194.446L123.043 201.56L121.659 197.717L111.813 191.801C111.855 191.499 111.886 191.207 111.897 190.916L121.229 196.518L120.191 193.628C120.18 193.616 120.18 193.605 120.18 193.583L117.15 185.179L109.842 180.787C109.936 180.518 110.01 180.249 110.083 179.992L116.72 183.981L114.078 176.642C114.067 176.63 114.067 176.619 114.067 176.597L109.705 164.485C109.632 164.272 109.726 164.037 109.926 163.958C110.125 163.88 110.345 163.981 110.418 164.193L114.382 175.196L116.647 166.927C116.877 167.051 117.108 167.174 117.339 167.308L114.833 176.451L117.811 184.72C117.811 184.731 117.821 184.742 117.821 184.754L120.579 192.395L124.93 182.434C125.171 182.513 125.423 182.602 125.664 182.681L120.956 193.46L122.005 196.373L127.73 183.353C127.981 183.443 128.223 183.544 128.453 183.644L122.466 197.247L122.56 197.303C122.749 197.415 122.812 197.661 122.707 197.863C122.676 197.919 122.634 197.964 122.592 197.997L124.144 202.289C124.144 202.3 124.154 202.311 124.154 202.322L126.66 209.269L130.907 199.622C131.075 199.868 131.253 200.104 131.442 200.339L127.048 210.333L127.688 212.126L132.396 201.426C132.584 201.628 132.784 201.829 132.983 202.02L128.076 213.179L129.722 217.74C129.722 217.751 129.732 217.762 129.732 217.773L130.183 219.039L136.212 205.336C136.401 205.572 136.579 205.818 136.737 206.065L130.561 220.093L132.301 224.911C132.301 224.922 132.312 224.933 132.312 224.944V224.955C132.008 225.056 131.704 225.146 131.4 225.213L115.305 215.555Z" fill="#E9EFF8"/>
<path fill-rule="evenodd" clip-rule="evenodd" d="M129.764 211.532C129.764 211.532 124.06 205.515 128.003 196.719C131.945 187.935 127.531 183.263 126.996 180.07C126.461 176.887 130.75 173.47 131.547 169.493C132.333 165.515 128.464 163.084 131.977 158.434C135.489 153.784 134.42 151.218 133.507 144.675C132.595 138.131 138.949 130.725 140.753 131.375C142.556 132.025 139.746 133.324 140.239 137.627C140.732 141.941 147.107 145.336 148.292 149.19C149.466 153.056 144.548 156.002 145.702 161.067C146.855 166.131 154.394 167.196 155.076 171.969C155.757 176.742 149.791 180.193 149.833 184.966C149.875 189.739 153.985 193.817 155.002 197.974C156.019 202.142 157.865 210.086 149.298 215.969C140.711 221.862 129.764 211.532 129.764 211.532Z" fill="#94EBE4"/>
<path fill-rule="evenodd" clip-rule="evenodd" d="M126.859 200.354C126.933 199.984 127.017 199.592 127.122 199.211L142.357 216.488L142.053 211.401C142.053 211.379 142.053 211.357 142.053 211.334L141.895 208.724L128.999 194.091C129.114 193.71 129.208 193.329 129.282 192.97L141.801 207.166L141.529 202.561L129.596 189.06C129.565 188.477 129.491 187.917 129.397 187.39L141.413 201.026L141.277 198.74C141.277 198.718 141.277 198.696 141.277 198.673L140.679 188.679L128.747 175.155C128.925 174.875 129.103 174.595 129.282 174.315L140.585 187.133L140.281 182.147L130.886 171.491C131.033 171.166 131.169 170.83 131.284 170.494L140.197 180.6L139.966 176.847C139.966 176.824 139.966 176.813 139.966 176.791L139.306 165.889L132.333 157.978C132.532 157.698 132.71 157.418 132.878 157.149L139.211 164.331L138.635 154.819C138.635 154.796 138.635 154.785 138.635 154.763L137.691 139.054C137.68 138.785 137.869 138.55 138.121 138.527C138.372 138.505 138.593 138.718 138.614 138.987L139.473 153.261L144.894 144.567C145.125 144.802 145.345 145.037 145.565 145.273L139.568 154.897L140.218 165.62C140.218 165.631 140.218 165.654 140.218 165.665L140.816 175.581L149.225 165.732C149.476 165.922 149.739 166.113 150.001 166.292L140.899 176.959L141.13 180.735L152.182 167.872C152.433 168.074 152.685 168.275 152.916 168.488L141.371 181.934L141.455 182.035C141.633 182.236 141.623 182.55 141.434 182.74C141.382 182.796 141.319 182.83 141.256 182.852L141.591 188.421C141.591 188.432 141.591 188.455 141.591 188.466L142.137 197.485L150.326 187.962C150.441 188.309 150.567 188.656 150.703 188.992L142.231 198.864L142.367 201.183L151.448 190.617C151.605 190.92 151.762 191.233 151.93 191.536L142.462 202.561L142.818 208.477C142.818 208.488 142.818 208.511 142.818 208.522L142.913 210.158L154.541 196.623C154.677 196.97 154.803 197.329 154.897 197.676L142.996 211.536L143.374 217.788C143.374 217.799 143.374 217.822 143.374 217.833V217.855C142.996 217.855 142.608 217.833 142.231 217.799L126.859 200.354Z" fill="#C7FFFB"/>
<path d="M107.407 167.123H23.4216V216.347H107.407V167.123Z" fill="#71E6DD"/>
<path d="M106.851 168.861H22.8654V176.328H106.851V168.861Z" fill="#64D6CD"/>
<path fill-rule="evenodd" clip-rule="evenodd" d="M20.6121 171.481H109.219L97.6525 136.735H30.9944L20.6121 171.481Z" fill="#64D6CD"/>
<path d="M109.204 171.299H20.6121V173.387H109.204V171.299Z" fill="#56BFB7"/>
<path d="M95.1429 180.671H78.1718V206.594H95.1429V180.671Z" fill="#56BFB7"/>
<path d="M94.3296 181.479H89.937V193.229H94.3296V181.479Z" fill="#64D6CD"/>
<path d="M88.9388 181.479H84.4464V193.229H88.9388V181.479Z" fill="#64D6CD"/>
<path d="M83.4339 181.479H78.9558V193.229H83.4339V181.479Z" fill="#64D6CD"/>
<path d="M94.3296 194.051H89.937V205.801H94.3296V194.051Z" fill="#64D6CD"/>
<path d="M88.9388 194.051H84.4464V205.801H88.9388V194.051Z" fill="#64D6CD"/>
<path d="M83.4339 194.051H78.9558V205.801H83.4339V194.051Z" fill="#64D6CD"/>
<path fill-rule="evenodd" clip-rule="evenodd" d="M93.6593 182.638H89.937V181.479H94.3296V193.229H93.6593V182.638Z" fill="#64D6CD"/>
<path fill-rule="evenodd" clip-rule="evenodd" d="M88.2542 182.638H84.4464V181.479H88.9388V193.229H88.2542V182.638Z" fill="#64D6CD"/>
<path fill-rule="evenodd" clip-rule="evenodd" d="M82.7636 182.638H78.9558V181.479H83.4339V193.229H82.7636V182.638Z" fill="#64D6CD"/>
<path fill-rule="evenodd" clip-rule="evenodd" d="M93.6593 195.209H89.937V194.051H94.3296V205.801H93.6593V195.209Z" fill="#64D6CD"/>
<path fill-rule="evenodd" clip-rule="evenodd" d="M88.2542 195.209H84.4464V194.051H88.9388V205.801H88.2542V195.209Z" fill="#64D6CD"/>
<path fill-rule="evenodd" clip-rule="evenodd" d="M82.7636 195.209H78.9558V194.051H83.4339V205.801H82.7636V195.209Z" fill="#64D6CD"/>
<path d="M97.9235 173.341H30.5951V179.132H97.9235V173.341Z" fill="#71E5DD"/>
<path d="M97.9235 178.842H30.5951V180.58H97.9235V178.842Z" fill="white"/>
<path d="M73.2652 180.671H56.2941V218.145H73.2652V180.671Z" fill="#56BFB7"/>
<path d="M72.4525 181.479H68.0599V188.871H72.4525V181.479Z" fill="#64D6CD"/>
<path d="M67.0474 181.479H62.5551V188.871H67.0474V181.479Z" fill="#64D6CD"/>
<path d="M61.5567 181.479H57.0786V188.871H61.5567V181.479Z" fill="#64D6CD"/>
<path d="M72.4525 189.693H68.0599V193.96H72.4525V189.693Z" fill="#64D6CD"/>
<path d="M67.0474 189.693H62.5551V193.96H67.0474V189.693Z" fill="#64D6CD"/>
<path d="M61.5567 189.693H57.0786V193.96H61.5567V189.693Z" fill="#64D6CD"/>
<path fill-rule="evenodd" clip-rule="evenodd" d="M71.7679 182.638H68.0599V181.479H72.4525V188.871H71.7679V182.638Z" fill="#64D6CD"/>
<path fill-rule="evenodd" clip-rule="evenodd" d="M66.3771 182.638H62.5551V181.479H67.0474V188.871H66.3771V182.638Z" fill="#64D6CD"/>
<path fill-rule="evenodd" clip-rule="evenodd" d="M60.8722 182.638H57.0786V181.479H61.5567V188.871H60.8722V182.638Z" fill="#64D6CD"/>
<path fill-rule="evenodd" clip-rule="evenodd" d="M71.7679 190.852H68.0599V189.693H72.4525V193.945H71.7679V190.852Z" fill="#64D6CD"/>
<path fill-rule="evenodd" clip-rule="evenodd" d="M66.3771 190.852H62.5551V189.693H67.0474V193.945H66.3771V190.852Z" fill="#64D6CD"/>
<path fill-rule="evenodd" clip-rule="evenodd" d="M60.8722 190.852H57.0786V189.693H61.5567V193.945H60.8722V190.852Z" fill="#64D6CD"/>
<path d="M72.4525 194.874H68.0599V199.141H72.4525V194.874Z" fill="#64D6CD"/>
<path d="M67.0474 194.874H62.5551V199.141H67.0474V194.874Z" fill="#64D6CD"/>
<path d="M61.5567 194.874H57.0786V199.141H61.5567V194.874Z" fill="#64D6CD"/>
<path fill-rule="evenodd" clip-rule="evenodd" d="M71.7679 196.032H68.0599V194.874H72.4525V199.126H71.7679V196.032Z" fill="#64D6CD"/>
<path fill-rule="evenodd" clip-rule="evenodd" d="M66.3771 196.032H62.5551V194.874H67.0474V199.126H66.3771V196.032Z" fill="#64D6CD"/>
<path fill-rule="evenodd" clip-rule="evenodd" d="M60.8722 196.032H57.0786V194.874H61.5567V199.126H60.8722V196.032Z" fill="#64D6CD"/>
<path d="M72.4525 200.056H68.0599V204.323H72.4525V200.056Z" fill="#64D6CD"/>
<path d="M67.0474 200.056H62.5551V204.323H67.0474V200.056Z" fill="#64D6CD"/>
<path d="M61.5567 200.056H57.0786V204.323H61.5567V200.056Z" fill="#64D6CD"/>
<path fill-rule="evenodd" clip-rule="evenodd" d="M71.7679 201.214H68.0599V200.056H72.4525V204.323H71.7679V201.214Z" fill="#64D6CD"/>
<path fill-rule="evenodd" clip-rule="evenodd" d="M66.3771 201.214H62.5551V200.056H67.0474V204.323H66.3771V201.214Z" fill="#64D6CD"/>
<path fill-rule="evenodd" clip-rule="evenodd" d="M60.8722 201.214H57.0786V200.056H61.5567V204.323H60.8722V201.214Z" fill="#64D6CD"/>
<path d="M72.4525 205.268H68.0599V217.292H72.4525V205.268Z" fill="#64D6CD"/>
<path d="M67.0474 205.268H62.5551V217.292H67.0474V205.268Z" fill="#64D6CD"/>
<path d="M61.5567 205.268H57.0786V217.292H61.5567V205.268Z" fill="#64D6CD"/>
<path fill-rule="evenodd" clip-rule="evenodd" d="M71.7679 206.426H68.0599V205.268H72.4525V217.292H71.7679V206.426Z" fill="#64D6CD"/>
<path fill-rule="evenodd" clip-rule="evenodd" d="M66.3771 206.426H62.5551V205.268H67.0474V217.292H66.3771V206.426Z" fill="#64D6CD"/>
<path fill-rule="evenodd" clip-rule="evenodd" d="M60.8722 206.426H57.0786V205.268H61.5567V217.292H60.8722V206.426Z" fill="#64D6CD"/>
<path d="M50.8465 180.671H33.8754V206.594H50.8465V180.671Z" fill="#56BFB7"/>
<path d="M50.0336 181.479H45.6411V193.229H50.0336V181.479Z" fill="#64D6CD"/>
<path d="M44.6428 181.479H40.1504V193.229H44.6428V181.479Z" fill="#64D6CD"/>
<path d="M39.138 181.479H34.6599V193.229H39.138V181.479Z" fill="#64D6CD"/>
<path d="M50.0336 194.051H45.6411V205.801H50.0336V194.051Z" fill="#64D6CD"/>
<path d="M44.6428 194.051H40.1504V205.801H44.6428V194.051Z" fill="#64D6CD"/>
<path d="M39.138 194.051H34.6599V205.801H39.138V194.051Z" fill="#64D6CD"/>
<path fill-rule="evenodd" clip-rule="evenodd" d="M49.3491 182.638H45.6411V181.479H50.0336V193.229H49.3491V182.638Z" fill="#64D6CD"/>
<path fill-rule="evenodd" clip-rule="evenodd" d="M43.9582 182.638H40.1504V181.479H44.6285V193.229H43.9582V182.638Z" fill="#64D6CD"/>
<path fill-rule="evenodd" clip-rule="evenodd" d="M38.4535 182.638H34.6599V181.479H39.138V193.229H38.4535V182.638Z" fill="#64D6CD"/>
<path fill-rule="evenodd" clip-rule="evenodd" d="M49.3491 195.209H45.6411V194.051H50.0336V205.801H49.3491V195.209Z" fill="#64D6CD"/>
<path fill-rule="evenodd" clip-rule="evenodd" d="M43.9582 195.209H40.1504V194.051H44.6285V205.801H43.9582V195.209Z" fill="#64D6CD"/>
<path fill-rule="evenodd" clip-rule="evenodd" d="M38.4535 195.209H34.6599V194.051H39.138V205.801H38.4535V195.209Z" fill="#64D6CD"/>
<path d="M97.1964 179.863H95.3281V218.724H97.1964V179.863Z" fill="white"/>
<path d="M76.6599 179.513H74.7916V218.374H76.6599V179.513Z" fill="white"/>
<path d="M54.0554 179.513H52.1871V218.374H54.0554V179.513Z" fill="white"/>
<path d="M33.2048 179.513H31.3365V218.374H33.2048V179.513Z" fill="white"/>
<path fill-rule="evenodd" clip-rule="evenodd" d="M77.1019 216.804H78.471V208.865H77.1019V216.804ZM78.9844 216.804H80.3535V208.865H78.9844V216.804ZM80.8527 216.804H82.2218V208.865H80.8527V216.804ZM82.7352 216.804H84.1043V208.865H82.7352V216.804ZM84.6035 216.804H85.9726V208.865H84.6035V216.804ZM86.486 216.804H87.8551V208.865H86.486V216.804ZM88.3542 216.804H89.7233V208.865H88.3542V216.804ZM90.2367 216.804H91.6058V208.865H90.2367V216.804ZM92.105 216.804H93.4884V208.865H92.105V216.804ZM93.9875 216.804H95.3566V208.865H93.9875V216.804ZM95.813 207.066V217.947H76.5172V207.066H95.813Z" fill="white"/>
<path fill-rule="evenodd" clip-rule="evenodd" d="M153.735 106.951V121.328H165.437V106.951H153.735ZM170.542 106.951V121.328H182.244V106.951H170.542ZM136.928 106.951V121.328H148.63V106.951H136.928ZM153.735 129.825V144.202H165.437V129.825H153.735ZM170.542 129.825V144.202H182.244V129.825H170.542ZM136.928 129.825V144.202H148.63V129.825H136.928ZM153.735 152.73V167.107H165.437V152.73H153.735ZM170.542 152.73V167.107H182.244V152.73H170.542ZM136.928 152.73V167.107H148.63V152.73H136.928ZM153.735 175.635V190.012H165.437V175.635H153.735ZM170.542 175.635V190.012H182.244V175.635H170.542ZM136.928 175.635V190.012H148.63V175.635H136.928ZM153.735 198.509V212.886H165.437V198.509H153.735ZM170.542 198.509V212.886H182.244V198.509H170.542ZM136.928 198.509V212.886H148.63V198.509H136.928ZM264.359 135.551V146.326H273.135V135.551H264.359ZM276.978 135.551V146.326H285.755V135.551H276.978ZM251.768 135.551V146.326H260.544V135.551H251.768ZM264.359 152.699V163.474H273.135V152.699H264.359ZM276.978 152.699V163.474H285.755V152.699H276.978ZM251.768 152.699V163.474H260.544V152.699H251.768ZM264.359 169.878V180.653H273.135V169.878H264.359ZM276.978 169.878V180.653H285.755V169.878H276.978ZM251.768 169.878V180.653H260.544V169.878H251.768ZM264.359 187.056V197.831H273.135V187.056H264.359ZM276.978 187.056V197.831H285.755V187.056H276.978ZM251.768 187.056V197.831H260.544V187.056H251.768ZM264.359 204.235V215.01H273.135V204.235H264.359ZM276.978 204.235V215.01H285.755V204.235H276.978ZM251.768 204.235V215.01H260.544V204.235H251.768ZM247.58 129.825H289.971V221.321H247.58V129.825ZM213.22 39.1907H222.197V56.7079H213.22V39.1907ZM226.098 39.1907H235.075V56.7079H226.098V39.1907ZM213.22 65.5128H222.197V83.0608H213.22V65.5128ZM226.098 65.5128H235.075V83.0608H226.098V65.5128ZM200.342 65.5128H209.291V83.0608H200.342V65.5128ZM213.22 91.8041H222.197V109.352H213.22V91.8041ZM226.098 91.8041H235.075V109.352H226.098V91.8041ZM200.342 91.8041H209.291V109.352H200.342V91.8041ZM213.22 118.095H222.197V135.643H213.22V118.095ZM226.098 118.095H235.075V135.643H226.098V118.095ZM200.342 118.095H209.291V135.643H200.342V118.095ZM213.22 144.387H222.197V161.904H213.22V144.387ZM226.098 144.387H235.075V161.904H226.098V144.387ZM200.342 144.387H209.291V161.904H200.342V144.387ZM213.22 170.678H222.197V188.226H213.22V170.678ZM226.098 170.678H235.075V188.226H226.098V170.678ZM200.342 170.678H209.291V188.226H200.342V170.678ZM213.22 197H222.197V214.548H213.22V197ZM226.098 197H235.075V214.548H226.098V197ZM200.342 197H209.291V214.548H200.342V197ZM200.342 39.1907H209.291V56.7079H200.342V39.1907ZM194.262 221.352H241.184V0L194.262 32.2638V221.352ZM131.335 99.3466H187.866V221.352H131.335V99.3466Z" fill="#64D6CD"/>
<path fill-rule="evenodd" clip-rule="evenodd" d="M33.4902 216.804H34.8593V208.865H33.4902V216.804ZM35.3585 216.804H36.7276V208.865H35.3585V216.804ZM37.241 216.804H38.6101V208.865H37.241V216.804ZM39.1092 216.804H40.4783V208.865H39.1092V216.804ZM40.9918 216.804H42.3609V208.865H40.9918V216.804ZM42.86 216.804H44.2291V208.865H42.86V216.804ZM44.7425 216.804H46.1116V208.865H44.7425V216.804ZM46.6108 216.804H47.9941V208.865H46.6108V216.804ZM48.4933 216.804H49.8766V208.865H48.4933V216.804ZM50.3615 216.804H51.7449V208.865H50.3615V216.804ZM52.2013 207.066V217.947H32.8912V207.066H52.2013Z" fill="white"/>
<path d="M109.162 218.069H19.3429V220.249H109.162V218.069Z" fill="#56BFB7"/>
</svg>
