<svg width="308" height="158" viewBox="0 0 308 158" fill="none" xmlns="http://www.w3.org/2000/svg">
<path fill-rule="evenodd" clip-rule="evenodd" d="M284.23 41.3167C284.23 41.3167 290.14 39.5969 289.06 35.3895C287.98 31.174 292.555 29.8462 293.72 28.5904C294.885 27.3345 292.285 25.3188 292.569 23.543C292.868 21.7753 296.491 21.2953 294.786 18.8716C293.081 16.4479 294.53 15.5201 296.761 12.9204C298.991 10.3207 295.681 6.34525 294.104 6.36925C292.527 6.39325 294.445 7.32113 293.067 9.0489C291.689 10.7767 285.835 11.3046 284.016 12.7524C282.184 14.2002 285.395 16.112 283.32 18.0637C281.232 20.0155 275.023 19.4076 273.375 21.3033C271.727 23.1991 275.648 25.4628 274.512 27.4545C273.375 29.4383 269.17 30.5661 267.408 32.1579C265.646 33.7497 262.336 36.8053 267.749 40.4528C273.162 44.1004 284.23 41.3167 284.23 41.3167Z" fill="#006F87"/>
<path fill-rule="evenodd" clip-rule="evenodd" d="M289.095 37.2778C289.123 37.1114 289.151 36.945 289.151 36.7707L273.203 41.8015L274.614 39.7417C274.614 39.7337 274.628 39.7258 274.628 39.7179L275.348 38.6642L288.855 34.4019C288.855 34.2276 288.869 34.0612 288.883 33.9028L275.771 38.0383L277.042 36.1765L289.518 32.2391C289.673 32.0014 289.857 31.7796 290.054 31.5736L277.465 35.5427L278.1 34.6158C278.1 34.6079 278.114 34.6 278.114 34.5841L280.881 30.5437L293.371 26.6062C293.3 26.4636 293.216 26.3289 293.145 26.1863L281.304 29.9178L282.687 27.8976L292.524 24.7919C292.482 24.6335 292.454 24.483 292.439 24.3245L283.11 27.2638L284.155 25.7426C284.155 25.7347 284.169 25.7268 284.169 25.7189L287.189 21.3061L294.5 19.0006C294.401 18.858 294.331 18.7154 294.26 18.5807L287.627 20.6723L290.266 16.8219C290.266 16.814 290.28 16.8061 290.28 16.7982L294.641 10.4443C294.712 10.3334 294.613 10.2067 294.415 10.1671C294.218 10.1274 293.992 10.1829 293.921 10.2938L289.955 16.0693L287.697 11.7278C287.457 11.7912 287.232 11.8625 287.006 11.9258L289.504 16.7269L286.526 21.0684C286.526 21.0763 286.512 21.0763 286.512 21.0842L283.76 25.1009L279.413 19.8721C279.173 19.9196 278.919 19.9592 278.679 19.9988L283.379 25.6555L282.334 27.1845L276.604 20.3474C276.364 20.395 276.11 20.4425 275.884 20.498L281.868 27.644L281.784 27.6757C281.6 27.7312 281.53 27.8659 281.643 27.9689C281.671 28.0005 281.713 28.0243 281.756 28.0402L280.203 30.2981C280.203 30.306 280.189 30.3139 280.189 30.3139L277.691 33.9662L273.443 28.9037C273.273 29.0305 273.104 29.1572 272.906 29.2761L277.296 34.5207L276.646 35.4556L271.947 29.8386C271.749 29.9416 271.566 30.0445 271.368 30.1475L276.28 36.0102L274.642 38.4028C274.642 38.4107 274.628 38.4107 274.628 38.4186L274.177 39.0841L268.15 31.8905C267.967 32.0172 267.783 32.144 267.628 32.2787L273.796 39.6466L272.06 42.1739C272.06 42.1818 272.045 42.1818 272.045 42.1897V42.1976C272.342 42.2531 272.652 42.2927 272.963 42.3323L289.095 37.2778Z" fill="white"/>
<path fill-rule="evenodd" clip-rule="evenodd" d="M275.955 36.3323C275.955 36.3323 281.075 33.9202 278.401 29.9027C275.728 25.8852 279.695 24.0136 280.349 22.6341C281.003 21.2547 277.69 19.5847 277.292 17.8019C276.908 16.019 280.264 15.1155 277.676 12.9293C275.088 10.7431 276.14 9.66207 277.335 6.83048C278.529 3.99889 273.765 0.489656 272.23 0.699403C270.694 0.917218 272.926 1.59486 272.244 3.46646C271.547 5.33805 266.044 6.57233 264.807 8.21804C263.57 9.86375 267.452 11.3562 266.158 13.5343C264.864 15.7125 258.564 15.8738 257.682 17.939C256.801 20.0042 261.493 21.7629 261.152 23.8523C260.797 25.9498 257.128 27.5713 256.019 29.3541C254.91 31.137 252.833 34.5575 259.531 37.4859C266.2 40.4223 275.955 36.3323 275.955 36.3323Z" fill="#4D7A72"/>
<path fill-rule="evenodd" clip-rule="evenodd" d="M278.899 31.5197C278.871 31.3499 278.815 31.1801 278.759 31.0022L265.22 37.989L265.808 35.7652C265.808 35.7571 265.808 35.749 265.808 35.7329L266.102 34.5926L277.569 28.6813C277.499 28.5115 277.457 28.3417 277.415 28.1719L266.284 33.9134L266.816 31.8998L277.401 26.4332C277.471 26.1745 277.555 25.9319 277.667 25.7054L266.984 31.2205L267.25 30.2178C267.25 30.2097 267.25 30.2016 267.264 30.1854L268.412 25.8106L279.011 20.344C278.885 20.2146 278.759 20.0852 278.633 19.9558L268.594 25.1394L269.168 22.956L277.527 18.6458C277.429 18.4922 277.345 18.3466 277.275 18.193L269.35 22.2767L269.784 20.6351C269.784 20.627 269.784 20.6189 269.784 20.6109L271.03 15.8397L277.233 12.6455C277.093 12.5161 276.953 12.3868 276.841 12.2574L271.212 15.1605L272.305 10.9959C272.305 10.9878 272.305 10.9797 272.305 10.9716L274.111 4.09796C274.139 3.97666 273.999 3.86344 273.789 3.84727C273.579 3.8311 273.383 3.91196 273.355 4.03326L271.716 10.2761L267.866 6.22474C267.67 6.32178 267.46 6.41073 267.264 6.50777L271.52 10.9878L270.288 15.678C270.288 15.6861 270.288 15.6942 270.288 15.6942L269.154 20.0367L262.951 15.3626C262.727 15.4354 262.503 15.5082 262.279 15.581L268.986 20.6432L268.552 22.301L260.403 16.1956C260.179 16.2764 259.969 16.3492 259.759 16.4382L268.272 22.8185L268.202 22.8589C268.048 22.9398 268.034 23.0773 268.174 23.1662C268.216 23.1905 268.258 23.2147 268.314 23.2228L267.67 25.665C267.67 25.6731 267.67 25.6812 267.67 25.6893L266.634 29.6355L260.599 25.107C260.487 25.2526 260.361 25.3981 260.221 25.5437L266.48 30.2339L266.214 31.2448L259.521 26.223C259.381 26.3524 259.227 26.4818 259.073 26.603L266.06 31.8351L265.374 34.4228C265.374 34.4309 265.374 34.439 265.374 34.439L265.192 35.1587L256.608 28.7298C256.468 28.8754 256.356 29.029 256.244 29.1746L265.024 35.7571L264.309 38.4985C264.309 38.5066 264.309 38.5147 264.309 38.5147V38.5227C264.618 38.5389 264.94 38.547 265.248 38.547L278.899 31.5197Z" fill="#E9EFF8"/>
<path d="M87.6523 107.382H4.18213V150.767H87.6523V107.382Z" fill="#788C8B"/>
<path d="M87.0996 108.914H3.62939V115.495H87.0996V108.914Z" fill="#F5D684"/>
<path fill-rule="evenodd" clip-rule="evenodd" d="M1.38989 111.223H89.4525L77.9574 80.5991H11.7085L1.38989 111.223Z" fill="#4C5857"/>
<path d="M89.4382 111.062H1.38989V112.902H89.4382V111.062Z" fill="#FFF7DD"/>
<path d="M75.4631 119.322H58.5962V142.169H75.4631V119.322Z" fill="#FFF7DD"/>
<path d="M74.6547 120.034H70.2891V130.39H74.6547V120.034Z" fill="#F5D684"/>
<path d="M69.2969 120.034H64.832V130.39H69.2969V120.034Z" fill="#F5D684"/>
<path d="M63.826 120.034H59.3755V130.39H63.826V120.034Z" fill="#F5D684"/>
<path d="M74.6547 131.115H70.2891V141.471H74.6547V131.115Z" fill="#F5D684"/>
<path d="M69.2974 131.115H64.8325V141.471H69.2974V131.115Z" fill="#F5D684"/>
<path d="M63.826 131.115H59.3755V141.471H63.826V131.115Z" fill="#F5D684"/>
<path fill-rule="evenodd" clip-rule="evenodd" d="M73.9885 121.055H70.2891V120.034H74.6547V130.39H73.9885V121.055Z" fill="#F5D684"/>
<path fill-rule="evenodd" clip-rule="evenodd" d="M68.6165 121.055H64.832V120.034H69.2969V130.39H68.6165V121.055Z" fill="#F5D684"/>
<path fill-rule="evenodd" clip-rule="evenodd" d="M63.1599 121.055H59.3755V120.034H63.826V130.39H63.1599V121.055Z" fill="#F5D684"/>
<path fill-rule="evenodd" clip-rule="evenodd" d="M73.9885 132.136H70.2891V131.115H74.6547V141.471H73.9885V132.136Z" fill="#F5D684"/>
<path fill-rule="evenodd" clip-rule="evenodd" d="M68.617 132.136H64.8325V131.115H69.2974V141.471H68.617V132.136Z" fill="#F5D684"/>
<path fill-rule="evenodd" clip-rule="evenodd" d="M63.1599 132.136H59.3755V131.115H63.826V141.471H63.1599V132.136Z" fill="#F5D684"/>
<path d="M78.2266 112.862H11.3115V117.966H78.2266V112.862Z" fill="#F5D684"/>
<path d="M78.2266 117.71H11.3115V119.242H78.2266V117.71Z" fill="white"/>
<path d="M53.7197 119.322H36.8528V152.35H53.7197V119.322Z" fill="#FFF7DD"/>
<path d="M52.9122 120.034H48.5466V126.549H52.9122V120.034Z" fill="#F5D684"/>
<path d="M47.5403 120.034H43.0754V126.549H47.5403V120.034Z" fill="#F5D684"/>
<path d="M42.0831 120.034H37.6326V126.549H42.0831V120.034Z" fill="#F5D684"/>
<path d="M52.9122 127.274H48.5466V131.035H52.9122V127.274Z" fill="#F5D684"/>
<path d="M47.5403 127.274H43.0754V131.035H47.5403V127.274Z" fill="#F5D684"/>
<path d="M42.0831 127.274H37.6326V131.035H42.0831V127.274Z" fill="#F5D684"/>
<path fill-rule="evenodd" clip-rule="evenodd" d="M52.2319 121.055H48.5466V120.034H52.9122V126.549H52.2319V121.055Z" fill="#F5D684"/>
<path fill-rule="evenodd" clip-rule="evenodd" d="M46.8741 121.055H43.0754V120.034H47.5403V126.549H46.8741V121.055Z" fill="#F5D684"/>
<path fill-rule="evenodd" clip-rule="evenodd" d="M41.4028 121.055H37.6326V120.034H42.0831V126.549H41.4028V121.055Z" fill="#F5D684"/>
<path fill-rule="evenodd" clip-rule="evenodd" d="M52.2319 128.295H48.5466V127.274H52.9122V131.022H52.2319V128.295Z" fill="#F5D684"/>
<path fill-rule="evenodd" clip-rule="evenodd" d="M46.8741 128.295H43.0754V127.274H47.5403V131.022H46.8741V128.295Z" fill="#F5D684"/>
<path fill-rule="evenodd" clip-rule="evenodd" d="M41.4028 128.295H37.6326V127.274H42.0831V131.022H41.4028V128.295Z" fill="#F5D684"/>
<path d="M52.9122 131.841H48.5466V135.602H52.9122V131.841Z" fill="#F5D684"/>
<path d="M47.5403 131.841H43.0754V135.602H47.5403V131.841Z" fill="#F5D684"/>
<path d="M42.0831 131.841H37.6326V135.602H42.0831V131.841Z" fill="#F5D684"/>
<path fill-rule="evenodd" clip-rule="evenodd" d="M52.2319 132.862H48.5466V131.841H52.9122V135.588H52.2319V132.862Z" fill="#F5D684"/>
<path fill-rule="evenodd" clip-rule="evenodd" d="M46.8741 132.862H43.0754V131.841H47.5403V135.588H46.8741V132.862Z" fill="#F5D684"/>
<path fill-rule="evenodd" clip-rule="evenodd" d="M41.4028 132.862H37.6326V131.841H42.0831V135.588H41.4028V132.862Z" fill="#F5D684"/>
<path d="M52.9122 136.407H48.5466V140.168H52.9122V136.407Z" fill="#F5D684"/>
<path d="M47.5403 136.407H43.0754V140.168H47.5403V136.407Z" fill="#F5D684"/>
<path d="M42.0831 136.407H37.6326V140.168H42.0831V136.407Z" fill="#F5D684"/>
<path fill-rule="evenodd" clip-rule="evenodd" d="M52.2319 137.428H48.5466V136.407H52.9122V140.168H52.2319V137.428Z" fill="#F5D684"/>
<path fill-rule="evenodd" clip-rule="evenodd" d="M46.8741 137.428H43.0754V136.407H47.5403V140.168H46.8741V137.428Z" fill="#F5D684"/>
<path fill-rule="evenodd" clip-rule="evenodd" d="M41.4028 137.428H37.6326V136.407H42.0831V140.168H41.4028V137.428Z" fill="#F5D684"/>
<path d="M52.9122 141.001H48.5466V151.599H52.9122V141.001Z" fill="#F5D684"/>
<path d="M47.5403 141.001H43.0754V151.599H47.5403V141.001Z" fill="#F5D684"/>
<path d="M42.0831 141.001H37.6326V151.599H42.0831V141.001Z" fill="#F5D684"/>
<path fill-rule="evenodd" clip-rule="evenodd" d="M52.2319 142.022H48.5466V141.001H52.9122V151.599H52.2319V142.022Z" fill="#F5D684"/>
<path fill-rule="evenodd" clip-rule="evenodd" d="M46.8741 142.022H43.0754V141.001H47.5403V151.599H46.8741V142.022Z" fill="#F5D684"/>
<path fill-rule="evenodd" clip-rule="evenodd" d="M41.4028 142.022H37.6326V141.001H42.0831V151.599H41.4028V142.022Z" fill="#F5D684"/>
<path d="M31.4387 119.322H14.5718V142.169H31.4387V119.322Z" fill="#FFF7DD"/>
<path d="M30.6307 120.034H26.2651V130.39H30.6307V120.034Z" fill="#F5D684"/>
<path d="M25.2729 120.034H20.8081V130.39H25.2729V120.034Z" fill="#F5D684"/>
<path d="M19.8016 120.034H15.3511V130.39H19.8016V120.034Z" fill="#F5D684"/>
<path d="M30.6307 131.115H26.2651V141.471H30.6307V131.115Z" fill="#F5D684"/>
<path d="M25.2729 131.115H20.8081V141.471H25.2729V131.115Z" fill="#F5D684"/>
<path d="M19.8016 131.115H15.3511V141.471H19.8016V131.115Z" fill="#F5D684"/>
<path fill-rule="evenodd" clip-rule="evenodd" d="M29.9504 121.055H26.2651V120.034H30.6307V130.39H29.9504V121.055Z" fill="#F5D684"/>
<path fill-rule="evenodd" clip-rule="evenodd" d="M24.5925 121.055H20.8081V120.034H25.2587V130.39H24.5925V121.055Z" fill="#F5D684"/>
<path fill-rule="evenodd" clip-rule="evenodd" d="M19.1213 121.055H15.3511V120.034H19.8016V130.39H19.1213V121.055Z" fill="#F5D684"/>
<path fill-rule="evenodd" clip-rule="evenodd" d="M29.9504 132.136H26.2651V131.115H30.6307V141.471H29.9504V132.136Z" fill="#F5D684"/>
<path fill-rule="evenodd" clip-rule="evenodd" d="M24.5925 132.136H20.8081V131.115H25.2587V141.471H24.5925V132.136Z" fill="#F5D684"/>
<path fill-rule="evenodd" clip-rule="evenodd" d="M19.1213 132.136H15.3511V131.115H19.8016V141.471H19.1213V132.136Z" fill="#F5D684"/>
<path d="M77.5038 118.611H75.647V152.861H77.5038V118.611Z" fill="white"/>
<path d="M57.0936 118.302H55.2368V152.553H57.0936V118.302Z" fill="white"/>
<path d="M34.6276 118.302H32.7708V152.553H34.6276V118.302Z" fill="white"/>
<path d="M13.9054 118.302H12.0486V152.553H13.9054V118.302Z" fill="white"/>
<path fill-rule="evenodd" clip-rule="evenodd" d="M57.533 151.169H58.8937V144.171H57.533V151.169ZM59.404 151.169H60.7647V144.171H59.404V151.169ZM61.2608 151.169H62.6215V144.171H61.2608V151.169ZM63.1317 151.169H64.4924V144.171H63.1317V151.169ZM64.9885 151.169H66.3492V144.171H64.9885V151.169ZM66.8595 151.169H68.2202V144.171H66.8595V151.169ZM68.7163 151.169H70.077V144.171H68.7163V151.169ZM70.5873 151.169H71.9479V144.171H70.5873V151.169ZM72.444 151.169H73.8189V144.171H72.444V151.169ZM74.315 151.169H75.6757V144.171H74.315V151.169ZM76.1293 142.586V152.176H56.9519V142.586H76.1293Z" fill="white"/>
<path fill-rule="evenodd" clip-rule="evenodd" d="M14.1888 151.169H15.5495V144.171H14.1888V151.169ZM16.0456 151.169H17.4063V144.171H16.0456V151.169ZM17.9166 151.169H19.2773V144.171H17.9166V151.169ZM19.7734 151.169H21.134V144.171H19.7734V151.169ZM21.6443 151.169H23.005V144.171H21.6443V151.169ZM23.5011 151.169H24.8618V144.171H23.5011V151.169ZM25.3721 151.169H26.7328V144.171H25.3721V151.169ZM27.2288 151.169H28.6037V144.171H27.2288V151.169ZM29.0998 151.169H30.4747V144.171H29.0998V151.169ZM30.9566 151.169H32.3315V144.171H30.9566V151.169ZM32.785 142.586V152.176H13.5935V142.586H32.785Z" fill="white"/>
<path d="M89.3957 152.284H0.128418V154.205H89.3957V152.284Z" fill="#505F5D"/>
<path d="M308 141.135H98.7932V154.204H308V141.135Z" fill="#505F5D"/>
<path d="M304.882 35.2134H101.911V41.7412H304.882V35.2134Z" fill="#505F5D"/>
<path d="M308 28.6724H98.7932V35.2002H308V28.6724Z" fill="#455352"/>
<path d="M253.714 7.4375H153.079V13.9653H253.714V7.4375Z" fill="#505F5D"/>
<path d="M256.648 0.90918H150.145V7.43692H256.648V0.90918Z" fill="#455352"/>
<path d="M255.273 141.135H151.534V154.204H255.273V141.135Z" fill="#5F7372"/>
<path d="M303.124 41.7285H103.669V141.136H303.124V41.7285Z" fill="#5F7372"/>
<path d="M303.124 45.5693H103.669V141.136H303.124V45.5693Z" fill="#788C8B"/>
<path d="M252.112 13.978H154.695V141.149H252.112V13.978Z" fill="#859C9B"/>
<path d="M145.057 47.2886H113.435V74.5817H145.057V47.2886Z" fill="#505F5D"/>
<path d="M142.151 50.0151H116.312V71.8416H142.151V50.0151Z" fill="#F5D684"/>
<path fill-rule="evenodd" clip-rule="evenodd" d="M142.165 51.0223V50.0283H116.326V70.6996C124.108 63.151 132.825 56.677 142.165 51.0223Z" fill="#FFDF8D"/>
<path d="M145.057 82.3193H113.435V109.612H145.057V82.3193Z" fill="#505F5D"/>
<path d="M142.151 85.0586H116.312V106.885H142.151V85.0586Z" fill="#F5D684"/>
<path fill-rule="evenodd" clip-rule="evenodd" d="M142.165 86.0525V85.0586H116.326V105.743C124.108 98.1948 132.825 91.7207 142.165 86.0525Z" fill="#FFDF8D"/>
<path d="M195.53 82.3193H163.908V109.612H195.53V82.3193Z" fill="#505F5D"/>
<path d="M192.624 85.0586H166.785V106.885H192.624V85.0586Z" fill="#F5D684"/>
<path fill-rule="evenodd" clip-rule="evenodd" d="M192.639 86.0525V85.0586H166.8V105.743C174.581 98.1948 183.298 91.7207 192.639 86.0525Z" fill="#FFDF8D"/>
<path d="M242.899 82.3193H211.277V109.612H242.899V82.3193Z" fill="#505F5D"/>
<path d="M239.994 85.0586H214.155V106.885H239.994V85.0586Z" fill="#F5D684"/>
<path fill-rule="evenodd" clip-rule="evenodd" d="M240.008 86.0525V85.0586H214.169V105.743C221.95 98.1948 230.681 91.7207 240.008 86.0525Z" fill="#FFDF8D"/>
<path d="M195.53 21.3789H163.908V74.5817H195.53V21.3789Z" fill="#505F5D"/>
<path d="M192.625 24.1055H166.786V71.8415H192.625V24.1055Z" fill="#177CBA"/>
<path fill-rule="evenodd" clip-rule="evenodd" d="M192.639 51.0225V24.1055H166.8V70.6864C174.581 63.1512 183.298 56.6772 192.639 51.0225Z" fill="#3F95D2"/>
<path d="M192.625 24.1055H166.786V71.8415H192.625V24.1055Z" fill="#F5D684"/>
<path fill-rule="evenodd" clip-rule="evenodd" d="M192.639 51.0225V24.1055H166.8V70.6864C174.581 63.1512 183.298 56.6772 192.639 51.0225Z" fill="#FFDF8D"/>
<path d="M242.899 21.3789H211.277V74.5817H242.899V21.3789Z" fill="#505F5D"/>
<path d="M239.994 24.1055H214.155V71.8415H239.994V24.1055Z" fill="#F5D684"/>
<path fill-rule="evenodd" clip-rule="evenodd" d="M240.008 51.0225V24.1055H214.169V70.6864C221.95 63.1512 230.681 56.6772 240.008 51.0225Z" fill="#FFDF8D"/>
<path d="M293.897 47.2886H262.275V74.5817H293.897V47.2886Z" fill="#505F5D"/>
<path d="M291.006 50.0151H265.167V71.8416H291.006V50.0151Z" fill="#F5D684"/>
<path fill-rule="evenodd" clip-rule="evenodd" d="M291.006 51.0223V50.0283H265.167V70.6996C272.948 63.151 281.679 56.677 291.006 51.0223Z" fill="#FFDF8D"/>
<path d="M293.897 82.3193H262.275V109.612H293.897V82.3193Z" fill="#505F5D"/>
<path d="M291.006 85.0586H265.167V106.885H291.006V85.0586Z" fill="#F5D684"/>
<path fill-rule="evenodd" clip-rule="evenodd" d="M291.006 86.0525V85.0586H265.167V105.743C272.948 98.1948 281.679 91.7207 291.006 86.0525Z" fill="#FFDF8D"/>
<path d="M252.112 13.978H154.695V18.7194H252.112V13.978Z" fill="#5F7372"/>
<path fill-rule="evenodd" clip-rule="evenodd" d="M176.636 116.824L176.594 117.562V154.204H230.2V117.562L230.157 116.824H176.636Z" fill="#505F5D"/>
<path fill-rule="evenodd" clip-rule="evenodd" d="M180.179 116.824L180.137 117.562V154.204H226.656V117.562L226.613 116.824H180.179Z" fill="#F5D684"/>
<path fill-rule="evenodd" clip-rule="evenodd" d="M180.179 116.824L180.137 117.562V146.629C191.108 136.259 202.546 126.28 214.296 116.837H180.179V116.824Z" fill="#FFDF8D"/>
<path d="M230.185 116.381H176.594V119.672H230.185V116.381Z" fill="#505F5D"/>
<path fill-rule="evenodd" clip-rule="evenodd" d="M197.67 140.45C197.67 143.257 198.535 145.527 199.598 145.527C200.661 145.527 201.526 143.257 201.526 140.45C201.526 137.656 200.661 135.386 199.598 135.386C198.535 135.373 197.67 137.643 197.67 140.45Z" fill="#F5F5F5"/>
<path fill-rule="evenodd" clip-rule="evenodd" d="M205.268 140.45C205.268 143.257 206.132 145.527 207.195 145.527C208.258 145.527 209.137 143.257 209.137 140.45C209.137 137.656 208.272 135.386 207.195 135.386C206.132 135.373 205.268 137.643 205.268 140.45Z" fill="#F5F5F5"/>
<path d="M237.264 154.166C237.264 154.166 237.897 150.855 234.572 149.077C231.247 147.3 231.096 147.32 230.443 147.126C230.061 146.999 229.68 147.261 230.112 147.796C230.544 148.33 230.302 148.466 231.176 148.699C232.05 148.932 232.181 149.961 232.623 150.214C233.055 150.466 233.437 150.534 234.773 151.097C235.989 151.602 237.013 153.03 237.013 153.535C237.013 154.04 238.199 154.205 238.199 154.205L237.264 154.166Z" fill="url(#paint0_linear_674_7821)"/>
<path d="M237.144 153.699C237.144 153.699 237.988 150.65 235.084 148.999C232.181 147.348 231.156 147.368 230.584 147.173C230.252 147.057 231.156 147.455 231.538 147.94C231.92 148.426 231.819 148.319 232.502 148.688C233.296 149.106 233.618 149.523 234.09 149.601C234.763 149.727 234.562 150.407 235.727 150.912C236.782 151.378 236.913 152.611 236.913 153.077C236.913 153.544 237.948 153.699 237.948 153.699H237.144Z" fill="url(#paint1_linear_674_7821)"/>
<path d="M240.077 153.252L240.409 152.951C240.57 152.815 240.761 152.708 240.971 152.65C241.996 152.388 245.231 151.407 246.567 149.047C246.577 149.028 246.567 148.999 246.547 148.989H246.537C246.527 148.989 246.527 148.979 246.517 148.979C246.075 148.95 243.774 148.911 240.7 151.446C240.65 151.485 240.59 151.543 240.55 151.591C240.469 151.698 240.349 151.873 240.288 151.97C240.208 152.106 240.369 152.339 240.158 152.533C239.947 152.728 239.475 153.242 239.475 153.242L239.856 153.514L240.077 153.252Z" fill="url(#paint2_linear_674_7821)"/>
<path d="M238.319 153.058C238.319 153.058 239.203 145.435 236.792 143.036C234.572 140.832 234.542 142.862 234.552 143.202C234.552 143.231 234.562 143.26 234.572 143.289C235.094 144.231 235.275 145.318 235.084 146.367C234.853 147.474 236.491 147.329 236.632 148.416C236.772 149.504 237.345 151.174 237.285 151.951C237.224 152.718 237.224 153.466 237.224 153.466L238.108 153.495L238.319 153.058Z" fill="url(#paint3_linear_674_7821)"/>
<path d="M238.309 153.088C238.319 153.068 238.319 153.049 238.329 153.039C238.379 152.544 239.123 145.358 236.802 143.037C234.602 140.842 234.572 142.833 234.582 143.192C234.592 143.231 234.612 143.28 234.632 143.309C234.793 143.542 235.516 144.532 236.169 144.425C237.947 144.115 236.38 146.193 237.345 147.3C238.118 148.174 237.857 151.194 237.807 151.971C237.767 152.408 237.696 152.835 237.586 153.262C237.566 153.369 237.636 153.476 237.746 153.496C237.757 153.496 237.757 153.496 237.767 153.496C237.787 153.496 237.797 153.505 237.807 153.505H237.967C238.068 153.515 238.148 153.466 238.199 153.379L238.309 153.088Z" fill="url(#paint4_linear_674_7821)"/>
<path d="M239.183 153.524C239.183 153.524 239.344 151.407 240.62 150.126C240.971 149.776 241.423 149.523 241.926 149.417C242.308 149.329 242.93 149.038 243.473 148.047C243.473 148.047 244.498 146.639 245.532 146.212C246.557 145.785 245.532 145.736 245.532 145.736C245.532 145.736 242.589 146.28 240.71 147.941C240.59 148.047 240.469 148.145 240.328 148.222C239.836 148.543 238.49 149.766 238.55 153.311L239.183 153.524Z" fill="url(#paint5_linear_674_7821)"/>
<path d="M241.735 153.359C241.735 153.359 241.775 153.107 241.424 153.107C241.112 153.116 235.928 153.078 235.928 153.078C235.928 153.078 235.687 153.078 235.707 153.252C235.727 153.427 236.511 157.603 236.581 157.7C236.611 157.749 236.672 157.797 236.732 157.807C236.832 157.836 240.469 157.817 240.469 157.817C240.56 157.807 240.62 157.739 240.63 157.651C240.62 157.661 241.745 153.408 241.735 153.359Z" fill="url(#paint6_linear_674_7821)"/>
<defs>
<linearGradient id="paint0_linear_674_7821" x1="229.918" y1="150.642" x2="238.194" y2="150.642" gradientUnits="userSpaceOnUse">
<stop stop-color="#549696"/>
<stop offset="0.51" stop-color="#529596"/>
<stop offset="1" stop-color="#7C7458"/>
</linearGradient>
<linearGradient id="paint1_linear_674_7821" x1="230.51" y1="150.419" x2="237.943" y2="150.419" gradientUnits="userSpaceOnUse">
<stop stop-color="#549696"/>
<stop offset="0.51" stop-color="#529596"/>
<stop offset="1" stop-color="#7C7458"/>
</linearGradient>
<linearGradient id="paint2_linear_674_7821" x1="238.434" y1="154.417" x2="244.734" y2="149.374" gradientUnits="userSpaceOnUse">
<stop stop-color="#79D0B1"/>
<stop offset="0.51" stop-color="#539596"/>
<stop offset="1" stop-color="#A8CEB6"/>
</linearGradient>
<linearGradient id="paint3_linear_674_7821" x1="240.059" y1="151.961" x2="234.736" y2="144.99" gradientUnits="userSpaceOnUse">
<stop stop-color="#75D0D6"/>
<stop offset="0.51" stop-color="#21C2C1"/>
<stop offset="1" stop-color="#64CEB5"/>
</linearGradient>
<linearGradient id="paint4_linear_674_7821" x1="234.58" y1="147.752" x2="238.48" y2="147.752" gradientUnits="userSpaceOnUse">
<stop stop-color="#B7CFAF"/>
<stop offset="0.51" stop-color="#A2CEB9"/>
<stop offset="1" stop-color="#9BC7B1"/>
</linearGradient>
<linearGradient id="paint5_linear_674_7821" x1="238.149" y1="153.921" x2="242.189" y2="147.876" gradientUnits="userSpaceOnUse">
<stop stop-color="#EBE0BC"/>
<stop offset="0.51" stop-color="#A3CEB8"/>
<stop offset="1" stop-color="#97C7B3"/>
</linearGradient>
<linearGradient id="paint6_linear_674_7821" x1="235.709" y1="155.45" x2="241.739" y2="155.45" gradientUnits="userSpaceOnUse">
<stop offset="0.000688093" stop-color="#778682"/>
<stop offset="0.9992" stop-color="#B1B1B1"/>
</linearGradient>
</defs>
</svg>
