<svg width="381" height="220" viewBox="0 0 381 220" fill="none" xmlns="http://www.w3.org/2000/svg">
<path fill-rule="evenodd" clip-rule="evenodd" d="M351.348 56.6546C351.348 56.6546 358.657 54.2563 357.322 48.3888C355.986 42.5101 361.644 40.6584 363.085 38.907C364.526 37.1557 361.31 34.3447 361.662 31.8683C362.031 29.403 366.511 28.7337 364.403 25.3538C362.294 21.9738 364.086 20.6799 366.845 17.0545C369.603 13.4291 365.509 7.88514 363.559 7.91861C361.609 7.95207 363.981 9.24605 362.277 11.6555C360.572 14.065 353.333 14.8012 351.084 16.8203C348.818 18.8393 352.788 21.5053 350.223 24.2271C347.64 26.9489 339.962 26.1012 337.924 28.7449C335.886 31.3886 340.735 34.5455 339.329 37.323C337.924 40.0895 332.723 41.6623 330.544 43.8821C328.366 46.102 324.272 50.3632 330.966 55.4498C337.66 60.5365 351.348 56.6546 351.348 56.6546Z" fill="#006F87"/>
<path fill-rule="evenodd" clip-rule="evenodd" d="M357.364 51.0227C357.399 50.7907 357.434 50.5587 357.434 50.3157L337.711 57.3313L339.456 54.4588C339.456 54.4477 339.474 54.4367 339.474 54.4256L340.364 52.9562L357.067 47.0122C357.067 46.7692 357.085 46.5372 357.102 46.3162L340.887 52.0834L342.458 49.487L357.888 43.996C358.08 43.6646 358.307 43.3552 358.551 43.068L342.982 48.6032L343.767 47.3105C343.767 47.2995 343.785 47.2884 343.785 47.2663L347.206 41.6317L362.653 36.1407C362.566 35.9419 362.461 35.754 362.374 35.5552L347.73 40.7589L349.44 37.9416L361.606 33.6107C361.553 33.3897 361.518 33.1798 361.501 32.9588L349.964 37.0577L351.255 34.9365C351.255 34.9254 351.273 34.9144 351.273 34.9033L355.008 28.7494L364.049 25.5344C363.927 25.3355 363.84 25.1366 363.752 24.9488L355.549 27.8656L358.813 22.4961C358.813 22.4851 358.83 22.474 358.83 22.463L364.224 13.6022C364.311 13.4476 364.189 13.2708 363.944 13.2156C363.7 13.1603 363.421 13.2376 363.333 13.3923L358.429 21.4465L355.636 15.3921C355.339 15.4804 355.06 15.5799 354.781 15.6683L357.87 22.3635L354.188 28.418C354.188 28.429 354.17 28.429 354.17 28.4401L350.767 34.0416L345.391 26.7497C345.094 26.816 344.78 26.8712 344.483 26.9265L350.295 34.8149L349.004 36.9472L341.917 27.4126C341.621 27.4789 341.306 27.5452 341.027 27.6225L348.428 37.588L348.323 37.6322C348.096 37.7096 348.009 37.8974 348.148 38.041C348.183 38.0852 348.236 38.1184 348.288 38.1405L346.368 41.2892C346.368 41.3003 346.351 41.3113 346.351 41.3113L343.261 46.4046L338.008 39.3447C337.798 39.5215 337.589 39.6983 337.344 39.864L342.772 47.178L341.97 48.4816L336.157 40.6484C335.913 40.792 335.686 40.9357 335.442 41.0793L341.516 49.255L339.491 52.5916C339.491 52.6027 339.474 52.6027 339.474 52.6137L338.915 53.5418L331.462 43.5099C331.235 43.6867 331.008 43.8635 330.816 44.0513L338.444 54.3262L336.297 57.8506C336.297 57.8616 336.28 57.8616 336.28 57.8727V57.8837C336.646 57.9611 337.03 58.0163 337.414 58.0716L357.364 51.0227Z" fill="white"/>
<path fill-rule="evenodd" clip-rule="evenodd" d="M341.115 49.7042C341.115 49.7042 347.446 46.3405 344.139 40.7379C340.833 35.1354 345.74 32.5253 346.549 30.6016C347.358 28.6778 343.26 26.349 342.768 23.8627C342.293 21.3765 346.443 20.1165 343.243 17.0677C340.042 14.0189 341.343 12.5114 342.821 8.5626C344.298 4.61381 338.406 -0.279989 336.507 0.0125137C334.608 0.316267 337.369 1.26127 336.525 3.8713C335.663 6.48133 328.857 8.20259 327.327 10.4976C325.797 12.7926 330.598 14.8739 328.998 17.9114C327.398 20.949 319.607 21.174 318.517 24.054C317.426 26.934 323.23 29.3865 322.808 32.3003C322.368 35.2254 317.831 37.4866 316.459 39.9729C315.087 42.4592 312.52 47.2292 320.803 51.313C329.051 55.4081 341.115 49.7042 341.115 49.7042Z" fill="#4D7A72"/>
<path fill-rule="evenodd" clip-rule="evenodd" d="M344.756 42.9928C344.721 42.756 344.652 42.5192 344.583 42.2711L327.838 52.0146L328.565 48.9134C328.565 48.9021 328.565 48.8908 328.565 48.8683L328.929 47.2782L343.111 39.0345C343.024 38.7977 342.973 38.5609 342.921 38.3241L329.154 46.3309L329.812 43.5229L342.903 35.8995C342.99 35.5386 343.094 35.2003 343.232 34.8845L330.02 42.5756L330.349 41.1772C330.349 41.1659 330.349 41.1547 330.366 41.1321L331.786 35.0311L344.895 27.4078C344.739 27.2273 344.583 27.0469 344.427 26.8665L332.011 34.0951L332.721 31.0503L343.059 25.0396C342.938 24.8253 342.834 24.6223 342.747 24.408L332.946 30.103L333.483 27.8137C333.483 27.8025 333.483 27.7912 333.483 27.7799L335.024 21.1264L342.695 16.6719C342.522 16.4914 342.349 16.311 342.211 16.1306L335.25 20.1791L336.6 14.3713C336.6 14.36 336.6 14.3488 336.6 14.3375L338.834 4.75187C338.869 4.58272 338.695 4.42484 338.436 4.40228C338.176 4.37973 337.934 4.4925 337.899 4.66165L335.873 13.3677L331.111 7.71778C330.869 7.8531 330.609 7.97715 330.366 8.11248L335.63 14.36L334.107 20.9008C334.107 20.9121 334.107 20.9234 334.107 20.9234L332.704 26.9792L325.033 20.461C324.756 20.5625 324.479 20.664 324.202 20.7655L332.496 27.825L331.959 30.1368L321.881 21.6226C321.604 21.7353 321.345 21.8368 321.085 21.9609L331.613 30.8586L331.527 30.915C331.336 31.0277 331.319 31.2195 331.492 31.3435C331.544 31.3773 331.596 31.4112 331.665 31.4224L330.869 34.8282C330.869 34.8394 330.869 34.8507 330.869 34.862L329.587 40.3653L322.124 34.05C321.985 34.253 321.83 34.456 321.656 34.659L329.397 41.1998L329.068 42.6094L320.791 35.6063C320.617 35.7867 320.427 35.9672 320.236 36.1363L328.877 43.4327L328.029 47.0414C328.029 47.0526 328.029 47.0639 328.029 47.0639L327.804 48.0676L317.189 39.1022C317.016 39.3052 316.877 39.5195 316.739 39.7225L327.596 48.9021L326.713 52.7251C326.713 52.7363 326.713 52.7476 326.713 52.7476V52.7589C327.094 52.7815 327.492 52.7927 327.873 52.7927L344.756 42.9928Z" fill="#E9EFF8"/>
<path d="M108.241 148.786H5.01318V209.287H108.241V148.786Z" fill="#DBD1B1"/>
<path d="M107.557 150.921H4.32959V160.1H107.557V150.921Z" fill="#F3EAC6"/>
<path fill-rule="evenodd" clip-rule="evenodd" d="M1.5603 154.143H110.467L96.2513 111.436H14.3213L1.5603 154.143Z" fill="#812C11"/>
<path d="M110.45 153.919H1.5603V156.485H110.45V153.919Z" fill="#FFF7DD"/>
<path d="M93.1663 165.438H72.3069V197.3H93.1663V165.438Z" fill="#FFF7DD"/>
<path d="M92.1667 166.431H86.7678V180.872H92.1667V166.431Z" fill="#F3EAC6"/>
<path d="M85.5406 166.431H80.019V180.872H85.5406V166.431Z" fill="#F3EAC6"/>
<path d="M78.7746 166.431H73.2705V180.872H78.7746V166.431Z" fill="#F3EAC6"/>
<path d="M92.1667 181.884H86.7678V196.326H92.1667V181.884Z" fill="#F3EAC6"/>
<path d="M85.5406 181.884H80.019V196.326H85.5406V181.884Z" fill="#F3EAC6"/>
<path d="M78.7746 181.884H73.2705V196.326H78.7746V181.884Z" fill="#F3EAC6"/>
<path fill-rule="evenodd" clip-rule="evenodd" d="M91.3429 167.854H86.7678V166.431H92.1667V180.872H91.3429V167.854Z" fill="#F3EAC6"/>
<path fill-rule="evenodd" clip-rule="evenodd" d="M84.6993 167.854H80.019V166.431H85.5406V180.872H84.6993V167.854Z" fill="#F3EAC6"/>
<path fill-rule="evenodd" clip-rule="evenodd" d="M77.9507 167.854H73.2705V166.431H78.7746V180.872H77.9507V167.854Z" fill="#F3EAC6"/>
<path fill-rule="evenodd" clip-rule="evenodd" d="M91.3429 183.308H86.7678V181.884H92.1667V196.326H91.3429V183.308Z" fill="#F3EAC6"/>
<path fill-rule="evenodd" clip-rule="evenodd" d="M84.6993 183.308H80.019V181.884H85.5406V196.326H84.6993V183.308Z" fill="#F3EAC6"/>
<path fill-rule="evenodd" clip-rule="evenodd" d="M77.9507 183.308H73.2705V181.884H78.7746V196.326H77.9507V183.308Z" fill="#F3EAC6"/>
<path d="M96.5839 156.429H13.8301V163.547H96.5839V156.429Z" fill="#F3EAC6"/>
<path d="M96.5839 163.19H13.8301V165.325H96.5839V163.19Z" fill="white"/>
<path d="M66.2764 165.438H45.417V211.498H66.2764V165.438Z" fill="#FFF7DD"/>
<path d="M65.2776 166.431H59.8787V175.515H65.2776V166.431Z" fill="#F3EAC6"/>
<path d="M58.6339 166.431H53.1123V175.515H58.6339V166.431Z" fill="#F3EAC6"/>
<path d="M51.8854 166.431H46.3813V175.515H51.8854V166.431Z" fill="#F3EAC6"/>
<path d="M65.2776 176.527H59.8787V181.772H65.2776V176.527Z" fill="#F3EAC6"/>
<path d="M58.6339 176.527H53.1123V181.772H58.6339V176.527Z" fill="#F3EAC6"/>
<path d="M51.8854 176.527H46.3813V181.772H51.8854V176.527Z" fill="#F3EAC6"/>
<path fill-rule="evenodd" clip-rule="evenodd" d="M64.4362 167.854H59.8787V166.431H65.2776V175.515H64.4362V167.854Z" fill="#F3EAC6"/>
<path fill-rule="evenodd" clip-rule="evenodd" d="M57.8101 167.854H53.1123V166.431H58.6339V175.515H57.8101V167.854Z" fill="#F3EAC6"/>
<path fill-rule="evenodd" clip-rule="evenodd" d="M51.044 167.854H46.3813V166.431H51.8854V175.515H51.044V167.854Z" fill="#F3EAC6"/>
<path fill-rule="evenodd" clip-rule="evenodd" d="M64.4362 177.95H59.8787V176.527H65.2776V181.753H64.4362V177.95Z" fill="#F3EAC6"/>
<path fill-rule="evenodd" clip-rule="evenodd" d="M57.8101 177.95H53.1123V176.527H58.6339V181.753H57.8101V177.95Z" fill="#F3EAC6"/>
<path fill-rule="evenodd" clip-rule="evenodd" d="M51.044 177.95H46.3813V176.527H51.8854V181.753H51.044V177.95Z" fill="#F3EAC6"/>
<path d="M65.2776 182.895H59.8787V188.14H65.2776V182.895Z" fill="#F3EAC6"/>
<path d="M58.6339 182.895H53.1123V188.14H58.6339V182.895Z" fill="#F3EAC6"/>
<path d="M51.8854 182.895H46.3813V188.14H51.8854V182.895Z" fill="#F3EAC6"/>
<path fill-rule="evenodd" clip-rule="evenodd" d="M64.4362 184.319H59.8787V182.895H65.2776V188.121H64.4362V184.319Z" fill="#F3EAC6"/>
<path fill-rule="evenodd" clip-rule="evenodd" d="M57.8101 184.319H53.1123V182.895H58.6339V188.121H57.8101V184.319Z" fill="#F3EAC6"/>
<path fill-rule="evenodd" clip-rule="evenodd" d="M51.044 184.319H46.3813V182.895H51.8854V188.121H51.044V184.319Z" fill="#F3EAC6"/>
<path d="M65.2776 189.264H59.8787V194.508H65.2776V189.264Z" fill="#F3EAC6"/>
<path d="M58.6339 189.264H53.1123V194.508H58.6339V189.264Z" fill="#F3EAC6"/>
<path d="M51.8854 189.264H46.3813V194.508H51.8854V189.264Z" fill="#F3EAC6"/>
<path fill-rule="evenodd" clip-rule="evenodd" d="M64.4362 190.687H59.8787V189.264H65.2776V194.508H64.4362V190.687Z" fill="#F3EAC6"/>
<path fill-rule="evenodd" clip-rule="evenodd" d="M57.8101 190.687H53.1123V189.264H58.6339V194.508H57.8101V190.687Z" fill="#F3EAC6"/>
<path fill-rule="evenodd" clip-rule="evenodd" d="M51.044 190.687H46.3813V189.264H51.8854V194.508H51.044V190.687Z" fill="#F3EAC6"/>
<path d="M65.2776 195.67H59.8787V210.449H65.2776V195.67Z" fill="#F3EAC6"/>
<path d="M58.6339 195.67H53.1123V210.449H58.6339V195.67Z" fill="#F3EAC6"/>
<path d="M51.8854 195.67H46.3813V210.449H51.8854V195.67Z" fill="#F3EAC6"/>
<path fill-rule="evenodd" clip-rule="evenodd" d="M64.4362 197.094H59.8787V195.67H65.2776V210.449H64.4362V197.094Z" fill="#F3EAC6"/>
<path fill-rule="evenodd" clip-rule="evenodd" d="M57.8101 197.094H53.1123V195.67H58.6339V210.449H57.8101V197.094Z" fill="#F3EAC6"/>
<path fill-rule="evenodd" clip-rule="evenodd" d="M51.044 197.094H46.3813V195.67H51.8854V210.449H51.044V197.094Z" fill="#F3EAC6"/>
<path d="M38.7214 165.438H17.8621V197.3H38.7214V165.438Z" fill="#FFF7DD"/>
<path d="M37.7221 166.431H32.3232V180.872H37.7221V166.431Z" fill="#F3EAC6"/>
<path d="M31.0958 166.431H25.5742V180.872H31.0958V166.431Z" fill="#F3EAC6"/>
<path d="M24.3298 166.431H18.8257V180.872H24.3298V166.431Z" fill="#F3EAC6"/>
<path d="M37.7221 181.884H32.3232V196.326H37.7221V181.884Z" fill="#F3EAC6"/>
<path d="M31.0958 181.884H25.5742V196.326H31.0958V181.884Z" fill="#F3EAC6"/>
<path d="M24.3298 181.884H18.8257V196.326H24.3298V181.884Z" fill="#F3EAC6"/>
<path fill-rule="evenodd" clip-rule="evenodd" d="M36.8808 167.854H32.3232V166.431H37.7221V180.872H36.8808V167.854Z" fill="#F3EAC6"/>
<path fill-rule="evenodd" clip-rule="evenodd" d="M30.2544 167.854H25.5742V166.431H31.0783V180.872H30.2544V167.854Z" fill="#F3EAC6"/>
<path fill-rule="evenodd" clip-rule="evenodd" d="M23.4884 167.854H18.8257V166.431H24.3298V180.872H23.4884V167.854Z" fill="#F3EAC6"/>
<path fill-rule="evenodd" clip-rule="evenodd" d="M36.8808 183.308H32.3232V181.884H37.7221V196.326H36.8808V183.308Z" fill="#F3EAC6"/>
<path fill-rule="evenodd" clip-rule="evenodd" d="M30.2544 183.308H25.5742V181.884H31.0783V196.326H30.2544V183.308Z" fill="#F3EAC6"/>
<path fill-rule="evenodd" clip-rule="evenodd" d="M23.4884 183.308H18.8257V181.884H24.3298V196.326H23.4884V183.308Z" fill="#F3EAC6"/>
<path d="M95.6901 164.445H93.3938V212.21H95.6901V164.445Z" fill="white"/>
<path d="M70.4486 164.015H68.1523V211.779H70.4486V164.015Z" fill="white"/>
<path d="M42.6654 164.015H40.3691V211.779H42.6654V164.015Z" fill="white"/>
<path d="M17.038 164.015H14.7417V211.779H17.038V164.015Z" fill="white"/>
<path fill-rule="evenodd" clip-rule="evenodd" d="M70.9921 209.85H72.6749V200.091H70.9921V209.85ZM73.3059 209.85H74.9887V200.091H73.3059V209.85ZM75.6022 209.85H77.285V200.091H75.6022V209.85ZM77.916 209.85H79.5988V200.091H77.916V209.85ZM80.2123 209.85H81.8951V200.091H80.2123V209.85ZM82.5261 209.85H84.2089V200.091H82.5261V209.85ZM84.8224 209.85H86.5052V200.091H84.8224V209.85ZM87.1362 209.85H88.819V200.091H87.1362V209.85ZM89.4325 209.85H91.1328V200.091H89.4325V209.85ZM91.7463 209.85H93.4291V200.091H91.7463V209.85ZM93.99 197.88V211.254H70.2734V197.88H93.99Z" fill="white"/>
<path fill-rule="evenodd" clip-rule="evenodd" d="M17.3888 209.85H19.0716V200.091H17.3888V209.85ZM19.6851 209.85H21.3679V200.091H19.6851V209.85ZM21.9989 209.85H23.6817V200.091H21.9989V209.85ZM24.2952 209.85H25.978V200.091H24.2952V209.85ZM26.609 209.85H28.2918V200.091H26.609V209.85ZM28.9053 209.85H30.588V200.091H28.9053V209.85ZM31.2191 209.85H32.9019V200.091H31.2191V209.85ZM33.5154 209.85H35.2157V200.091H33.5154V209.85ZM35.8292 209.85H37.5295V200.091H35.8292V209.85ZM38.1255 209.85H39.8258V200.091H38.1255V209.85ZM40.3867 197.88V211.254H16.6526V197.88H40.3867Z" fill="white"/>
<path d="M110.397 211.404H0V214.082H110.397V211.404Z" fill="#876E66"/>
<path d="M380.745 195.857H122.019V214.083H380.745V195.857Z" fill="#876E66"/>
<path d="M376.888 48.144H125.875V57.2473H376.888V48.144Z" fill="#876E66"/>
<path d="M380.745 39.0225H122.019V48.1258H380.745V39.0225Z" fill="#812C11"/>
<path d="M313.609 9.40869H189.154V18.512H313.609V9.40869Z" fill="#876E66"/>
<path d="M317.237 0.305176H185.525V9.40848H317.237V0.305176Z" fill="#812C11"/>
<path d="M315.538 195.857H187.244V214.083H315.538V195.857Z" fill="#FFF7DD"/>
<path d="M374.715 57.2295H128.049V195.858H374.715V57.2295Z" fill="#FFF7DD"/>
<path d="M374.715 62.5859H128.049V195.858H374.715V62.5859Z" fill="#E4E1D3"/>
<path d="M311.629 18.5298H191.153V195.876H311.629V18.5298Z" fill="#EBE0BC"/>
<path d="M179.233 64.9829H140.126V103.044H179.233V64.9829Z" fill="#876E66"/>
<path d="M175.64 68.7856H143.685V99.2237H175.64V68.7856Z" fill="#F3EAC6"/>
<path fill-rule="evenodd" clip-rule="evenodd" d="M175.657 70.1903V68.8042H143.702V97.6313C153.325 87.1045 164.105 78.0761 175.657 70.1903Z" fill="#FAF4DF"/>
<path d="M179.233 113.834H140.126V151.896H179.233V113.834Z" fill="#876E66"/>
<path d="M175.64 117.655H143.685V148.093H175.64V117.655Z" fill="#F3EAC6"/>
<path fill-rule="evenodd" clip-rule="evenodd" d="M175.657 119.041V117.655H143.702V146.501C153.325 135.974 164.105 126.946 175.657 119.041Z" fill="#FAF4DF"/>
<path d="M241.653 113.834H202.546V151.896H241.653V113.834Z" fill="#876E66"/>
<path d="M238.06 117.655H206.104V148.093H238.06V117.655Z" fill="#F3EAC6"/>
<path fill-rule="evenodd" clip-rule="evenodd" d="M238.077 119.041V117.655H206.122V146.501C215.746 135.974 226.526 126.946 238.077 119.041Z" fill="#FAF4DF"/>
<path d="M300.235 113.834H261.128V151.896H300.235V113.834Z" fill="#876E66"/>
<path d="M296.641 117.655H264.686V148.093H296.641V117.655Z" fill="#F3EAC6"/>
<path fill-rule="evenodd" clip-rule="evenodd" d="M296.659 119.041V117.655H264.704V146.501C274.327 135.974 285.125 126.946 296.659 119.041Z" fill="#FAF4DF"/>
<path d="M241.653 28.8511H202.546V103.045H241.653V28.8511Z" fill="#876E66"/>
<path d="M238.06 32.6528H206.104V99.2231H238.06V32.6528Z" fill="#177CBA"/>
<path fill-rule="evenodd" clip-rule="evenodd" d="M238.077 70.1899V32.6528H206.122V97.6122C215.746 87.1041 226.526 78.0757 238.077 70.1899Z" fill="#3F95D2"/>
<path d="M238.06 32.6528H206.104V99.2231H238.06V32.6528Z" fill="#F3EAC6"/>
<path fill-rule="evenodd" clip-rule="evenodd" d="M238.077 70.1899V32.6528H206.122V97.6122C215.746 87.1041 226.526 78.0757 238.077 70.1899Z" fill="#FAF4DF"/>
<path d="M300.235 28.8511H261.128V103.045H300.235V28.8511Z" fill="#876E66"/>
<path d="M296.641 32.6528H264.686V99.2231H296.641V32.6528Z" fill="#F3EAC6"/>
<path fill-rule="evenodd" clip-rule="evenodd" d="M296.659 70.1899V32.6528H264.704V97.6122C274.327 87.1041 285.125 78.0757 296.659 70.1899Z" fill="#FAF4DF"/>
<path d="M363.303 64.9829H324.197V103.044H363.303V64.9829Z" fill="#876E66"/>
<path d="M359.728 68.7856H327.773V99.2237H359.728V68.7856Z" fill="#F3EAC6"/>
<path fill-rule="evenodd" clip-rule="evenodd" d="M359.728 70.1903V68.8042H327.773V97.6313C337.396 87.1045 348.194 78.0761 359.728 70.1903Z" fill="#FAF4DF"/>
<path d="M363.303 113.834H324.197V151.896H363.303V113.834Z" fill="#876E66"/>
<path d="M359.728 117.655H327.773V148.093H359.728V117.655Z" fill="#F3EAC6"/>
<path fill-rule="evenodd" clip-rule="evenodd" d="M359.728 119.041V117.655H327.773V146.501C337.396 135.974 348.194 126.946 359.728 119.041Z" fill="#FAF4DF"/>
<path d="M311.629 18.5298H191.153V25.1419H311.629V18.5298Z" fill="#FFF7DD"/>
<path fill-rule="evenodd" clip-rule="evenodd" d="M218.287 161.954L218.235 162.984V214.082H284.529V162.984L284.476 161.954H218.287Z" fill="#876E66"/>
<path fill-rule="evenodd" clip-rule="evenodd" d="M222.669 161.954L222.617 162.984V214.082H280.147V162.984L280.094 161.954H222.669Z" fill="#EBE0BC"/>
<path fill-rule="evenodd" clip-rule="evenodd" d="M222.669 161.954L222.617 162.984V203.518C236.184 189.057 250.33 175.14 264.861 161.972H222.669V161.954Z" fill="#FAF4DF"/>
<path d="M284.511 161.336H218.235V165.925H284.511V161.336Z" fill="#876E66"/>
<path fill-rule="evenodd" clip-rule="evenodd" d="M244.3 194.903C244.3 198.817 245.369 201.983 246.684 201.983C247.998 201.983 249.068 198.817 249.068 194.903C249.068 191.006 247.998 187.841 246.684 187.841C245.369 187.822 244.3 190.988 244.3 194.903Z" fill="#876E66"/>
<path fill-rule="evenodd" clip-rule="evenodd" d="M253.696 194.903C253.696 198.817 254.765 201.983 256.079 201.983C257.394 201.983 258.481 198.817 258.481 194.903C258.481 191.006 257.412 187.841 256.079 187.841C254.765 187.822 253.696 190.988 253.696 194.903Z" fill="#876E66"/>
<path d="M293.266 214.03C293.266 214.03 294.048 209.412 289.936 206.934C285.824 204.455 285.637 204.482 284.83 204.212C284.357 204.036 283.885 204.401 284.42 205.146C284.954 205.891 284.656 206.08 285.737 206.405C286.817 206.73 286.979 208.166 287.526 208.518C288.06 208.87 288.532 208.965 290.184 209.75C291.688 210.455 292.955 212.445 292.955 213.149C292.955 213.854 294.421 214.084 294.421 214.084L293.266 214.03Z" fill="url(#paint0_linear_318_11673)"/>
<path d="M293.117 213.379C293.117 213.379 294.16 209.127 290.57 206.825C286.979 204.523 285.712 204.55 285.004 204.279C284.594 204.117 285.712 204.672 286.184 205.349C286.656 206.026 286.532 205.877 287.377 206.392C288.358 206.974 288.756 207.556 289.34 207.665C290.172 207.841 289.924 208.789 291.365 209.493C292.669 210.143 292.831 211.863 292.831 212.513C292.831 213.163 294.111 213.379 294.111 213.379H293.117Z" fill="url(#paint1_linear_318_11673)"/>
<path d="M296.744 212.757L297.154 212.337C297.353 212.148 297.589 211.999 297.85 211.918C299.117 211.552 303.118 210.184 304.77 206.893C304.783 206.866 304.77 206.826 304.746 206.812H304.733C304.721 206.812 304.721 206.799 304.708 206.799C304.162 206.758 301.317 206.704 297.515 210.238C297.453 210.293 297.378 210.374 297.328 210.442C297.229 210.59 297.08 210.834 297.005 210.97C296.906 211.159 297.105 211.484 296.844 211.755C296.583 212.026 295.999 212.744 295.999 212.744L296.471 213.123L296.744 212.757Z" fill="url(#paint2_linear_318_11673)"/>
<path d="M294.57 212.486C294.57 212.486 295.663 201.855 292.682 198.51C289.936 195.436 289.899 198.267 289.911 198.741C289.911 198.781 289.923 198.822 289.936 198.862C290.582 200.176 290.806 201.693 290.57 203.155C290.284 204.699 292.309 204.496 292.483 206.013C292.657 207.529 293.365 209.859 293.29 210.942C293.216 212.012 293.216 213.055 293.216 213.055L294.309 213.095L294.57 212.486Z" fill="url(#paint3_linear_318_11673)"/>
<path d="M294.558 212.527C294.57 212.5 294.57 212.473 294.583 212.459C294.645 211.769 295.564 201.747 292.694 198.511C289.973 195.45 289.936 198.226 289.948 198.728C289.961 198.782 289.986 198.849 290.011 198.89C290.209 199.215 291.104 200.596 291.911 200.447C294.11 200.014 292.172 202.912 293.365 204.456C294.322 205.675 293.999 209.886 293.937 210.97C293.887 211.579 293.8 212.175 293.663 212.771C293.638 212.92 293.725 213.069 293.862 213.096C293.874 213.096 293.874 213.096 293.887 213.096C293.912 213.096 293.924 213.109 293.937 213.109H294.135C294.26 213.123 294.359 213.055 294.421 212.933L294.558 212.527Z" fill="url(#paint4_linear_318_11673)"/>
<path d="M295.638 213.137C295.638 213.137 295.837 210.185 297.415 208.397C297.85 207.909 298.409 207.557 299.03 207.408C299.502 207.286 300.273 206.88 300.943 205.499C300.943 205.499 302.211 203.535 303.49 202.939C304.758 202.344 303.49 202.276 303.49 202.276C303.49 202.276 299.85 203.034 297.527 205.35C297.378 205.499 297.229 205.634 297.055 205.743C296.446 206.19 294.781 207.896 294.856 212.839L295.638 213.137Z" fill="url(#paint5_linear_318_11673)"/>
<path d="M298.794 212.906C298.794 212.906 298.844 212.554 298.409 212.554C298.024 212.567 291.613 212.513 291.613 212.513C291.613 212.513 291.315 212.513 291.34 212.757C291.365 213.001 292.334 218.824 292.421 218.959C292.458 219.027 292.533 219.095 292.607 219.108C292.731 219.149 297.229 219.122 297.229 219.122C297.341 219.108 297.415 219.013 297.428 218.892C297.415 218.905 298.807 212.974 298.794 212.906Z" fill="url(#paint6_linear_318_11673)"/>
<defs>
<linearGradient id="paint0_linear_318_11673" x1="284.18" y1="209.116" x2="294.415" y2="209.116" gradientUnits="userSpaceOnUse">
<stop stop-color="#549696"/>
<stop offset="0.51" stop-color="#529596"/>
<stop offset="1" stop-color="#7C7458"/>
</linearGradient>
<linearGradient id="paint1_linear_318_11673" x1="284.912" y1="208.806" x2="294.105" y2="208.806" gradientUnits="userSpaceOnUse">
<stop stop-color="#549696"/>
<stop offset="0.51" stop-color="#529596"/>
<stop offset="1" stop-color="#7C7458"/>
</linearGradient>
<linearGradient id="paint2_linear_318_11673" x1="294.712" y1="214.382" x2="303.212" y2="208.348" gradientUnits="userSpaceOnUse">
<stop stop-color="#79D0B1"/>
<stop offset="0.51" stop-color="#539596"/>
<stop offset="1" stop-color="#A8CEB6"/>
</linearGradient>
<linearGradient id="paint3_linear_318_11673" x1="296.722" y1="210.956" x2="289.113" y2="202.119" gradientUnits="userSpaceOnUse">
<stop stop-color="#75D0D6"/>
<stop offset="0.51" stop-color="#21C2C1"/>
<stop offset="1" stop-color="#64CEB5"/>
</linearGradient>
<linearGradient id="paint4_linear_318_11673" x1="289.946" y1="205.087" x2="294.769" y2="205.087" gradientUnits="userSpaceOnUse">
<stop stop-color="#B7CFAF"/>
<stop offset="0.51" stop-color="#A2CEB9"/>
<stop offset="1" stop-color="#9BC7B1"/>
</linearGradient>
<linearGradient id="paint5_linear_318_11673" x1="294.359" y1="213.69" x2="300.221" y2="205.912" gradientUnits="userSpaceOnUse">
<stop stop-color="#EBE0BC"/>
<stop offset="0.51" stop-color="#A3CEB8"/>
<stop offset="1" stop-color="#97C7B3"/>
</linearGradient>
<linearGradient id="paint6_linear_318_11673" x1="291.342" y1="215.821" x2="298.799" y2="215.821" gradientUnits="userSpaceOnUse">
<stop offset="0.000688093" stop-color="#778682"/>
<stop offset="0.9992" stop-color="#B1B1B1"/>
</linearGradient>
</defs>
</svg>
