<svg width="18" height="19" viewBox="0 0 18 19" fill="none" xmlns="http://www.w3.org/2000/svg">
<path d="M11.2876 3.81923C12.0201 3.9648 12.6934 4.3297 13.2211 4.86723C13.7489 5.40477 14.1071 6.09047 14.2501 6.83659M11.2876 0.763672C12.8095 0.93588 14.2288 1.63006 15.3123 2.73222C16.3957 3.83438 17.0791 5.27903 17.2501 6.82895M16.5001 12.9248V15.2164C16.5009 15.4292 16.4581 15.6398 16.3745 15.8347C16.2908 16.0296 16.168 16.2046 16.0141 16.3484C15.8602 16.4923 15.6785 16.6017 15.4806 16.6699C15.2828 16.7381 15.0731 16.7634 14.8651 16.7442C12.5572 16.4888 10.3403 15.6856 8.39257 14.3991C6.58044 13.2263 5.04407 11.6614 3.89257 9.81575C2.62506 7.82292 1.83625 5.55401 1.59007 3.19284C1.57133 2.9816 1.59598 2.7687 1.66245 2.56769C1.72892 2.36668 1.83575 2.18198 1.97615 2.02533C2.11654 1.86868 2.28743 1.74352 2.47792 1.65782C2.6684 1.57212 2.87433 1.52776 3.08257 1.52756H5.33257C5.69655 1.52391 6.04942 1.65519 6.32539 1.89693C6.60137 2.13866 6.78163 2.47436 6.83257 2.84145C6.92754 3.57483 7.10366 4.29492 7.35757 4.98798C7.45848 5.26139 7.48032 5.55854 7.4205 5.8442C7.36069 6.12987 7.22172 6.39209 7.02007 6.59978L6.06757 7.56992C7.13524 9.48235 8.68991 11.0658 10.5676 12.1533L11.5201 11.1831C11.724 10.9777 11.9814 10.8362 12.2619 10.7753C12.5424 10.7143 12.8341 10.7366 13.1026 10.8394C13.783 11.098 14.49 11.2774 15.2101 11.3741C15.5744 11.4264 15.9071 11.6133 16.145 11.8993C16.3828 12.1852 16.5092 12.5502 16.5001 12.9248Z" stroke="#64D6CD" stroke-linecap="round" stroke-linejoin="round"/>
</svg>
