<svg width="171" height="98" viewBox="0 0 171 98" fill="none" xmlns="http://www.w3.org/2000/svg">
<path d="M123.732 21.3887C123.481 21.7952 123.354 22.2666 123.369 22.7442C123.383 23.2219 123.537 23.6849 123.812 24.0757C124.087 24.4666 124.471 24.7681 124.916 24.9428C125.361 25.1176 125.847 25.1579 126.314 25.0588C126.782 24.9597 127.21 24.7255 127.546 24.3852C127.881 24.045 128.109 23.6138 128.202 23.145C128.295 22.6762 128.248 22.1905 128.067 21.7481C127.886 21.3057 127.58 20.9262 127.185 20.6565C126.629 20.3003 125.955 20.1774 125.308 20.3144C124.662 20.4514 124.096 20.8373 123.732 21.3887Z" fill="#FFF173"/>
<path d="M151.358 31.9321L145.44 31.9809H145.379H144.708L138.729 32.0297L136.654 32.0541L102.268 32.3348L91.2736 31.7246L90.8465 31.7002H90.8221L46.3689 29.2476L83.0736 30.1871L85.0382 30.2359H85.0626L85.3188 30.2482L86.9539 30.2848L87.4908 30.297L89.4554 30.3458H89.492L89.7361 30.358L90.2364 30.3702L91.4078 30.3946L115.715 31.0169L116.508 31.0413L117.85 31.0657L122.621 31.1999L123.646 31.2244L151.358 31.9321Z" fill="#FFC773"/>
<path d="M130.37 11.2846C130.37 15.5798 127.027 16.2388 127.027 16.2388L126.685 16.3852C126.563 16.3852 125.745 10.9552 125.745 10.9552L125.184 12.5537L124.269 30.784L115.849 31.4429L113.97 11.2236H114.971L114.226 6.28166L113.152 4.87838L108.271 3.24327L108.93 0.949219L114.238 3.73136L115.044 3.93881L114.897 4.19505L115.532 5.13464L115.996 5.23226L115.837 5.58612L116.142 6.65993L116.813 11.2846H120.547C120.515 10.0089 120.962 8.76737 121.8 7.80504C122.638 6.8427 123.806 6.22949 125.074 6.08642C129.15 5.67154 130.37 8.66111 130.37 11.2846Z" fill="#EAA947"/>
<path d="M130.077 11.5295C130.094 12.4381 129.851 13.3327 129.378 14.1085C128.905 14.8843 128.22 15.5093 127.405 15.9102L127.063 16.0566L126.709 16.1664C126.709 16.0362 126.685 15.8898 126.636 15.7271C126.642 15.6744 126.642 15.6212 126.636 15.5685C126.404 13.9944 125.989 11.5539 125.989 11.5539C125.992 11.6108 125.992 11.6678 125.989 11.7247C125.879 12.164 125.562 13.3111 125.245 14.4947C125.135 14.934 125.013 15.3732 124.903 15.8003C124.903 15.9224 124.83 16.0444 124.806 16.1664C123.731 15.9033 122.797 15.24 122.194 14.3117C122.147 14.2599 122.106 14.2025 122.072 14.1408C121.627 13.4023 121.38 12.562 121.352 11.7004V11.4563C121.307 10.8502 121.388 10.2414 121.588 9.66785C121.789 9.0943 122.106 8.56837 122.52 8.12297C122.933 7.67757 123.434 7.32226 123.991 7.0793C124.548 6.83634 125.15 6.71094 125.757 6.71094C126.365 6.71094 126.966 6.83634 127.523 7.0793C128.08 7.32226 128.581 7.67757 128.995 8.12297C129.408 8.56837 129.725 9.0943 129.926 9.66785C130.127 10.2414 130.208 10.8502 130.162 11.4563L130.077 11.5295Z" fill="#FFCF73"/>
<path d="M129.516 11.6131C129.538 12.518 129.269 13.4062 128.749 14.1466C128.228 14.887 127.483 15.4404 126.624 15.7253C126.63 15.6726 126.63 15.6194 126.624 15.5667C126.392 13.9926 125.977 11.5521 125.977 11.5521C125.98 11.609 125.98 11.666 125.977 11.7229C125.867 12.1622 125.55 13.3093 125.233 14.4929C125.123 14.9322 125.001 15.3714 124.891 15.7985C123.889 15.5854 123.012 14.9844 122.451 14.1268C122.335 13.9648 122.233 13.7934 122.146 13.6143C121.865 13.0433 121.707 12.4198 121.682 11.784V11.5399C121.662 10.5313 122.01 9.55003 122.662 8.77967C123.313 8.00931 124.223 7.50265 125.221 7.35449H125.794H126.124H126.294H126.538L126.77 7.42772L126.99 7.51313H127.112L127.295 7.59855L127.502 7.72057C127.679 7.82433 127.846 7.94271 128.003 8.07445C128.507 8.51076 128.905 9.05615 129.167 9.66927C129.43 10.2824 129.549 10.9471 129.516 11.6131Z" fill="#9F6B1D"/>
<path d="M125.953 11.5537L125.879 12.8838L124.94 31.1141L124.928 31.2239H116.52L116.508 31.1141L114.641 11.5537H125.953Z" fill="url(#paint0_linear_350_7877)"/>
<path style="mix-blend-mode:multiply" opacity="0.66" d="M115 14.0957C115 14.0957 116.379 30.5566 116.538 30.3492C116.697 30.1418 123.567 29.9465 123.567 29.9465L124.531 13.9492L115 14.0957Z" fill="url(#paint1_linear_350_7877)"/>
<path style="mix-blend-mode:color-dodge" opacity="0.42" d="M125.953 11.5537L125.88 12.8838L124.94 31.1141L124.928 31.2239H122.622V31.1995V31.1141L122.597 30.1501L122.109 14.3237L122.097 14.1528L122.085 13.6281L122.024 11.81V11.7611L122.829 11.5537H125.953Z" fill="url(#paint2_linear_350_7877)"/>
<g style="mix-blend-mode:multiply" opacity="0.94">
<g style="mix-blend-mode:multiply" opacity="0.94">
<path d="M22.4134 81.3148L0.860596 87.4746L0.920961 87.6858L22.4737 81.526L22.4134 81.3148Z" fill="#9B5D00"/>
</g>
</g>
<path d="M0 86.8949L25.0736 79.4404V81.1598L0.962803 87.0715L0 86.8949Z" fill="#D8892D"/>
<path d="M49.6272 63.5835L51.5552 95.4316L51.4209 96.7983L50.2007 88.3908L49.4808 83.3757L47.9311 72.7352L47.8456 72.1495L46.601 63.5835L46.4302 62.412V62.3876L46.1495 60.4108L31.0796 60.0082H30.8966L27.4799 59.9228L27.3091 59.9105L26.0278 59.8861H25.857L24.9052 59.8495H24.7222L3.73413 59.3004L4.18561 59.2272L24.2829 56.1888L50.0299 55.8472L52.0433 56.8356L51.5552 63.5835H49.6272Z" fill="#FFC773"/>
<path d="M27.5162 97.6878H25.7957L24.0385 73.161L23.9287 71.6357L23.3552 63.6066V63.5822L23.2942 62.8134L25.8567 62.728L26.9305 62.7036L26.9427 63.5822L26.9793 65.3271L27.0769 71.2697L27.0891 71.709L27.1135 73.161V73.4539L27.5162 97.6878Z" fill="#9F631D"/>
<path d="M10.7261 62.6199L10.5552 63.7426L9.40822 71.3202L9.12757 73.1628L5.41804 97.6895H3.73413L6.95555 63.7792L7.11419 62.1196L10.7261 62.6199Z" fill="#9F631D"/>
<path d="M51.7747 97.6895H50.0785L46.369 73.175V73.1628L46.2104 72.1256V72.089L44.9291 63.5839L44.7705 62.6199L46.2592 62.4125L46.43 62.3881L47.089 62.3027H47.1012L47.4916 62.2539L48.3824 62.1196L48.5288 63.5839L48.6875 65.3289L51.555 95.4321L51.7747 97.6895Z" fill="#9F631D"/>
<path d="M51.2497 57.0059L50.8348 63.5829H14.7769V60.8862L24.795 60.8374L24.7218 59.849L24.5387 57.0059H51.2497Z" fill="#D8942D"/>
<path d="M25.8572 57.0059V63.5829L23.3557 63.6073L10.5554 63.7415L6.95573 63.7782L4.10038 63.8025L3.55127 59.2999L4.18579 59.2267L24.5393 57.0059H25.8572Z" fill="#9F6B1D"/>
<path opacity="0.31" d="M27.4308 57.0679L30.8352 57.2631L30.9817 63.4619H27.1501L27.4308 57.0679Z" fill="#9F6E25"/>
<path opacity="0.31" d="M47.4916 57.0059V63.5829H47.2353L46.491 57.0059H47.4916Z" fill="#9F6E25"/>
<path d="M51.25 57.0063H51.1158L47.4917 57.0551H46.4911L30.0911 57.2137L27.431 57.2381L25.8569 57.2625L24.5513 57.0063H24.5391L49.7369 56.8843L51.25 57.0063Z" fill="#FF954C"/>
<path d="M47.7598 72.1495V73.1624H6.54028V71.2588L9.40783 71.3198L23.9286 71.6371L25.7102 71.6737L26.5887 71.6981L27.0891 71.7103L46.2101 72.1251L47.7598 72.1495Z" fill="#9F631D"/>
<path d="M47.7602 72.1495V73.1624L46.3691 73.1746L27.1138 73.4552H26.6135V73.1624L26.5891 71.6981L26.5769 71.2588L27.0772 71.271L46.2105 72.0885L47.7602 72.1495Z" fill="#D8892D"/>
<path d="M51.7747 97.6888H51.0548L50.0298 88.3906L49.4807 83.3754L47.4917 65.3281H48.6875L51.5551 95.4314L51.7747 97.6888Z" fill="#D8892D"/>
<path d="M27.5165 97.6888H26.8698L25.7716 73.1621L25.7106 71.6734L25.4177 65.3281H26.9796L27.0772 71.2707L27.0894 71.71L27.1139 73.1621V73.4549L27.5165 97.6888Z" fill="#D8892D"/>
<path d="M145.233 97.6885H143.366L142.548 85.6204L142.231 80.7882L141.718 73.1618L141.621 71.6243L141.072 63.6195V63.5829L141.06 63.3999L140.937 61.6305V61.6184L140.889 60.8496L140.815 59.8002L140.645 57.2255L140.596 56.4445L139.729 43.4368L139.717 43.388L139.607 41.7285L143.11 41.7041L145.172 41.6797V43.388L145.184 56.1517V57.2377V59.91L145.196 62.863V63.5829L145.208 71.2826V73.4546V78.299L145.233 97.6885Z" fill="#EAA947"/>
<path d="M106.6 42.0698L106.563 43.3876L106.173 61.923L106.161 62.2525V62.2647L106.124 63.7046V64.0462L105.392 97.6882H103.696L103.562 95.0036L103.537 94.3447V94.2715L102.073 63.7046L101.987 61.923L101.097 43.3876L101.036 42.0088L105.197 42.0576L106.6 42.0698Z" fill="#EAA947"/>
<path d="M157.972 31.6987L156.178 38.6174L151.321 38.5442H151.236L149.174 38.5076H148.966L143.048 38.4222L141.974 38.3978H141.657L107.649 37.8731L61.9511 37.1775L54.105 37.0555L52.9824 29.0142L97.4356 31.4668H97.46L97.8627 31.479L157.972 31.6987Z" fill="#EAA947"/>
<path d="M151.321 38.5431L150.87 40.105L149.918 43.3874H63.1104L61.9512 37.1764L61.3289 33.8208L107.051 37.8476L107.649 37.8598L141.608 38.3845L141.974 38.3967L143.048 38.4089L148.966 38.5065H149.174L151.236 38.5431H151.321Z" fill="#B68C3B"/>
<path d="M70.9321 40.8508L70.5539 43.3889L67.8206 61.9243L67.5643 63.7058L62.5491 97.6894H60.792L65.1604 43.3889V43.3401L65.4167 40.1064L70.9321 40.8508Z" fill="#EAA947"/>
<path d="M105.478 61.9229H64.6729V63.7044H105.478V61.9229Z" fill="#EA9F47"/>
<path d="M97.9362 31.4917H97.5091L53.0559 29.0513L54.1785 37.0926L61.8782 37.4587L63.1839 43.4256H65.2339H65.3437L61.1827 93.9556V94.5658L60.9264 97.6773H61.927L62.0002 97.1527L62.1589 95.7372L62.3053 94.5169L62.3663 93.9678L66.027 63.6938H102.244L103.708 94.2607V94.3339V94.9928L103.83 97.4333V97.6407H104.745V96.1521V94.4437V94.2363L104.294 63.6572V61.8756L103.818 43.4135H105.258V38.6423H107.552L107.71 37.898L108.259 35.3355L108.369 34.7986L108.943 32.1385L97.9362 31.4917ZM102.036 61.9244H67.8696L70.5541 43.4135H101.06L102.036 61.9244Z" fill="#9F6B1D"/>
<path d="M144.171 97.6892H143.365L142.548 85.621L142.23 80.7889L141.718 73.1624L141.608 71.6249L141.071 63.6202V63.5836L141.059 63.4006L140.937 61.6312V61.619L140.888 60.8503L140.815 59.8008L140.644 57.2262L140.595 56.4574L139.705 43.4375H139.729L142.426 43.3887L142.828 56.189L142.853 57.0065L142.865 57.0675L142.95 59.8497L143.048 62.766L143.072 63.5836V63.5958L143.329 71.6615L143.378 73.1624L144.171 97.6892Z" fill="#926118"/>
<path d="M151.321 38.543L150.87 40.1049H105.197V38.6162H107.491L141.95 38.5552H142.999L148.954 38.543H149.162H151.236H151.321Z" fill="#926118"/>
<path opacity="0.31" d="M143.304 31.6499L141.95 38.5564L142.999 38.5442L145.342 31.7963L151.321 31.7475L148.954 38.5442H149.162L152.066 31.7475L143.304 31.6499Z" fill="#9F7D25"/>
<path d="M142.438 63.3758L141.352 63.4002H141.059L132.798 63.5588L128.588 63.632L124.989 63.7053L122.121 63.7541L106.124 64.0469L105.221 64.0591L105.209 63.7053L105.184 62.2776H105.477L106.161 62.2654L121.902 61.9725L132.798 61.7773L140.937 61.6308L142.402 61.5942L142.426 62.7779L142.438 63.3758Z" fill="#EAA947"/>
<path d="M167.648 63.5835L169.576 95.4316L169.442 96.7983L168.222 88.3908L167.502 83.4001L165.952 72.7352L165.867 72.1495L164.622 63.5835L164.451 62.412V62.3876L164.158 60.4108L149.088 60.0082H148.918L145.501 59.9228L145.33 59.9105H145.184L144.049 59.8861H143.866L142.951 59.8495H142.914H142.743L140.815 59.8007L121.743 59.3004L122.194 59.2394L140.596 56.4573V56.4451L142.304 56.1888H142.829L145.184 56.1522L168.051 55.8472L170.064 56.8356L169.564 63.5835H167.648Z" fill="#FFCF73"/>
<path d="M145.525 97.6878H143.817L142.06 73.161L141.95 71.6357L141.364 63.6066V63.5822L141.352 63.3992L141.316 62.8134L142.426 62.7768L143.048 62.7646L143.866 62.728L144.952 62.7036L144.964 63.5822L144.989 65.3271L145.098 71.2697V71.709L145.123 73.161L145.135 73.4539L145.208 78.2982L145.525 97.6878Z" fill="#925318"/>
<path d="M128.747 62.6199L128.588 63.6327L128.576 63.7426L127.429 71.3202L127.149 73.1628L123.439 97.6895H121.743L124.977 63.7792L124.989 63.706L125.135 62.1196L128.747 62.6199Z" fill="#925318"/>
<path d="M169.784 97.6895H168.1L164.39 73.175V73.1628L164.232 72.1256V72.089L162.938 63.5839L162.792 62.6199L164.281 62.4125L164.452 62.3881L165.11 62.3027L165.513 62.2539L166.404 62.1196L166.538 63.5839L166.709 65.3289L169.577 95.4321L169.784 97.6895Z" fill="#9F731D"/>
<path d="M169.271 57.0059L168.856 63.5829H132.798V60.8862L140.888 60.8496L142.816 60.8374L142.743 59.849L142.56 57.0059H169.271Z" fill="#D8942D"/>
<path d="M143.866 57.0059V63.5829L143.073 63.5951L141.364 63.6073L141.071 63.6195L128.576 63.7415L124.976 63.7782L122.121 63.8025V63.7538L121.901 61.9722L121.572 59.2999L122.194 59.2389L140.644 57.2255L142.56 57.0059H143.866Z" fill="#9F6B1D"/>
<path opacity="0.31" d="M165.513 57.0059V63.5829H165.257L164.512 57.0059H165.513Z" fill="#9F6E25"/>
<path d="M169.271 57.0063H169.137L165.513 57.0551H164.512L148.112 57.2137L145.44 57.2381L143.878 57.2625L142.572 57.0063H142.56L167.758 56.8843L169.271 57.0063Z" fill="#CA8928"/>
<path d="M165.781 72.1495V73.1624H124.549V71.2588L127.429 71.3198L141.608 71.6248H141.62L141.95 71.6371L143.329 71.6615L143.731 71.6737L144.61 71.6981L145.098 71.7103H145.208L164.231 72.1251L165.781 72.1495Z" fill="#925318"/>
<path d="M165.781 72.1495V73.1624L164.39 73.1746L145.208 73.4552H145.135H144.635L144.622 73.1624L144.61 71.6981L144.598 71.2588L145.098 71.271L145.208 71.2832L164.231 72.0885L165.781 72.1495Z" fill="#D8942D"/>
<path d="M169.784 97.6888H169.076L168.051 88.3906L167.502 83.3998L165.513 65.3281H166.709L169.577 95.4314L169.784 97.6888Z" fill="#D8892D"/>
<path d="M145.526 97.6888H144.891L143.793 73.1621L143.732 71.6734L143.439 65.3281H144.989L145.098 71.2707V71.71L145.123 73.1621L145.135 73.4549L145.208 78.2992L145.526 97.6888Z" fill="#D8892D"/>
<defs>
<linearGradient id="paint0_linear_350_7877" x1="120.23" y1="9.19865" x2="120.852" y2="31.9195" gradientUnits="userSpaceOnUse">
<stop offset="0.02" stop-color="#2AAABC"/>
<stop offset="0.99" stop-color="#1F8C7F"/>
</linearGradient>
<linearGradient id="paint1_linear_350_7877" x1="2295.85" y1="3697" x2="2304.04" y2="3956.96" gradientUnits="userSpaceOnUse">
<stop stop-color="#A7CCBF"/>
<stop offset="0.12" stop-color="#A1D5C5"/>
<stop offset="0.33" stop-color="#93D9DD"/>
<stop offset="0.61" stop-color="#C0E2DA"/>
<stop offset="0.69" stop-color="#CFE9E6"/>
</linearGradient>
<linearGradient id="paint2_linear_350_7877" x1="1025.97" y1="4611.83" x2="1115.35" y2="4569.97" gradientUnits="userSpaceOnUse">
<stop stop-color="#6DCBD8"/>
<stop offset="0.12" stop-color="#77CDD9"/>
<stop offset="0.33" stop-color="#93CBDD"/>
<stop offset="0.61" stop-color="#C0E2E2"/>
<stop offset="0.69" stop-color="#CFE7E9"/>
</linearGradient>
</defs>
</svg>
