<svg width="140" height="132" viewBox="0 0 140 132" fill="none" xmlns="http://www.w3.org/2000/svg">
<g opacity="0.71">
<path d="M120.206 90.0196C120.206 90.0196 109.828 86.669 100.043 82.6958L97.7895 81.7766C93.7763 80.1864 89.899 78.2726 86.196 76.054L85.603 75.6686C82.9739 73.8981 80.4947 71.9148 78.1903 69.7384L77.0932 68.6413C76.2927 67.8407 75.6403 67.0995 75.0769 66.4472C74.3915 65.6898 73.7576 64.8874 73.1793 64.0454V64.253C73.1139 64.663 73.0248 65.069 72.9124 65.4687C71.2128 72.2253 67.2981 78.2176 61.7934 82.4883L59.8364 83.8226C56.503 85.8662 53.0014 87.6221 49.3696 89.0708C48.4208 89.4859 47.5313 89.812 46.6714 90.1085C44.2782 91.001 41.8063 91.6662 39.2884 92.0952L43.2022 86.165L20.3711 86.8173C20.3711 86.8173 21.8239 84.0301 24.4036 79.7604C27.9689 73.8372 31.8591 68.1157 36.0563 62.6222L37.361 60.9321C40.8662 56.4514 44.7126 52.2482 48.8655 48.3601C50.3777 46.9665 51.8306 45.6619 53.4911 44.4759C54.5585 43.6753 55.6259 42.9044 56.723 42.1928C59.3451 40.4475 62.1999 39.08 65.2032 38.1306C67.1751 37.5358 69.222 37.2263 71.2816 37.2114C73.8867 37.2121 76.4832 37.5105 79.0205 38.1009L80.9181 38.605C93.4011 42.3706 101.674 52.7188 105.677 58.9752L106.892 60.9618C107.485 61.9699 107.9 62.8001 108.167 63.3042C108.289 63.5249 108.398 63.7527 108.493 63.9862L112.14 72.0512L120.206 90.0196Z" fill="#29666C"/>
<path d="M111.695 41.0664L105.617 58.8569L103.126 66.0918V66.3883L97.8777 81.7178L93.519 94.5566L83.2895 77.7446L78.1599 69.6203L77.0628 67.8412V69.7982L81.6291 78.6934L91.4435 97.8182L79.0494 129.841L68.6123 130.493L65.6472 110.39C67.2187 103.066 69.0867 94.2601 71.0733 84.8311C72.3482 78.9009 73.6826 72.5853 74.9872 66.329C75.7878 62.5633 76.5884 58.768 77.3593 55.0024C78.5454 49.3687 79.6721 43.824 80.7692 38.5461C81.5104 34.9584 82.222 31.4892 82.8743 28.2276C84.1197 22.1195 85.2168 16.6638 86.0767 12.2161V11.7121C86.3732 10.1406 86.6697 8.74699 86.9069 7.44235C87.1145 6.28597 87.322 5.21854 87.4703 4.29937C87.8077 2.88984 87.9964 1.44886 88.0336 0C87.4187 1.35408 86.9707 2.77786 86.6993 4.24005C86.4918 5.09993 86.2546 6.10806 85.9581 7.20514C85.9581 7.50165 85.8098 7.79817 85.7505 8.09468C85.4737 9.12257 85.2069 10.2197 84.9499 11.3859C83.8232 16.1597 82.4296 22.1492 80.8878 28.8503C80.2355 31.8154 79.5238 34.7805 78.8122 38.0421C77.7151 42.9048 76.5587 48.0047 75.4024 53.164C74.6314 56.7221 73.8308 60.3395 73.0302 63.9273V64.1348L72.7634 65.3505C71.1326 72.6446 69.5611 79.8498 68.0489 86.6102C66.8036 92.3921 65.6176 97.8182 64.5501 102.651L62.7118 89.7532L61.6443 82.3701L59.6577 68.4342L58.7386 61.9407L57.4043 62.5337L58.1455 69.4127L59.6577 83.6451L60.4286 90.9985L62.6228 111.339C60.992 118.722 60.0135 123.199 60.0135 123.199L56.0996 131.057H84.8313L99.9236 82.5777L104.638 67.3965L105.528 64.4313L106.714 60.636L112.881 40.7996L111.695 41.0664ZM61.4367 130.493L63.6605 120.145L64.6983 129.841L61.4367 130.493Z" fill="url(#paint0_linear_376_4015)"/>
<path d="M139.774 78.9297L124.118 70.4496L128.685 82.3099L112.08 72.11L104.845 67.5141L103.126 66.4467H102.918L91.5618 59.4491L94.6752 71.3094V71.9024L94.2305 71.4873L77.3887 55.1497L75.4911 53.3113L73.7713 51.6509C70.6134 58.4135 65.7619 64.2455 59.6871 68.5815L58.2046 69.6193C54.6013 71.987 50.7295 73.9179 46.6704 75.3715L44.2983 76.2017C37.8069 78.2546 31.0823 79.48 24.284 79.8488C20.1093 80.169 15.9164 80.169 11.7417 79.8488L14.351 72.6734L0 82.4581L4.56617 63.5112L1.95688 66.1205C1.95688 66.1205 1.30462 54.2601 13.0464 38.7231C16.4693 34.1271 20.7723 30.258 25.705 27.3411C30.6377 24.4243 36.1015 22.518 41.7781 21.7332H32.6455C32.6455 21.7332 46.3442 4.12054 60.7249 9.87281L61.5256 10.2286C62.9119 10.8534 64.2083 11.6611 65.3801 12.6303C74.2754 19.8355 71.9033 32.9412 71.844 33.3859C74.7112 31.588 77.7755 30.1256 80.9765 29.0272L82.9038 28.4046C94.5476 24.7506 107.138 25.597 118.188 30.7766C125.58 34.2868 131.463 40.3381 134.763 47.8259C138.889 57.646 140.607 68.3105 139.774 78.9297Z" fill="url(#paint1_linear_376_4015)"/>
<path d="M66.6568 41.7765C62.7428 27.3958 42.4913 29.3528 42.4913 29.3528L45.7529 30.687C40.0729 32.4422 34.9176 35.5803 30.7496 39.8195C23.5741 46.995 24.2264 65.9419 24.2264 65.9419C24.2264 65.9419 46.4052 44.3858 55.5674 42.4288C64.7295 40.4718 66.6568 41.7765 66.6568 41.7765Z" fill="#332A14" fill-opacity="0.2"/>
<g style="mix-blend-mode:multiply" opacity="0.37">
<path fill-rule="evenodd" clip-rule="evenodd" d="M74.6913 94.3496L73.7129 95.5653C74.1577 95.1502 74.5134 94.6165 74.6913 94.3496Z" fill="#485B06"/>
</g>
</g>
<defs>
<linearGradient id="paint0_linear_376_4015" x1="14401.4" y1="35031.5" x2="18978.6" y2="34618.5" gradientUnits="userSpaceOnUse">
<stop offset="0.02" stop-color="#9A5C00"/>
<stop offset="0.99" stop-color="#6B3300"/>
</linearGradient>
<linearGradient id="paint1_linear_376_4015" x1="33.8613" y1="10.3472" x2="74.4533" y2="76.0239" gradientUnits="userSpaceOnUse">
<stop stop-color="#04978E"/>
<stop offset="0.427083" stop-color="#5F8C8A"/>
<stop offset="1" stop-color="#006F87"/>
</linearGradient>
</defs>
</svg>
