<svg width="146" height="128" viewBox="0 0 146 128" fill="none" xmlns="http://www.w3.org/2000/svg">
<g opacity="0.71">
<path d="M124.791 84.4034C124.791 84.4034 114.017 80.925 103.859 76.8002L101.52 75.846C97.3534 74.1951 93.3282 72.2083 89.4839 69.9051L88.8683 69.5049C86.1389 67.6669 83.5651 65.6079 81.1728 63.3485L80.0339 62.2096C79.2028 61.3784 78.5255 60.6089 77.9406 59.9317C77.2291 59.1454 76.571 58.3124 75.9706 57.4383V57.6538C75.9027 58.0795 75.8102 58.5009 75.6936 58.9159C73.9291 65.9303 69.865 72.1512 64.1503 76.5848L62.1187 77.97C58.6581 80.0916 55.0229 81.9144 51.2526 83.4185C50.2676 83.8494 49.3441 84.1879 48.4514 84.4958C45.9669 85.4223 43.4007 86.1129 40.7867 86.5582L44.8499 80.4018L21.1477 81.079C21.1477 81.079 22.656 78.1855 25.334 73.7528C29.0354 67.6036 33.074 61.6639 37.4314 55.9608L38.7858 54.2062C42.4248 49.5545 46.4178 45.191 50.7293 41.1546C52.2991 39.7079 53.8075 38.3535 55.5312 37.1222C56.6394 36.2911 57.7476 35.4907 58.8865 34.7519C61.6086 32.9401 64.5723 31.5205 67.6902 30.5348C69.7374 29.9173 71.8623 29.596 74.0005 29.5806C76.705 29.5813 79.4006 29.8911 82.0347 30.504L84.0047 31.0273C96.964 34.9366 105.552 45.6796 109.708 52.1746L110.97 54.237C111.585 55.2836 112.016 56.1455 112.293 56.6688C112.42 56.898 112.533 57.1344 112.632 57.3768L116.418 65.7495L124.791 84.4034Z" fill="#29666C"/>
<path d="M115.957 33.5826L109.647 52.0518L107.061 59.5627V59.8705L101.612 75.7848L97.0875 89.1134L86.4677 71.66L81.1424 63.2258L80.0034 61.3788V63.4105L84.7439 72.6451L94.9328 92.4995L82.0658 125.744L71.2305 126.421L68.1523 105.551C69.7838 97.948 71.723 88.8056 73.7854 79.0169C75.109 72.8605 76.4942 66.304 77.8487 59.8089C78.6798 55.8996 79.5109 51.9595 80.3113 48.0502C81.5426 42.2016 82.7123 36.4453 83.8512 30.9661C84.6208 27.2415 85.3595 23.6399 86.0367 20.2539C86.7755 21.765 84.1283 26.9365 85.0209 22.3192V21.7959C85.3288 20.1644 81.7888 35.1213 82.0351 33.7669C82.2505 32.5664 82.466 31.4583 82.6199 30.504C82.9702 29.0407 83.1661 27.5448 83.2047 26.0406C82.5664 27.4464 82.1013 28.9245 81.8196 30.4424C81.6041 31.3351 81.3578 32.3817 81.05 33.5206C81.05 33.8285 80.8961 34.1363 80.8345 34.4441C80.5472 35.5112 84.118 20.2465 83.8512 21.4573C82.6815 26.4132 85.0209 21.7958 83.9744 20.9004C83.2972 23.9786 82.5583 27.0564 81.8196 30.4424C80.6806 35.4907 79.4802 40.7856 78.2797 46.1417C77.4793 49.8355 76.6481 53.591 75.817 57.3156V57.531L75.54 58.7931C73.847 66.3655 72.2155 73.8455 70.6457 80.8639C69.3528 86.8664 68.1215 92.4995 67.0134 97.517L65.1049 84.1267L63.9967 76.462L61.9344 61.9944L60.9801 55.2532L59.5949 55.8688L60.3645 63.0103L61.9344 77.7856L62.7346 85.4196L65.0126 106.536C63.3196 114.201 62.3037 118.849 62.3037 118.849L58.2405 127.006H88.0683L103.736 76.6775L108.631 60.9171L109.554 57.8389L110.786 53.8988L117.188 33.3055L115.957 33.5826ZM63.7812 126.421L66.0899 115.678L67.1673 125.744L63.7812 126.421Z" fill="url(#paint0_linear_350_7871)"/>
<path d="M145.107 72.8901L128.854 64.0864L133.594 76.3993L116.356 65.8102L108.845 61.0389L107.06 59.9308H106.845L95.055 52.6663L98.2872 64.979V65.5947L97.8255 65.1637L80.3412 48.2028L78.3712 46.2943L76.5858 44.5705C73.3074 51.5911 68.2709 57.6457 61.9643 62.1471L60.4252 63.2245C56.6845 65.6825 52.6649 67.6871 48.451 69.1962L45.9884 70.0581C39.2493 72.1892 32.2681 73.4614 25.2104 73.8443C20.8765 74.1767 16.5236 74.1767 12.1897 73.8443L14.8985 66.3951L0 76.5531L4.74037 56.8834L2.03154 59.5922C2.03154 59.5922 1.35439 47.2794 13.5441 31.1496C17.0976 26.3782 21.5648 22.3615 26.6857 19.3334C31.8066 16.3052 37.4788 14.3262 43.372 13.5114H33.891C33.891 13.5114 48.1124 -4.77313 63.0417 1.1986L63.8728 1.56797C65.3121 2.21658 66.658 3.05515 67.8745 4.06131C77.1091 11.5414 74.6465 25.147 74.5849 25.6088C77.5615 23.7423 80.7427 22.224 84.0659 21.0838L86.0667 20.4374C98.1547 16.644 111.226 17.5227 122.697 22.8999C130.371 26.5441 136.478 32.8262 139.905 40.5996C144.188 50.7944 145.972 61.8658 145.107 72.8901Z" fill="url(#paint1_linear_350_7871)"/>
<path d="M69.199 34.3198C65.1357 19.3905 44.1116 21.4221 44.1116 21.4221L47.4976 22.8073C41.6009 24.6294 36.2489 27.8872 31.9219 32.2882C24.4726 39.7374 25.1498 59.4072 25.1498 59.4072C25.1498 59.4072 48.1748 37.0286 57.6865 34.997C67.1982 32.9654 69.199 34.3198 69.199 34.3198Z" fill="#332A14" fill-opacity="0.2"/>
<g style="mix-blend-mode:multiply" opacity="0.37">
<path fill-rule="evenodd" clip-rule="evenodd" d="M77.5404 88.8984L76.5247 90.1605C76.9864 89.7296 77.3557 89.1755 77.5404 88.8984Z" fill="#485B06"/>
</g>
</g>
<defs>
<linearGradient id="paint0_linear_350_7871" x1="14950.8" y1="36358.9" x2="19702.6" y2="35930.2" gradientUnits="userSpaceOnUse">
<stop offset="0.02" stop-color="#9A5C00"/>
<stop offset="0.99" stop-color="#6B3300"/>
</linearGradient>
<linearGradient id="paint1_linear_350_7871" x1="35.1531" y1="1.69111" x2="77.2938" y2="69.8734" gradientUnits="userSpaceOnUse">
<stop stop-color="#04978E"/>
<stop offset="0.427083" stop-color="#5F8C8A"/>
<stop offset="1" stop-color="#006F87"/>
</linearGradient>
</defs>
</svg>
